TexturaLiberaEx-Light.sfdir
StartChar: exclam
Encoding: 33 33 1
Width: 360
Flags: W
HStem: 617 20G<210 247>
VStem: 113 116<428.544 527> 143 74<215 413.987>
LayerCount: 2
Back
SplineSet
155 50 m 25
 205 0 l 1049
150 540 m 1
 150 540 167 516 168 500 c 24
 178 381 180 195 180 195 c 1
 180 195 184 381 192 500 c 24
 193.5 539 210 600 210 600 c 9
 150 540 l 1
EndSplineSet
Fore
SplineSet
113 520 m 1xc0
 230 637 l 1
 247 620 l 1
 247 620 231 559 229 520 c 0xc0
 221 401 217 215 217 215 c 1
 160 158 l 1
 143 175 l 1xa0
 143 175 141 361 131 480 c 0
 130 496 113 520 113 520 c 1xc0
118 30 m 1
 175 87 l 1
 242 20 l 1
 185 -37 l 1
 118 30 l 1
EndSplineSet
EndChar
StartChar: quotedbl
Encoding: 34 34 2
Width: 600
Flags: W
HStem: 371 248
LayerCount: 2
Back
SplineSet
392.5 582.5 m 25
 442.5 532.5 l 1
 442.5 482.5 l 25
 367.5 407.5 l 1049
152.5 582.5 m 25
 202.5 532.5 l 1
 202.5 482.5 l 25
 127.5 407.5 l 1049
EndSplineSet
Fore
SplineSet
116 563 m 1
 172 619 l 1
 239 552 l 1
 239 502 l 1
 108 371 l 1
 91 388 l 1
 166 463 l 1
 166 513 l 1
 116 563 l 1
356 563 m 1
 412 619 l 1
 479 552 l 1
 479 502 l 1
 348 371 l 1
 331 388 l 1
 406 463 l 1
 406 513 l 1
 356 563 l 1
EndSplineSet
EndChar
StartChar: numbersign
Encoding: 35 35 3
Width: 840
Flags: W
HStem: -177 21G<33 64 273 304> 173 54<76 224 291 464 531 764> 373 54<76 337 404 577 644 764>
LayerCount: 2
Back
SplineSet
300 -150 m 25
 780 700 l 1049
60 -150 m 25
 540 700 l 1049
60 200 m 25
 780 200 l 1049
60 400 m 25
 780 400 l 1049
EndSplineSet
Fore
SplineSet
33 384 m 1
 76 427 l 1
 368 427 l 1
 513 684 l 1
 556 727 l 1
 567 716 l 1
 404 427 l 1
 608 427 l 1
 753 684 l 1
 796 727 l 1
 807 716 l 1
 644 427 l 1
 796 427 l 1
 807 416 l 1
 764 373 l 1
 614 373 l 1
 531 227 l 1
 796 227 l 1
 807 216 l 1
 764 173 l 1
 501 173 l 1
 327 -134 l 1
 284 -177 l 1
 273 -166 l 1
 464 173 l 1
 261 173 l 1
 87 -134 l 1
 44 -177 l 1
 33 -166 l 1
 224 173 l 1
 44 173 l 1
 33 184 l 1
 76 227 l 1
 255 227 l 1
 337 373 l 1
 44 373 l 1
 33 384 l 1
291 227 m 1
 495 227 l 1
 577 373 l 1
 374 373 l 1
 291 227 l 1
EndSplineSet
EndChar
StartChar: dollar
Encoding: 36 36 4
Width: 720
Flags: W
HStem: -187 21G<323 360> 13 74<114.848 320.323> 513 74<399.677 605.152> 617 20G<240 323 644 697>
VStem: 83 74<374 460> 323 74<-130 -22 72 254 346 528 622 680> 563 74<140 226>
CounterMasks: 1 0e
LayerCount: 2
Back
SplineSet
360 700 m 25
 360 -150 l 1049
660 600 m 17
 660 600 610 550 570 550 c 24
 440 550 240 600 240 600 c 9
 120 480 l 1
 120 340 l 1
 600 260 l 1
 600 120 l 1
 480 0 l 17
 480 0 280 50 150 50 c 24
 110 50 60 0 60 0 c 1025
EndSplineSet
Fore
SplineSet
697 620 m 1
 640 563 l 1
 640 563 590 513 550 513 c 0
 504 513 449 520 397 528 c 1
 397 334 l 1
 620 297 l 1
 637 280 l 1
 637 140 l 1
 460 -37 l 1
 460 -37 435 -30 397 -22 c 1
 397 -130 l 1
 340 -187 l 1
 323 -170 l 1
 323 -8 l 1
 261 3 188 13 130 13 c 0
 90 13 40 -37 40 -37 c 1
 23 -20 l 1
 80 37 l 1
 80 37 130 87 170 87 c 0
 216 87 271 80 323 72 c 1
 323 266 l 1
 100 303 l 1
 83 320 l 1
 83 460 l 1
 260 637 l 1
 260 637 285 630 323 622 c 1
 323 680 l 1
 380 737 l 1
 397 720 l 1
 397 608 l 1
 459 597 532 587 590 587 c 0
 630 587 680 637 680 637 c 1
 697 620 l 1
323 541 m 1
 263 553 220 563 220 563 c 0
 219 563 163 506 157 500 c 1
 157 374 l 1
 323 346 l 1
 323 541 l 1
397 59 m 1
 457 47 500 37 500 37 c 2
 563 100 l 1
 563 226 l 1
 397 254 l 1
 397 59 l 1
EndSplineSet
EndChar
StartChar: percent
Encoding: 37 37 5
Width: 840
Flags: W
HStem: -187 21G<23 60 560 600>
VStem: 83 74<450 560> 323 74<490 600> 443 74<-50 60> 683 74<-10 100>
LayerCount: 2
Back
SplineSet
600 200 m 25
 480 80 l 25
 480 -30 l 25
 600 -150 l 25
 720 -30 l 25
 720 80 l 25
 600 200 l 25
60 -150 m 25
 780 700 l 1049
240 700 m 25
 120 580 l 25
 120 470 l 25
 240 350 l 25
 360 470 l 25
 360 580 l 25
 240 700 l 25
EndSplineSet
Fore
SplineSet
220 663 m 1
 157 600 l 1
 157 490 l 2
 157 434 230 417 260 387 c 1
 323 450 l 1
 323 560 l 2
 323 616 250 633 220 663 c 1
83 560 m 1
 260 737 l 1
 397 600 l 1
 397 490 l 1
 220 313 l 1
 83 450 l 1
 83 560 l 1
40 -187 m 1
 23 -170 l 1
 743 680 l 1
 800 737 l 1
 817 720 l 1
 97 -130 l 1
 40 -187 l 1
580 163 m 1
 517 100 l 1
 517 -10 l 2
 517 -66 590 -83 620 -113 c 1
 683 -50 l 1
 683 60 l 2
 683 116 610 133 580 163 c 1
443 60 m 1
 620 237 l 1
 757 100 l 1
 757 -10 l 1
 580 -187 l 1
 443 -50 l 1
 443 60 l 1
EndSplineSet
EndChar
StartChar: ampersand
Encoding: 38 38 6
Width: 600
Flags: W
HStem: 323 54<256 333 387 464> 607 20G<236 304>
VStem: 93 54<72 214 422 464> 333 54<76 82 104 323 377 528>
LayerCount: 2
Back
SplineSet
240 350 m 25
 480 350 l 1049
540 120 m 1
 420 0 l 1
 360 60 l 1
 360 550 l 9
 240 600 l 1
 120 480 l 17
 120 400 l 1
 240 350 l 1
 120 230 l 25
 119 50 l 25
 240 0 l 25
 360 120 l 1041
EndSplineSet
Fore
SplineSet
333 82 m 1
 224 -27 l 1
 103 23 l 1
 92 34 l 1
 93 214 l 1
 208 330 l 1
 104 373 l 1
 93 384 l 1
 93 464 l 1
 256 627 l 1
 376 577 l 1
 387 566 l 1
 387 377 l 1
 496 377 l 1
 507 366 l 1
 464 323 l 1
 387 323 l 1
 387 76 l 1
 436 27 l 1
 556 147 l 1
 567 136 l 1
 404 -27 l 1
 333 44 l 1
 333 82 l 1
224 323 m 1
 147 246 l 1
 146 72 l 1
 256 27 l 2
 256 27 326 97 333 104 c 1
 333 323 l 1
 224 323 l 1
333 377 m 1
 333 528 l 1
 224 573 l 2
 224 573 154 503 147 496 c 1
 147 422 l 1
 256 377 l 1
 333 377 l 1
EndSplineSet
EndChar
StartChar: quotesingle
Encoding: 39 39 7
Width: 360
Flags: W
HStem: 398 194
VStem: 108 114
LayerCount: 2
Back
SplineSet
155 565 m 25
 195 525 l 1
 195 485 l 25
 135 425 l 1049
EndSplineSet
Fore
SplineSet
128 549 m 1
 171 592 l 1
 222 541 l 1
 222 501 l 1
 119 398 l 1
 108 409 l 1
 168 469 l 1
 168 509 l 1
 128 549 l 1
EndSplineSet
EndChar
StartChar: parenleft
Encoding: 40 40 8
Width: 300
Flags: W
HStem: -187 21G<197.143 240>
VStem: 23 74<123.961 423.383>
LayerCount: 2
Back
SplineSet
240 700 m 17
 240 700 60 575 60 275 c 0
 60 -25 240 -150 240 -150 c 1033
EndSplineSet
Fore
SplineSet
277 720 m 1
 220 663 l 1
 220 663 219 663 217 661 c 0
 165 597 97 479 97 295 c 0
 97 87 183 -38 236 -94 c 0
 250 -107 260 -113 260 -113 c 1
 277 -130 l 1
 220 -187 l 1
 220 -187 207 -178 188 -159 c 2
 171 -142 l 2
 119 -90 23 35 23 255 c 0
 23 474 119 600 171 652 c 2
 228 709 l 2
 247 728 260 737 260 737 c 1
 277 720 l 1
EndSplineSet
EndChar
StartChar: parenright
Encoding: 41 41 9
Width: 300
Flags: W
HStem: -177 21G<33 66.8571>
VStem: 213 54<120.108 427.509>
LayerCount: 2
Back
SplineSet
60 700 m 17
 60 700 240 575 240 275 c 0
 240 -25 60 -150 60 -150 c 1033
EndSplineSet
Fore
SplineSet
33 684 m 1
 76 727 l 1
 76 727 88 718 107 699 c 2
 119 687 l 2
 171 635 267 510 267 291 c 0
 267 71 171 -55 119 -107 c 2
 76 -149 l 2
 57 -168 44 -177 44 -177 c 1
 33 -166 l 1
 76 -123 l 1
 76 -123 79 -121 86 -115 c 0
 139 -54 213 67 213 259 c 0
 213 471 124 596 71 651 c 0
 55 666 44 673 44 673 c 1
 33 684 l 1
EndSplineSet
EndChar
StartChar: asterisk
Encoding: 42 42 10
Width: 600
Flags: W
HStem: 507 20G<116 184.07 447.714 507> 607 20G<296 327>
VStem: 273 54<266 380 470 584>
LayerCount: 2
Back
SplineSet
120 350 m 25
 480 500 l 1049
300 600 m 25
 300 250 l 1049
120 500 m 25
 480 350 l 1049
EndSplineSet
Fore
SplineSet
93 484 m 1
 136 527 l 1
 273 470 l 1
 273 584 l 1
 316 627 l 1
 327 616 l 1
 327 457 l 1
 496 527 l 1
 507 516 l 1
 464 473 l 1
 364 431 l 1
 496 377 l 1
 507 366 l 1
 464 323 l 1
 327 380 l 1
 327 266 l 1
 284 223 l 1
 273 234 l 1
 273 393 l 1
 104 323 l 1
 93 334 l 1
 136 377 l 1
 236 419 l 1
 104 473 l 1
 93 484 l 1
EndSplineSet
EndChar
StartChar: comma
Encoding: 44 44 12
Width: 360
Flags: W
HStem: -162 249
VStem: 91 148
LayerCount: 2
Back
SplineSet
152.5 50 m 25
 202.5 0 l 1
 202.5 -50 l 25
 127.5 -125 l 1049
EndSplineSet
Fore
SplineSet
116 30 m 1
 172 87 l 1
 239 20 l 1
 239 -30 l 1
 108 -162 l 1
 91 -145 l 1
 166 -70 l 1
 166 -20 l 1
 116 30 l 1
EndSplineSet
EndChar
StartChar: period
Encoding: 46 46 14
Width: 360
Flags: W
HStem: -37 124
VStem: 118 124
LayerCount: 2
Back
SplineSet
155 50 m 25
 205 0 l 1049
EndSplineSet
Fore
SplineSet
118 30 m 1
 175 87 l 1
 242 20 l 1
 185 -37 l 1
 118 30 l 1
EndSplineSet
EndChar
StartChar: slash
Encoding: 47 47 15
Width: 600
Flags: W
HStem: -177 21G<33 64>
LayerCount: 2
Back
SplineSet
60 -150 m 25
 540 700 l 1049
EndSplineSet
Fore
SplineSet
44 -177 m 1
 33 -166 l 1
 513 684 l 1
 556 727 l 1
 567 716 l 1
 87 -134 l 1
 44 -177 l 1
EndSplineSet
EndChar
StartChar: zero
Encoding: 48 48 16
Width: 480
Flags: W
HStem: 407 20G<236 296> 407 20G<236 296>
VStem: 93 54<81 264> 333 54<136 319>
LayerCount: 2
Back
SplineSet
240 400 m 1
 120 280 l 1
 120 60 l 25
 240 0 l 1
 360 120 l 1
 360 340 l 25
 240 400 l 1
EndSplineSet
Fore
SplineSet
224 373 m 1x30
 147 296 l 1
 147 81 l 1
 256 27 l 2
 256 27 326 97 333 104 c 1
 333 319 l 1
 224 373 l 1x30
93 264 m 1
 256 427 l 1xb0
 376 367 l 1
 387 356 l 1
 387 136 l 1
 224 -27 l 1
 104 33 l 1
 93 44 l 1
 93 264 l 1
EndSplineSet
Substitution2: "Subscript forms-1" zero.inferior
Substitution2: "Superscript forms-1" zero.superior
EndChar
StartChar: one
Encoding: 49 49 17
Width: 480
Flags: W
HStem: 417 20G<210 250> 417 20G<210 250>
VStem: 203 74<80 330>
LayerCount: 2
Back
SplineSet
150 60 m 25
 270 0 l 1
 330 60 l 1049
270 340 m 25
 210 400 l 25
 150 340 l 1049
240 370 m 9
 240 30 l 1025
EndSplineSet
Fore
SplineSet
113 40 m 1xa0
 170 97 l 1
 203 80 l 1
 203 350 l 1
 190 363 l 1
 130 303 l 1
 113 320 l 1
 230 437 l 1
 260 407 l 1
 277 390 l 1
 307 360 l 1
 277 330 l 1
 277 50 l 1
 272 45 l 1
 290 37 l 2
 293 40 l 2
 350 97 l 1
 367 80 l 1
 250 -37 l 1
 130 23 l 1
 113 40 l 1xa0
EndSplineSet
Substitution2: "Subscript forms-1" one.inferior
Substitution2: "Superscript forms-1" one.superior
EndChar
StartChar: two
Encoding: 50 50 18
Width: 480
Flags: W
HStem: 13 74<200.533 335.893> 417 20G<176 308> 417 20G<176 308>
VStem: 323 74<295 320>
LayerCount: 2
Back
SplineSet
120 350 m 1
 180 400 l 1
 240 400 l 1
 360 350 l 1
 360 275 l 1
 120 75 l 25
 120 0 l 1
 120 0 196 50 300 50 c 3
 342 50 390 0 391 0 c 1025
EndSplineSet
Fore
SplineSet
83 330 m 1xd0
 140 387 l 1
 200 437 l 1
 260 437 l 1
 380 387 l 1
 397 370 l 1
 397 295 l 1
 340 238 l 1
 157 85 l 1
 157 46 l 1
 185 61 245 87 320 87 c 0
 362 87 410 37 411 37 c 2
 428 20 l 1
 371 -37 l 2
 370 -37 322 13 280 13 c 0
 176 13 100 -37 100 -37 c 1
 83 -20 l 1
 83 55 l 1
 140 112 l 1
 323 265 l 1
 323 320 l 1
 220 363 l 1
 160 363 l 1
 100 313 l 1
 83 330 l 1xd0
EndSplineSet
Substitution2: "Subscript forms-1" two.inferior
Substitution2: "Superscript forms-1" two.superior
EndChar
StartChar: four
Encoding: 52 52 20
Width: 480
Flags: W
HStem: -187 21G<315 355> -37 74<369.928 460> -12 74<158.14 220 269.33 293 367 448.799> 338 74<250.034 315> 417 20G<240 298.4 346 367> 417 20G<240 298.4 346 367>
VStem: 83 74<48 180> 293 74<-95 -20 61 348>
LayerCount: 2
Back
SplineSet
305 -100 m 25
 355 -150 l 1049
330 -125 m 1
 330 400 l 1
 330 400 307 375 288 375 c 27
 268 375 240 400 240 400 c 1
 120 200 l 1
 120 0 l 1
 120 0 137 25 240 25 c 3
 403 25 479 0 480 0 c 1025
EndSplineSet
Fore
SplineSet
293 348 m 1xb3
 285 343 276 338 268 338 c 0
 258 338 245 345 236 351 c 1
 157 220 l 1
 157 48 l 1
 173 55 204 62 260 62 c 0
 271 62 282 61 293 61 c 1
 293 348 l 1xb3
367 58 m 2
 369 58 370 57 372 57 c 0
 458 50 499 37 500 37 c 2
 517 20 l 1
 460 -37 l 2xdb
 459 -37 430 -27 367 -20 c 1
 367 -105 l 1
 392 -130 l 1
 335 -187 l 1
 268 -120 l 1
 293 -95 l 1
 293 -14 l 2
 271 -13 246 -12 220 -12 c 0xb3
 138 -12 111 -27 103 -34 c 2
 100 -37 l 1
 83 -20 l 1
 83 180 l 1
 203 380 l 1
 260 437 l 1
 260 437 288 412 308 412 c 0
 322 412 338 426 346 433 c 2
 350 437 l 1xdb
 367 420 l 1
 367 58 l 2
EndSplineSet
Substitution2: "Subscript forms-1" four.inferior
Substitution2: "Superscript forms-1" four.superior
EndChar
StartChar: five
Encoding: 53 53 21
Width: 480
Flags: W
HStem: -177 54<110.944 189.056> 323 54<199.718 306.722> 407 20G<116 196 340 387> 407 20G<116 196 340 387>
VStem: 93 54<157 353> 333 54<-64 39>
LayerCount: 2
Back
SplineSet
360 400 m 17
 360 400 304 350 270 350 c 0
 217 350 120 400 120 400 c 1
 120 125 l 1
 240 175 l 1
 360 55 l 1
 360 -80 l 17
 240 -200 l 1
 240 -200 190 -150 150 -150 c 24
 110 -150 60 -200 60 -200 c 1025
EndSplineSet
Fore
SplineSet
387 416 m 1xec
 344 373 l 1
 344 373 288 323 254 323 c 0
 224 323 179 339 147 353 c 1
 147 157 l 1
 256 202 l 1
 387 71 l 1
 387 -64 l 1
 224 -227 l 1
 224 -227 174 -177 134 -177 c 0
 94 -177 44 -227 44 -227 c 1
 33 -216 l 1
 76 -173 l 1
 76 -173 126 -123 166 -123 c 0
 206 -123 256 -173 256 -173 c 1
 333 -96 l 1
 333 39 l 1
 224 148 l 1
 104 98 l 1
 93 109 l 1
 93 384 l 1
 136 427 l 1
 136 427 233 377 286 377 c 0
 320 377 376 427 376 427 c 1
 387 416 l 1xec
EndSplineSet
Substitution2: "Subscript forms-1" five.inferior
Substitution2: "Superscript forms-1" five.superior
EndChar
StartChar: six
Encoding: 54 54 22
Width: 480
Flags: W
HStem: 407 20G<236 276> 407 20G<236 276> 548 54<216.747 340.751>
VStem: 93 54<136 296 318 494> 333 54<136 264>
LayerCount: 2
Back
SplineSet
120 280 m 25
 240 400 l 25
 360 280 l 25
 360 120 l 25
 240 0 l 25
 120 120 l 1
 120 510 l 1
 210 600 l 25
 187 610 256 575 300 575 c 3
 334 575 375 610 361 600 c 1049
EndSplineSet
Fore
SplineSet
147 296 m 1x38
 147 136 l 1
 256 27 l 1
 333 104 l 1
 333 264 l 1
 224 373 l 1
 147 296 l 1x38
227 626 m 1
 242 619 285 602 316 602 c 0
 339 602 364 618 375 625 c 0
 376 626 376 626 377 627 c 0
 379 628 379 629 379 629 c 2
 391 617 l 2
 390 617 l 2
 348 575 l 2
 345 572 312 548 284 548 c 0
 252 548 208 567 194 573 c 1
 147 526 l 1
 147 318 l 1
 256 427 l 1xb8
 387 296 l 1
 387 136 l 1
 224 -27 l 1
 93 104 l 1
 93 494 l 1
 182 583 l 1
 179 586 l 2
 221 629 l 2
 221 629 223 628 226 627 c 2
 227 626 l 1
EndSplineSet
Substitution2: "Subscript forms-1" six.inferior
Substitution2: "Superscript forms-1" six.superior
EndChar
StartChar: eight
Encoding: 56 56 24
Width: 480
Flags: W
HStem: 617 20G<240 280>
VStem: 83 74<100 185 413 460> 323 74<140 237 465 500>
LayerCount: 2
Back
SplineSet
240 600 m 25
 120 480 l 25
 120 385 l 25
 240 325 l 25
 360 445 l 25
 360 480 l 25
 240 600 l 25
240 325 m 25
 120 205 l 25
 120 120 l 25
 240 0 l 25
 360 120 l 25
 360 265 l 25
 240 325 l 25
EndSplineSet
Fore
SplineSet
220 563 m 1
 157 500 l 1
 157 413 l 1
 260 362 l 2
 260 362 317 419 323 425 c 1
 323 460 l 2
 323 516 250 533 220 563 c 1
83 460 m 1
 260 637 l 1
 397 500 l 1
 397 465 l 1
 282 350 l 1
 380 302 l 1
 397 285 l 1
 397 140 l 1
 220 -37 l 1
 83 100 l 1
 83 185 l 1
 198 300 l 1
 100 348 l 1
 83 365 l 1
 83 460 l 1
220 288 m 1
 157 225 l 1
 157 140 l 2
 157 84 230 67 260 37 c 1
 323 100 l 1
 323 237 l 1
 220 288 l 1
EndSplineSet
Substitution2: "Subscript forms-1" eight.inferior
Substitution2: "Superscript forms-1" eight.superior
EndChar
StartChar: colon
Encoding: 58 58 26
Width: 360
Flags: W
VStem: 133 94
LayerCount: 2
Back
SplineSet
160 340 m 25
 200 300 l 1049
160 40 m 25
 200 0 l 1049
EndSplineSet
Fore
SplineSet
133 24 m 1
 176 67 l 1
 227 16 l 1
 184 -27 l 1
 133 24 l 1
133 324 m 1
 176 367 l 1
 227 316 l 1
 184 273 l 1
 133 324 l 1
EndSplineSet
EndChar
StartChar: less
Encoding: 60 60 28
Width: 720
Flags: W
HStem: 517 20G<572 637>
LayerCount: 2
Back
SplineSet
600 500 m 25
 120 300 l 25
 600 100 l 1049
EndSplineSet
Fore
SplineSet
637 520 m 1
 580 463 l 1
 208 308 l 1
 620 137 l 1
 637 120 l 1
 580 63 l 1
 100 263 l 1
 83 280 l 1
 140 337 l 1
 620 537 l 1
 637 520 l 1
EndSplineSet
EndChar
StartChar: question
Encoding: 63 63 31
Width: 480
Flags: W
HStem: 617 20G<210 290>
VStem: 203 74<215 300> 323 74<460 519>
LayerCount: 2
Back
SplineSet
120 450 m 25
 120 510 l 25
 210 600 l 25
 360 550 l 25
 360 440 l 25
 240 320 l 25
 240 195 l 1049
215 50 m 25
 265 0 l 1049
EndSplineSet
Fore
SplineSet
178 30 m 1
 235 87 l 1
 302 20 l 1
 245 -37 l 1
 178 30 l 1
100 413 m 1
 83 430 l 1
 83 490 l 1
 230 637 l 1
 380 587 l 1
 397 570 l 1
 397 460 l 1
 277 340 l 1
 277 215 l 1
 220 158 l 1
 203 175 l 1
 203 300 l 1
 323 420 l 1
 323 519 l 1
 190 563 l 1
 157 530 l 1
 157 470 l 1
 100 413 l 1
EndSplineSet
EndChar
StartChar: at
Encoding: 64 64 32
Width: 960
Flags: W
HStem: -177 54<378.342 605.881> 350 54<520.272 565.651> 432 20G<476 507 596 627> 573 54<419.347 637.84>
VStem: 93 54<116.034 326.036> 333 54<99 289> 573 54<71 137 159 380 404.001 409> 813 54<263.198 410.822>
LayerCount: 2
Back
SplineSet
780 -50 m 1
 780 -50 660 -150 480 -150 c 11
 280 -150 120 25 120 225 c 27
 120 442 323 600 540 600 c 27
 697 600 840 482 840 325 c 27
 840 216 690 85 690 85 c 26
 630 25 l 1
 600 55 l 1
 600 425 l 1
 600 425 574 377 540 377 c 0
 506 377 480 425 480 425 c 9
 360 305 l 1
 360 115 l 17
 450 25 l 1
 600 175 l 1049
EndSplineSet
Fore
SplineSet
573 380 m 1
 563 369 l 2
 553 359 539 350 524 350 c 0
 509 350 496 360 486 370 c 2
 475 381 l 2
 470 386 465 392 462 396 c 1
 387 321 l 1
 387 131 l 2
 387 87 443 75 466 52 c 1
 573 159 l 1
 573 380 l 1
573 137 m 1
 434 -2 l 1
 333 99 l 1
 333 289 l 1
 496 452 l 1
 507 441 l 2
 507 441 513 430 523 418 c 0
 532 410 544 404 556 404 c 0
 562 404 566 405 572 408 c 0
 572 409 573 409 573 409 c 1
 616 452 l 1
 627 441 l 1
 627 71 l 1
 646 52 l 1
 706 112 l 1
 706 112 707 113 709 115 c 0
 753 163 813 240 813 309 c 0
 813 379 785 440 740 488 c 0
 684 541 606 573 524 573 c 0
 415 573 310 533 232 466 c 1
 179 405 147 328 147 241 c 0
 147 140 188 45 254 -24 c 0
 318 -85 403 -123 496 -123 c 0
 676 -123 796 -23 796 -23 c 1
 807 -34 l 1
 764 -77 l 1
 764 -77 644 -177 464 -177 c 0
 368 -177 281 -136 217 -72 c 2
 205 -61 l 2
 136 8 93 105 93 209 c 0
 93 306 134 392 199 457 c 2
 241 499 l 2
 241 500 l 2
 321 579 437 627 556 627 c 0
 641 627 721 592 777 536 c 2
 789 525 l 2
 837 477 867 413 867 341 c 0
 867 260 785 167 742 124 c 2
 699 82 l 2
 684 67 674 58 674 58 c 2
 672 57 670 53 668 51 c 2
 614 -2 l 1
 573 39 l 1
 573 137 l 1
EndSplineSet
EndChar
StartChar: C
Encoding: 67 67 35
Width: 900
Flags: W
HStem: -27 54<360.027 564.139> 465 21G<333 352> 507 20G<506 537> 523 54<630.584 706.574> 573 54<494.105 581.058>
VStem: 123 54<198.262 382.447> 352 16<70 472 511 580> 483 54<116 484>
AnchorPoint: "blwmark" 480 0 basechar 0
AnchorPoint: "abvmark" 540 700 basechar 0
LayerCount: 2
Back
SplineSet
360 550 m 1
 360 100 l 1025
510 500 m 1
 510 100 l 1025
360 600 m 1
 360 600 150 480 150 300 c 3
 150 134 264 0 480 0 c 3
 623 0 781 150 782 150 c 1025
360 492 m 1
 360 492 474 600 546 600 c 3
 623 600 590 550 660 550 c 3
 718 550 750 600 751 600 c 1025
EndSplineSet
Fore
SplineSet
387 616 m 1xcf
 344 573 l 2
 344 573 306 551 262 512 c 1
 217 461 177 394 177 316 c 0
 177 237 203 164 253 111 c 1
 308 59 390 27 496 27 c 0
 639 27 797 177 798 177 c 2
 809 166 l 1
 766 123 l 2
 765 123 607 -27 464 -27 c 0
 355 -27 272 8 216 63 c 2
 205 74 l 2
 151 128 123 202 123 284 c 0
 123 374 176 450 228 502 c 2
 271 544 l 2
 323 596 376 627 376 627 c 1
 387 616 l 1xcf
526 527 m 1xe7
 537 516 l 1
 537 116 l 1
 494 73 l 1
 483 84 l 1
 483 484 l 1
 526 527 l 1xe7
352 580 m 1
 368 580 l 1
 368 511 l 1
 376 519 l 1
 376 519 490 627 562 627 c 0xcf
 592 627 605 619 614 610 c 2
 625 599 l 2
 629 595 632 590 635 587 c 0
 643 581 655 577 676 577 c 0xd7
 703 577 723 588 738 599 c 2
 766 627 l 2
 767 627 l 2xcf
 778 616 l 2
 776 613 772 608 765 600 c 2
 764 600 l 2
 722 558 l 2
 707 543 680 523 644 523 c 0xd7
 619 523 607 530 599 538 c 2
 587 550 l 2
 583 554 580 557 577 561 c 0
 568 568 554 573 530 573 c 0xcf
 478 573 405 517 368 486 c 1
 368 70 l 1
 352 70 l 1
 352 472 l 1
 347 468 344 465 344 465 c 2
 333 476 l 1
 352 495 l 1
 352 580 l 1
EndSplineSet
EndChar
StartChar: D
Encoding: 68 68 36
Width: 840
Flags: W
HStem: -37 21G<23 55 412 600> 13 74<115.143 228 252 397.92> 513 21G<23 58> 538 74<194.815 228> 563 49<252.792 281> 563 33<88 107.353> 617 20G<320.5 338 450 513.2>
VStem: 228 24<87 539> 353 74<170 520> 683 74<141 446>
AnchorPoint: "blwmark" 420 0 basechar 0
AnchorPoint: "abvmark" 480 700 basechar 0
LayerCount: 2
Back
SplineSet
60 550 m 1
 60 550 101 600 149 600 c 3
 192 600 214 575 240 575 c 3
 274 575 300 600 301 600 c 1025
240 550 m 1
 240 75 l 1025
390 150 m 1
 390 540 l 1
 450 600 l 1
 720 475 l 1
 720 121.200195312 l 1
 600 0 l 17
 600 0 419 50 180 50 c 3
 97 50 60 0 60 0 c 1033
EndSplineSet
Fore
SplineSet
370 113 m 1xe7c0
 353 130 l 1
 353 520 l 1
 470 637 l 1
 740 512 l 1
 757 495 l 1
 757 141 l 1
 637 20 l 1
 580 -37 l 1
 580 -37 399 13 160 13 c 0
 106 13 72 -8 55 -22 c 2
 40 -37 l 1
 23 -20 l 2
 23 -20 25 -17 29 -13 c 2
 30 -13 l 2
 86 44 l 2
 100 58 137 87 200 87 c 0
 209 87 219 87 228 87 c 1
 228 539 l 2
 225 539 223 538 220 538 c 0xf3c0
 194 538 172 563 129 563 c 0
 101 563 75 546 58 531 c 2
 40 513 l 1
 23 530 l 1
 23 530 27 534 32 539 c 2
 88 596 l 2
 89 596 l 0xe7c0
 104 611 135 637 169 637 c 0
 212 637 234 612 260 612 c 0
 294 612 320 637 321 637 c 2
 338 620 l 1
 281 563 l 2xebc0
 280 563 269 552 252 545 c 1
 252 86 l 1
 458 80 610 40 619 37 c 1
 683 101 l 1
 683 446 l 1
 430 563 l 1
 427 560 l 1
 427 170 l 1
 370 113 l 1xe7c0
EndSplineSet
EndChar
StartChar: G
Encoding: 71 71 39
Width: 900
Flags: W
HStem: -37 74<361.5 593.396> 327 74<642.544 718.389> 455 21G<323 348> 513 74<634.63 702.512> 517 20G<510 547> 563 74<498.03 575.301>
VStem: 113 74<201.403 379.48> 348 24<64 462 521 571> 473 74<120 267 294 480> 743 74<144.513 305.536>
AnchorPoint: "blwmark" 480 0 basechar 0
AnchorPoint: "abvmark" 540 700 basechar 0
LayerCount: 2
Back
SplineSet
570 300 m 17
 570 300 626 364 690 364 c 3
 757 364 780 306 780 200 c 3
 780 75 623 0 480 0 c 3
 264 0 150 134 150 300 c 3
 150 480 360 600 360 600 c 1025
360 550 m 1
 360 100 l 1025
510 500 m 1
 510 100 l 1025
360 492 m 1
 360 492 474 600 546 600 c 3
 623 600 590 550 660 550 c 3
 718 550 750 600 751 600 c 1025
EndSplineSet
Fore
SplineSet
530 537 m 1xefc0
 547 520 l 1
 547 294 l 1
 596 343 l 2
 612 359 659 401 710 401 c 0
 733 401 750 393 764 380 c 2
 782 363 l 2
 807 337 817 289 817 220 c 0
 817 177 798 140 768 110 c 2
 712 53 l 2
 711 53 l 2
 653 -5 554 -37 460 -37 c 0
 351 -37 268 -3 212 53 c 2
 195 70 l 2
 141 124 113 198 113 280 c 0
 113 370 165 445 218 498 c 2
 275 555 l 2
 327 607 380 637 380 637 c 1
 397 620 l 1
 367 590 l 1
 372 590 l 1
 372 521 l 1
 380 529 l 1
 380 529 494 637 566 637 c 0xefc0
 596 637 609 629 618 620 c 2
 635 603 l 2
 637 601 640 597 642 595 c 0
 650 590 661 587 680 587 c 0xf3c0
 707 587 728 598 743 609 c 2
 771 637 l 2xe7c0
 788 620 l 2
 786 618 781 611 774 604 c 2
 718 548 l 2
 703 533 676 513 640 513 c 0xf3c0
 615 513 604 519 595 528 c 0
 594 528 l 2
 577 545 l 2
 575 547 573 550 571 553 c 0
 562 559 548 563 526 563 c 0
 478 563 411 515 372 483 c 1
 372 60 l 1
 358 60 l 1
 399 45 447 37 500 37 c 0
 578 37 661 59 719 100 c 1
 734 124 743 150 743 180 c 0
 743 242 736 286 716 314 c 1
 704 322 688 327 670 327 c 0
 625 327 585 296 564 277 c 2
 550 263 l 1
 547 267 l 1
 547 120 l 1
 490 63 l 1
 473 80 l 1
 473 480 l 1
 530 537 l 1xefc0
348 497 m 1
 348 571 l 1
 340 563 l 1
 340 563 306 544 265 509 c 1
 223 460 187 395 187 320 c 0
 187 242 211 172 260 118 c 0
 284 96 314 78 348 64 c 1
 348 462 l 1
 343 458 340 455 340 455 c 1
 323 472 l 1
 348 497 l 1
EndSplineSet
EndChar
StartChar: I
Encoding: 73 73 41
Width: 540
Flags: W
HStem: -27 21G<33 59 303 334> 23 54<111.09 277.656> 523 21G<33 63> 548 54<191.352 232> 573 54<106.919 207.259> 573 29<263.744 285>
VStem: 232 16<75 549> 363 54<76 524>
AnchorPoint: "blwmark" 300 0 basechar 0
AnchorPoint: "abvmark" 300 700 basechar 0
LayerCount: 2
Back
SplineSet
60 550 m 1
 60 550 101 600 149 600 c 3
 192 600 214 575 240 575 c 3
 274 575 300 600 301 600 c 1025
240 550 m 1
 240 75 l 1025
450 600 m 1
 390 540 l 1
 390 60 l 1
 330 0 l 17
 330 0 298 50 180 50 c 3
 97 50 60 0 60 0 c 1033
EndSplineSet
Fore
SplineSet
466 627 m 1xeb
 477 616 l 1
 417 556 l 1
 417 76 l 1
 314 -27 l 1
 303 -16 l 1
 303 -16 303 -15 302 -14 c 0
 284 1 243 23 164 23 c 0
 110 23 76 2 59 -12 c 2
 44 -27 l 1
 33 -16 l 1
 33 -16 35 -12 39 -8 c 2
 82 34 l 2
 96 48 133 77 196 77 c 0
 209 77 221 76 232 75 c 1
 232 549 l 2
 230 549 227 548 224 548 c 0xf3
 198 548 176 573 133 573 c 0
 105 573 80 556 63 541 c 2
 44 523 l 1
 33 534 l 1
 33 534 37 539 42 544 c 2
 84 586 l 2
 99 601 131 627 165 627 c 0xeb
 208 627 230 602 256 602 c 0xe7
 290 602 316 627 317 627 c 2xeb
 328 616 l 1
 285 573 l 2xe7
 284 573 270 559 248 552 c 1
 248 73 l 1
 302 65 329 45 340 34 c 2
 346 27 l 1
 363 44 l 1
 363 524 l 1
 466 627 l 1xeb
EndSplineSet
EndChar
StartChar: J
Encoding: 74 74 42
Width: 540
Flags: W
HStem: -177 54<21.0903 187.667> 523 21G<33 63> 548 54<191.352 232> 573 54<106.919 207.259> 573 29<263.744 285>
VStem: 232 16<-152 549> 363 54<-34 524>
AnchorPoint: "abvmark" 300 700 basechar 0
LayerCount: 2
Back
SplineSet
60 550 m 1
 60 550 101 600 149 600 c 3
 192 600 214 575 240 575 c 3
 274 575 300 600 301 600 c 1025
240 550 m 1
 240 -125 l 1025
450 600 m 1
 390 540 l 1
 390 -50 l 1
 240 -200 l 1
 240 -200 208 -150 90 -150 c 3
 7 -150 -30 -200 -30 -200 c 1025
EndSplineSet
Fore
SplineSet
466 627 m 1xd6
 477 616 l 1
 417 556 l 1
 417 -34 l 1
 224 -227 l 1
 213 -216 l 1
 213 -216 213 -215 212 -214 c 0
 194 -199 153 -177 74 -177 c 0
 20 -177 -14 -198 -31 -212 c 2
 -46 -227 l 1
 -57 -216 l 1
 -57 -216 -55 -212 -51 -208 c 2
 -8 -166 l 2
 6 -152 43 -123 106 -123 c 0
 172 -123 210 -138 232 -152 c 1
 232 549 l 2
 230 549 227 548 224 548 c 0xe6
 198 548 176 573 133 573 c 0
 105 573 80 556 63 541 c 2
 44 523 l 1
 33 534 l 1
 33 534 37 539 42 544 c 2
 84 586 l 2
 99 601 131 627 165 627 c 0xd6
 208 627 230 602 256 602 c 0xce
 290 602 316 627 317 627 c 2xd6
 328 616 l 1
 285 573 l 2xce
 284 573 270 559 248 552 c 1
 248 -155 l 1
 236 -155 l 1
 242 -159 247 -163 250 -166 c 2
 256 -173 l 1
 363 -66 l 1
 363 524 l 1
 466 627 l 1xd6
EndSplineSet
EndChar
StartChar: S
Encoding: 83 83 51
Width: 840
Flags: W
HStem: 13 74<146.89 409.866> 513 74<395.239 628.47> 617 20G<236 380 668 757>
VStem: 683 74<120 228>
AnchorPoint: "blwmark" 420 0 basechar 0
AnchorPoint: "abvmark" 420 700 basechar 0
LayerCount: 2
Back
SplineSet
660 525 m 25
 148 100 l 1049
550 179 m 1
 130 300 l 9
 180 375 l 1049
720 600 m 1
 720 600 617 550 540 550 c 3
 455 550 240 600 240 600 c 1
 120 500 l 1
 120 440 l 1
 720 260 l 1
 720 100 l 1
 600 0 l 1
 600 0 324 50 240 50 c 3
 152 50 60 0 60 0 c 1025
EndSplineSet
Fore
SplineSet
757 620 m 1
 700 563 l 1
 700 563 694 560 685 556 c 1
 697 545 l 1
 640 488 l 1
 497 370 l 1
 740 297 l 1
 757 280 l 1
 757 120 l 1
 700 63 l 1
 580 -37 l 1
 580 -37 304 13 220 13 c 0
 132 13 40 -37 40 -37 c 1
 23 -20 l 1
 80 37 l 1
 80 37 172 87 260 87 c 0
 344 87 620 37 620 37 c 1
 683 90 l 1
 683 228 l 1
 422 307 l 1
 378 271 l 1
 570 216 l 1
 587 199 l 1
 530 142 l 1
 302 208 l 1
 128 63 l 1
 111 80 l 1
 168 137 l 1
 266 218 l 1
 110 263 l 1
 93 280 l 1
 143 355 l 1
 170 382 l 1
 100 403 l 1
 83 420 l 1
 83 480 l 1
 140 537 l 1
 260 637 l 1
 260 637 475 587 560 587 c 0
 637 587 740 637 740 637 c 1
 757 620 l 1
202 373 m 1
 174 330 l 1
 342 281 l 1
 386 318 l 1
 202 373 l 1
662 547 m 1
 625 532 567 513 520 513 c 0
 435 513 220 563 220 563 c 1
 157 510 l 1
 157 472 l 1
 461 380 l 1
 662 547 l 1
EndSplineSet
EndChar
StartChar: T
Encoding: 84 84 52
Width: 840
Flags: W
HStem: -37 74<313.097 500.772> 465 72<517 575.961> 470 20G<318 342> 563 74<245.011 349.047>
VStem: 113 74<155.764 302.254> 318 24<60 451 478.163 490> 443 74<120 430>
AnchorPoint: "blwmark" 420 0 basechar 0
AnchorPoint: "abvmark" 480 700 basechar 0
LayerCount: 2
Back
SplineSet
330 450 m 1
 330 100 l 1049
480 450 m 1
 480 100 l 1049
300 450 m 1
 300 450 150 356 150 250 c 3
 150 84 257 0 420 0 c 3
 563 0 721 150 722 150 c 1049
120 500 m 17
 120 500 216 600 300 600 c 27
 396 600 418 500 514 500 c 19
 606 500 690 600 691 600 c 1033
EndSplineSet
Fore
SplineSet
100 463 m 1xde
 83 480 l 1
 83 480 84 481 85 482 c 2
 142 539 l 1
 157 554 244 637 320 637 c 0
 416 637 438 537 534 537 c 0
 595 537 652 581 684 610 c 2
 710 636 l 2
 711 637 l 2
 728 620 l 1
 726 618 l 2
 724 616 720 612 714 606 c 2
 714 605 l 2
 657 549 l 2
 632 524 578 475 517 465 c 1
 517 120 l 1
 460 63 l 1
 443 80 l 1
 443 430 l 1
 477 464 l 1
 395 475 370 563 280 563 c 0
 207 563 126 488 105 468 c 2
 100 463 l 1xde
318 490 m 1xbe
 342 490 l 1
 342 60 l 1
 318 60 l 1
 318 451 l 1
 280 413 l 1
 280 413 259 400 233 378 c 1
 207 345 187 309 187 270 c 0
 187 198 207 141 243 100 c 1
 290 58 358 37 440 37 c 0
 583 37 741 187 742 187 c 2
 759 170 l 1
 702 113 l 2
 701 113 543 -37 400 -37 c 0
 313 -37 243 -13 195 34 c 2
 178 51 l 2
 136 93 113 152 113 230 c 0
 113 282 149 331 185 367 c 2
 242 423 l 2
 276 457 310 481 318 486 c 1
 318 490 l 1xbe
EndSplineSet
EndChar
StartChar: W
Encoding: 87 87 55
Width: 1200
Flags: W
HStem: -37 21G<413 450 773 810> 113 74<174.073 228 252 322.644> 513 21G<23 58> 538 74<194.815 228> 563 49<252.792 281> 563 33<88 107.353> 617 20G<320.5 338 450 487 665 705 1076.3 1117>
VStem: 228 24<187 539> 353 74<270 520> 653 74<261 545> 923 74<429.117 485.732> 1013 74<261 349.972>
AnchorPoint: "blwmark" 660 0 basechar 0
AnchorPoint: "abvmark" 690 700 basechar 0
LayerCount: 2
Back
SplineSet
665 600 m 25
 715 550 l 1049
60 550 m 1
 60 550 101 600 149 600 c 3
 192 600 214 575 240 575 c 3
 274 575 300 600 301 600 c 1025
240 550 m 1
 240 175 l 1025
390 250 m 1
 390 540 l 1
 450 600 l 1025
120 100 m 17
 120 100 166 150 210 150 c 3
 449 150 450 0 450 0 c 1
 690 241.200195312 l 1
 690 575 l 1025
1080 600 m 1
 1080 600 960 516 960 450 c 3
 960 382.799804688 1050 378 1050 378 c 1
 1050 241.200195312 l 1
 810 0 l 1
 690 241.200195312 l 1049
EndSplineSet
Fore
SplineSet
1117 620 m 1xebf0
 1060 563 l 1xe7f0
 1060 563 1046 553 1028 538 c 1
 1010 515 997 492 997 470 c 0
 997 456 1001 444 1007 435 c 0
 1033 416 1070 415 1070 415 c 1
 1087 398 l 1
 1087 261 l 1
 847 20 l 1
 790 -37 l 1
 773 -20 l 1
 665 199 l 1
 487 20 l 1
 430 -37 l 1
 413 -20 l 1
 413 -20 413 -17 412 -12 c 0
 410 2 404 31 380 59 c 1
 346 88 287 113 190 113 c 0
 156 113 121 84 107 70 c 2
 100 63 l 1
 83 80 l 1
 83 80 84 81 86 83 c 2
 143 140 l 2
 155 152 192 186 228 187 c 1
 228 539 l 2
 225 539 223 538 220 538 c 0xf3f0
 194 538 172 563 129 563 c 0
 101 563 75 546 58 531 c 2
 40 513 l 1
 23 530 l 1
 23 530 27 534 32 539 c 2
 88 596 l 2
 89 596 l 0xe7f0
 104 611 135 637 169 637 c 0
 212 637 234 612 260 612 c 0
 294 612 320 637 321 637 c 2
 338 620 l 1
 281 563 l 2
 280 563 269 552 252 545 c 1
 252 186 l 1
 345 182 397 155 428 124 c 2
 446 107 l 0
 466 87 476 65 481 49 c 1
 653 221 l 1
 653 555 l 1
 628 580 l 1
 685 637 l 1
 710 612 l 1
 727 595 l 1
 752 570 l 1
 727 545 l 1
 727 261 l 1
 835 43 l 1
 1013 221 l 1
 1013 344 l 1
 998 347 974 354 958 370 c 2
 941 387 l 2
 931 397 923 411 923 430 c 0
 923 461 949 496 978 525 c 0
 979 526 l 2
 1036 583 l 2
 1067 614 1100 637 1100 637 c 1
 1117 620 l 1xebf0
370 213 m 1
 353 230 l 1
 353 520 l 1
 470 637 l 1
 487 620 l 1
 427 560 l 1
 427 270 l 1
 370 213 l 1
EndSplineSet
EndChar
StartChar: Y
Encoding: 89 89 57
Width: 840
Flags: W
HStem: -177 54<123.112 477.44> -27 21G<423 454> 123 54<170.338 232 248 326.566> 523 21G<33 63> 548 54<191.352 232> 573 54<106.919 207.259> 573 29<263.744 285>
VStem: 232 16<177 549> 363 54<266 524> 663 54<-64 202 224 541>
AnchorPoint: "abvmark" 540 700 basechar 0
LayerCount: 2
Back
SplineSet
60 550 m 1
 60 550 101 600 149 600 c 3
 192 600 214 575 240 575 c 3
 274 575 300 600 301 600 c 1025
240 550 m 1
 240 175 l 1025
390 250 m 1
 390 540 l 1
 450 600 l 1025
120 100 m 17
 120 100 166 150 210 150 c 3
 449 150 450 0 450 0 c 1
 690 240 l 1025
60 -200 m 17
 60 -200 79 -150 300 -150 c 3
 494 -150 570 -200 570 -200 c 9
 690 -80 l 1
 690 575 l 1025
665 600 m 25
 715 550 l 1049
EndSplineSet
Fore
SplineSet
638 584 m 1xf3c0
 681 627 l 1xf5c0
 706 602 l 1xf3c0
 717 591 l 1
 742 566 l 1
 717 541 l 1
 717 256 l 1
 717 -64 l 1
 554 -227 l 1
 554 -227 478 -177 284 -177 c 0
 136 -177 79 -199 57 -214 c 1
 44 -227 l 1
 33 -216 l 1
 33 -216 34 -213 38 -209 c 2
 80 -167 l 2
 93 -154 144 -123 316 -123 c 0
 510 -123 586 -173 586 -173 c 2
 586 -173 656 -103 663 -96 c 1
 663 202 l 1
 434 -27 l 1
 423 -16 l 1
 423 -16 423 27 387 66 c 1
 353 96 294 123 194 123 c 0
 160 123 126 94 111 80 c 2
 104 73 l 1
 93 84 l 1
 93 84 94 86 96 88 c 2
 139 130 l 2
 150 141 189 177 226 177 c 0
 228 177 230 177 232 177 c 2
 232 549 l 2
 230 549 227 548 224 548 c 0xf9c0
 198 548 176 573 133 573 c 0
 105 573 80 556 63 541 c 2
 44 523 l 1
 33 534 l 1
 33 534 37 539 42 544 c 2
 84 586 l 2
 99 601 131 627 165 627 c 0xf5c0
 208 627 230 602 256 602 c 0xf3c0
 290 602 316 627 317 627 c 2xf5c0
 328 616 l 1
 285 573 l 2
 284 573 270 559 248 552 c 1
 248 176 l 1
 340 172 393 145 424 114 c 2
 435 103 l 2
 459 79 470 52 474 35 c 1
 663 224 l 1
 663 559 l 1
 638 584 l 1xf3c0
374 223 m 1
 363 234 l 1
 363 524 l 1
 466 627 l 1
 477 616 l 1
 417 556 l 1
 417 266 l 1
 374 223 l 1
EndSplineSet
EndChar
StartChar: Z
Encoding: 90 90 58
Width: 840
Flags: W
HStem: 13 74<134.276 478.918> 263 74<461.836 593.243> 288 74<246.757 387.257> 513 74<304.757 647.179> 617 20G<120 308 717 757>
AnchorPoint: "blwmark" 360 0 basechar 0
AnchorPoint: "abvmark" 420 700 basechar 0
LayerCount: 2
Back
SplineSet
180 275 m 25
 180 275 247 325 300 325 c 27
 395 325 445 300 540 300 c 27
 593 300 660 350 660 350 c 1049
750 120 m 1
 630 0 l 1
 630 0 538 50 240 50 c 3
 152 50 60 0 60 0 c 1
 720 600 l 1
 720 600 617 550 540 550 c 3
 288 550 120 600 120 600 c 1025
EndSplineSet
Fore
SplineSet
770 157 m 1xd8
 787 140 l 1
 610 -37 l 1
 610 -37 518 13 220 13 c 0
 159 13 96 -11 63 -26 c 0
 49 -32 40 -37 40 -37 c 1
 23 -20 l 1
 80 37 l 1
 351 283 l 1
 330 286 307 288 280 288 c 0
 227 288 160 238 160 238 c 1
 143 255 l 1
 200 312 l 1
 200 312 267 362 320 362 c 0xb8
 362 362 394 357 426 352 c 1
 627 534 l 1
 594 523 554 513 520 513 c 0
 268 513 100 563 100 563 c 1
 83 580 l 1
 140 637 l 1
 140 637 308 587 560 587 c 0
 615 587 682 612 717 627 c 0
 731 633 740 637 740 637 c 1
 757 620 l 1
 700 563 l 1
 461 346 l 1
 491 341 522 337 560 337 c 0
 613 337 680 387 680 387 c 1
 697 370 l 1
 640 313 l 1
 640 313 573 263 520 263 c 0
 467 263 428 271 387 278 c 1
 156 68 l 1
 187 78 224 87 260 87 c 0
 558 87 650 37 650 37 c 1
 770 157 l 1xd8
EndSplineSet
EndChar
StartChar: bracketleft
Encoding: 91 91 59
Width: 360
Flags: W
HStem: -177 54<147 284> 673 54<147 284>
VStem: 93 54<-123 673>
LayerCount: 2
Back
SplineSet
300 700 m 25
 120 700 l 25
 120 -150 l 25
 300 -150 l 1033
EndSplineSet
Fore
SplineSet
327 716 m 1
 284 673 l 1
 147 673 l 1
 147 -123 l 1
 316 -123 l 1
 327 -134 l 1
 284 -177 l 1
 104 -177 l 1
 93 -166 l 1
 93 684 l 1
 136 727 l 1
 316 727 l 1
 327 716 l 1
EndSplineSet
EndChar
StartChar: backslash
Encoding: 92 92 60
Width: 600
Flags: W
HStem: -187 21G<503 540>
LayerCount: 2
Back
SplineSet
540 -150 m 25
 60 700 l 1049
EndSplineSet
Fore
SplineSet
520 -187 m 1
 503 -170 l 1
 23 680 l 1
 80 737 l 1
 97 720 l 1
 577 -130 l 1
 520 -187 l 1
EndSplineSet
EndChar
StartChar: asciicircum
Encoding: 94 94 62
Width: 720
Flags: W
HStem: 607 20G<356 387>
LayerCount: 2
Back
SplineSet
120 300 m 25
 360 600 l 25
 600 300 l 1049
EndSplineSet
Fore
SplineSet
104 273 m 1
 93 284 l 1
 333 584 l 1
 376 627 l 1
 387 616 l 1
 627 316 l 1
 584 273 l 1
 573 284 l 1
 348 566 l 1
 147 316 l 1
 104 273 l 1
EndSplineSet
EndChar
StartChar: underscore
Encoding: 95 95 63
Width: 840
Flags: W
HStem: -177 54<136 704>
LayerCount: 2
Back
SplineSet
120 -150 m 25
 720 -150 l 1049
EndSplineSet
Fore
SplineSet
93 -166 m 1
 136 -123 l 1
 736 -123 l 1
 747 -134 l 1
 704 -177 l 1
 104 -177 l 1
 93 -166 l 1
EndSplineSet
EndChar
StartChar: grave
Encoding: 96 96 64
Width: 480
Flags: W
HStem: 523 204
VStem: 123 54<656.816 684>
LayerCount: 2
Back
SplineSet
150 700 m 17
 150 600 330 550 330 550 c 1049
EndSplineSet
Fore
SplineSet
166 727 m 1
 177 716 l 1
 177 691 188 667 205 649 c 0
 258 600 346 577 346 577 c 2
 357 566 l 1
 314 523 l 1
 314 523 220 549 168 601 c 2
 157 613 l 2
 137 633 123 656 123 684 c 1
 166 727 l 1
EndSplineSet
EndChar
StartChar: a
Encoding: 97 97 65
Width: 480
Flags: W
HStem: 188 74<232.385 323> 417 20G<210 350> 417 20G<210 350>
VStem: 83 74<110 140> 323 74<37.1868 96 130 188 262 341>
AnchorPoint: "blwmark" 240 0 basechar 0
AnchorPoint: "abvmark" 270 500 basechar 0
LayerCount: 2
Back
SplineSet
150 220 m 17
 120 310 l 1
 210 400 l 1
 360 375 l 1
 360 30 l 1
 390 0 l 1
 450 60 l 1049
360 150 m 25
 210 0 l 1
 120 90 l 1
 120 160 l 1
 210 250 l 1
 210 250 232.928594192 225 300 225 c 3
 280.995781714 225 360 225 360 225 c 1033
EndSplineSet
Fore
SplineSet
186 243 m 1x98
 230 287 l 1
 230 286 l 2
 234 282 256 262 317 262 c 2
 323 262 l 1
 323 341 l 1
 190 363 l 1
 157 330 l 1
 186 243 l 1x98
323 188 m 1
 282 188 l 2
 218 188 193 210 190 213 c 2
 157 180 l 1
 157 110 l 1
 230 37 l 1
 323 130 l 1
 323 188 l 1
323 96 m 1
 190 -37 l 1
 83 70 l 1
 83 140 l 1
 128 185 l 1
 113 200 l 1
 83 290 l 1
 230 437 l 1xd8
 380 412 l 1
 397 395 l 1
 397 245 l 1
 397 170 l 1
 397 50 l 2
 397 44 406 41 410 37 c 1
 470 97 l 1
 487 80 l 1
 370 -37 l 1
 323 10 l 1
 323 96 l 1
EndSplineSet
Substitution2: "Stylistic alternates-1" ascript
EndChar
StartChar: b
Encoding: 98 98 66
Width: 480
Flags: W
HStem: 417 20G<240 280> 417 20G<240 280>
VStem: 83 74<100 300 334 570> 323 74<140 300>
AnchorPoint: "blwmark" 240 0 basechar 0
AnchorPoint: "abvmark" 240 700 basechar 0
LayerCount: 2
Back
SplineSet
95 625 m 25
 145 575 l 1049
120 600 m 9
 120 120 l 25
 240 0 l 25
 360 120 l 25
 360 280 l 25
 240 400 l 1
 120 280 l 1049
EndSplineSet
Fore
SplineSet
157 300 m 1x30
 157 140 l 2
 157 84 230 67 260 37 c 1
 323 100 l 1
 323 260 l 2
 323 316 250 333 220 363 c 1
 157 300 l 1x30
157 334 m 1
 260 437 l 1xb0
 397 300 l 1
 397 140 l 1
 220 -37 l 1
 83 100 l 1
 83 580 l 1
 58 605 l 1
 115 662 l 1
 140 637 l 1
 157 620 l 1
 182 595 l 1
 157 570 l 1
 157 334 l 1
EndSplineSet
EndChar
StartChar: c
Encoding: 99 99 67
Width: 420
Flags: W
HStem: 407 20G<236 276> 407 20G<236 276>
VStem: 93 54<104 264>
AnchorPoint: "blwmark" 240 0 basechar 0
AnchorPoint: "abvmark" 240 500 basechar 0
LayerCount: 2
Back
SplineSet
360 280 m 9
 240 400 l 25
 120 280 l 25
 120 120 l 25
 240 0 l 25
 360 120 l 1041
EndSplineSet
Fore
SplineSet
387 296 m 1xa0
 344 253 l 1
 224 373 l 1
 147 296 l 1
 147 136 l 2
 147 75 224 59 256 27 c 1
 376 147 l 1
 387 136 l 1
 224 -27 l 1
 93 104 l 1
 93 264 l 1
 256 427 l 1
 387 296 l 1xa0
EndSplineSet
EndChar
StartChar: d
Encoding: 100 100 68
Width: 480
Flags: W
HStem: 407 20G<236 275.744> 407 20G<236 275.744> 523 54<154.093 295.263> 623 21G<149 173>
VStem: 93 54<104 264 577.5 622.999> 333 54<136 264 349 489.293>
AnchorPoint: "blwmark" 240 0 basechar 0
AnchorPoint: "abvmark" 300 700 basechar 0
LayerCount: 2
Back
SplineSet
360 280 m 1
 240 400 l 25
 120 280 l 1
 120 120 l 25
 240 0 l 25
 360 120 l 1
 360 450 l 10
 360 510 293 550 240 550 c 0
 187 550 120 549 120 600 c 27
 120 633 180 670 169 650 c 1049
EndSplineSet
Fore
SplineSet
333 264 m 1x3c
 224 373 l 1
 147 296 l 1
 147 136 l 2
 147 75 224 59 256 27 c 1
 333 104 l 1
 333 264 l 1x3c
333 349 m 1
 333 434 l 2
 333 455 324 475 311 490 c 0
 287 511 253 523 224 523 c 0
 184 523 137 523 116 544 c 2
 104 555 l 2
 97 562 93 571 93 584 c 0
 93 597 103 611 113 621 c 2
 155 664 l 2
 156 664 l 2
 169 677 182 685 185 682 c 2
 197 671 l 2
 198 670 197 669 196 666 c 2
 153 623 l 1
 149 627 l 2
 148 623 147 620 147 616 c 0
 147 607 149 598 153 592 c 0
 176 576 220 577 256 577 c 0
 288 577 324 562 348 538 c 2
 360 527 l 2
 376 511 387 490 387 466 c 2
 387 136 l 1
 224 -27 l 1
 93 104 l 1
 93 264 l 1
 256 427 l 1xbc
 333 349 l 1
EndSplineSet
EndChar
StartChar: e
Encoding: 101 101 69
Width: 420
Flags: W
HStem: 407 20G<236 286> 407 20G<236 286>
VStem: 93 54<118 264>
AnchorPoint: "blwmark" 240 0 basechar 0
AnchorPoint: "abvmark" 240 500 basechar 0
LayerCount: 2
Back
SplineSet
360 120 m 9
 240 0 l 25
 120 80 l 25
 120 280 l 25
 240 400 l 25
 360 320 l 1
 120 80 l 1025
EndSplineSet
Fore
SplineSet
147 118 m 1x20
 331 302 l 1
 224 373 l 1
 147 296 l 1
 147 118 l 1x20
149 98 m 1
 256 27 l 1
 376 147 l 1
 387 136 l 1
 224 -27 l 1
 104 53 l 1
 93 64 l 1
 93 264 l 1
 256 427 l 1xa0
 376 347 l 1
 387 336 l 1
 149 98 l 1
EndSplineSet
EndChar
StartChar: f
Encoding: 102 102 70
Width: 360
Flags: W
HStem: -237 74<26.134 89.6482> -187 74<-97.6401 -27.2399> 363 74<80 113 187 280> 613 14<380 431>
VStem: 113 74<-130 363 437 510>
AnchorPoint: "abvmark" 210 700 basechar 0
LayerCount: 2
Back
SplineSet
-150 -200 m 17
 -150 -200 -106 -150 -60 -150 c 8
 -35 -150 33 -200 60 -200 c 24
 86 -200 150 -150 150 -150 c 1
 150 530 l 1
 270 650 l 17
 270 650 300 590 360 590 c 24
 388 590 450 650 451 650 c 1033
60 400 m 25
 300 400 l 1049
EndSplineSet
Fore
SplineSet
23 380 m 1xb8
 80 437 l 1
 113 437 l 1
 113 510 l 1
 290 687 l 1
 307 670 l 1
 307 670 312 660 321 649 c 0
 336 637 355 627 380 627 c 0
 408 627 470 687 471 687 c 2
 488 670 l 1
 431 613 l 2
 430 613 368 553 340 553 c 0
 310 553 288 568 273 583 c 2
 256 600 l 2
 253 603 250 607 247 610 c 1
 187 550 l 1
 187 437 l 1
 320 437 l 1
 337 420 l 1
 280 363 l 1
 187 363 l 1
 187 -130 l 1
 130 -187 l 1x78
 130 -187 66 -237 40 -237 c 0xb8
 13 -237 -55 -187 -80 -187 c 0x78
 -112 -187 -142 -210 -158 -225 c 2
 -170 -237 l 1xb8
 -187 -220 l 1
 -187 -220 -185 -217 -182 -214 c 2
 -125 -158 l 2
 -125 -157 l 0
 -111 -143 -76 -113 -40 -113 c 0x78
 -15 -113 53 -163 80 -163 c 0
 88 -163 100 -158 113 -151 c 1
 113 363 l 1
 40 363 l 1
 23 380 l 1xb8
EndSplineSet
EndChar
StartChar: g
Encoding: 103 103 71
Width: 480
Flags: W
HStem: -237 74<236.134 299.648> -187 74<112.36 182.76> 334 55<290.377 319> 417 20G<240 277 360 397> 417 20G<240 277 360 397>
VStem: 83 74<100 260> 323 74<-130 66 100 338>
AnchorPoint: "abvmark" 270 500 basechar 0
LayerCount: 2
Back
SplineSet
60 -200 m 17
 60 -200 104 -150 150 -150 c 8
 175 -150 243 -200 270 -200 c 24
 296 -200 360 -150 360 -150 c 9
 360 400 l 1
 360 400 336 352 300 352 c 24
 264 352 240 400 240 400 c 1
 120 280 l 25
 120 120 l 25
 240 0 l 25
 360 120 l 1041
EndSplineSet
Fore
SplineSet
323 338 m 1x26
 319 334 l 2
 318 334 l 0
 308 324 295 315 280 315 c 0
 265 315 252 324 242 334 c 2
 225 351 l 2
 224 352 l 0
 221 355 219 358 217 360 c 2
 157 300 l 1
 157 140 l 2
 157 84 230 67 260 37 c 1
 323 100 l 1
 323 338 l 1x26
323 66 m 1
 220 -37 l 1
 83 100 l 1
 83 260 l 1
 260 437 l 1
 277 420 l 2
 277 420 282 411 290 400 c 0
 298 394 309 389 320 389 c 0
 325 389 328 389 334 391 c 2
 380 437 l 1
 397 420 l 1
 397 -130 l 1
 340 -187 l 1x76
 340 -187 276 -237 250 -237 c 0xa6
 223 -237 155 -187 130 -187 c 0x66
 98 -187 68 -210 52 -225 c 2
 40 -237 l 1xa6
 23 -220 l 1
 23 -220 25 -217 28 -214 c 2
 85 -158 l 2
 85 -157 l 0
 99 -143 134 -113 170 -113 c 0x66
 195 -113 263 -163 290 -163 c 0xa6
 298 -163 310 -158 323 -151 c 1
 323 66 l 1
EndSplineSet
EndChar
StartChar: i
Encoding: 105 105 73
Width: 240
Flags: W
HStem: 407 20G<96 136> 407 20G<96 136> 533 21G<103 134>
VStem: 93 54<44 356>
AnchorPoint: "blwmark" 120 0 basechar 0
LayerCount: 2
Back
SplineSet
130 640 m 25
 170 600 l 25
 130 560 l 1049
100 40 m 25
 140 0 l 25
 180 40 l 1049
140 360 m 25
 100 400 l 25
 60 360 l 1049
120 380 m 9
 120 20 l 1025
EndSplineSet
Fore
SplineSet
103 624 m 1x30
 146 667 l 1
 197 616 l 1
 114 533 l 1
 103 544 l 1
 143 584 l 1
 103 624 l 1x30
147 396 m 1
 167 376 l 1
 147 356 l 1
 147 36 l 1
 156 27 l 1
 196 67 l 1
 207 56 l 1
 124 -27 l 1
 104 -7 l 1
 93 4 l 1
 73 24 l 1
 93 44 l 1
 93 364 l 1
 84 373 l 1
 44 333 l 1
 33 344 l 1
 116 427 l 1
 136 407 l 1xb0
 147 396 l 1
EndSplineSet
Substitution2: "Dotless forms-1" dotlessi
EndChar
StartChar: j
Encoding: 106 106 74
Width: 240
Flags: W
HStem: 417 20G<95 135> 417 20G<95 135> 513 21G<88 125>
VStem: 83 74<-70 345>
LayerCount: 2
Back
SplineSet
125 650 m 25
 175 600 l 25
 125 550 l 1049
145 350 m 25
 95 400 l 25
 45 350 l 1049
120 375 m 1
 120 -90 l 9
 70 -140 l 1049
EndSplineSet
Fore
SplineSet
88 630 m 1x30
 145 687 l 1
 212 620 l 1
 105 513 l 1
 88 530 l 1
 138 580 l 1
 88 630 l 1x30
157 395 m 1
 182 370 l 1
 157 345 l 1
 157 -70 l 1
 50 -177 l 1
 33 -160 l 1
 83 -110 l 1
 83 355 l 1
 75 363 l 1
 25 313 l 1
 8 330 l 1
 115 437 l 1xb0
 140 412 l 1
 157 395 l 1
EndSplineSet
Substitution2: "Dotless forms-1" dotlessj
EndChar
StartChar: k
Encoding: 107 107 75
Width: 480
Flags: W
HStem: 422 20G<336 376> 622 20G<96 135.231>
VStem: 93 54<54 200 234 571> 333 54<54 180 366 371>
AnchorPoint: "blwmark" 240 0 basechar 0
AnchorPoint: "abvmark" 240 700 basechar 0
LayerCount: 2
Back
SplineSet
340 415 m 25
 380 375 l 1049
100 615 m 25
 140 575 l 1049
100 615 m 25
 140 575 l 1049
120 200 m 1
 360 350 l 9
 360 395 l 1049
240 275 m 1
 360 200 l 1
 360 30 l 1025
340 50 m 25
 380 10 l 1049
100 50 m 25
 140 10 l 1049
100 615 m 25
 140 575 l 1049
120 595 m 9
 120 30 l 1049
EndSplineSet
Fore
SplineSet
313 399 m 1
 356 442 l 1
 407 391 l 1
 387 371 l 1
 387 366 l 1
 344 323 l 1
 283 285 l 1
 376 227 l 1
 387 216 l 1
 387 46 l 1
 407 26 l 1
 364 -17 l 1
 344 3 l 1
 333 14 l 1
 313 34 l 1
 333 54 l 1
 333 180 l 1
 224 248 l 1
 147 200 l 1
 147 46 l 1
 167 26 l 1
 124 -17 l 1
 93 14 l 1
 73 34 l 1
 93 54 l 1
 93 184 l 1
 93 579 l 1
 73 599 l 1
 116 642 l 1
 141 616 l 1
 147 611 l 1
 167 591 l 1
 147 571 l 1
 147 234 l 1
 333 350 l 1
 333 379 l 1
 313 399 l 1
EndSplineSet
EndChar
StartChar: l
Encoding: 108 108 76
Width: 240
Flags: W
HStem: 637 20G<95 135>
VStem: 83 74<55 565>
AnchorPoint: "blwmark" 120 0 basechar 0
AnchorPoint: "abvmark" 120 700 basechar 0
LayerCount: 2
Back
SplineSet
95 50 m 25
 145 0 l 25
 195 50 l 1049
95 620 m 25
 145 570 l 1049
120 595 m 9
 120 25 l 1049
EndSplineSet
Fore
SplineSet
58 600 m 1
 115 657 l 1
 140 632 l 1
 157 615 l 1
 182 590 l 1
 157 565 l 1
 157 45 l 1
 165 37 l 1
 215 87 l 1
 232 70 l 1
 125 -37 l 1
 100 -12 l 1
 83 5 l 1
 58 30 l 1
 83 55 l 1
 83 575 l 1
 58 600 l 1
EndSplineSet
EndChar
StartChar: m
Encoding: 109 109 77
Width: 720
Flags: W
HStem: 417 20G<95 135 270 310 510 550> 417 20G<95 135 270 310 510 550>
VStem: 83 74<55 270 304 345> 323 74<55 270 304 328.03> 563 74<55 328.03>
CounterMasks: 1 38
AnchorPoint: "blwmark" 360 0 basechar 0
AnchorPoint: "abvmark" 360 500 basechar 0
LayerCount: 2
Back
SplineSet
575 50 m 25
 625 0 l 1049
600 25 m 1
 600 310 l 25
 510 400 l 1
 360 250 l 1049
335 50 m 25
 385 0 l 1049
360 25 m 1
 360 310 l 25
 270 400 l 1
 120 250 l 1049
95 50 m 25
 145 0 l 1049
145 350 m 25
 95 400 l 1049
120 375 m 9
 120 25 l 1025
EndSplineSet
Fore
SplineSet
157 395 m 1xb8
 182 370 l 1
 157 345 l 1
 157 304 l 1
 290 437 l 1
 397 330 l 1
 397 304 l 1
 530 437 l 1
 637 330 l 1
 637 45 l 1
 662 20 l 1
 605 -37 l 1
 538 30 l 1
 563 55 l 1
 563 290 l 2
 563 329 511 342 490 363 c 1
 397 270 l 1
 397 45 l 1
 422 20 l 1
 365 -37 l 1
 340 -12 l 1
 323 5 l 1
 298 30 l 1
 323 55 l 1
 323 230 l 1
 323 290 l 2
 323 329 271 342 250 363 c 1
 157 270 l 1
 157 45 l 1
 182 20 l 1
 125 -37 l 1
 100 -12 l 1
 83 5 l 1
 58 30 l 1
 83 55 l 1
 83 230 l 1
 83 355 l 1
 58 380 l 1
 115 437 l 1
 140 412 l 1
 157 395 l 1xb8
EndSplineSet
Substitution2: "Stylistic alternates-1" m.alt
EndChar
StartChar: o
Encoding: 111 111 79
Width: 480
Flags: W
HStem: 417 20G<240 280> 417 20G<240 280>
VStem: 83 74<100 260> 323 74<140 300>
AnchorPoint: "blwmark" 240 0 basechar 0
AnchorPoint: "abvmark" 240 500 basechar 0
LayerCount: 2
Back
SplineSet
240 400 m 25
 120 280 l 25
 120 120 l 25
 240 0 l 25
 360 120 l 25
 360 280 l 25
 240 400 l 25
EndSplineSet
Fore
SplineSet
220 363 m 1x30
 157 300 l 1
 157 140 l 2
 157 84 230 67 260 37 c 1
 323 100 l 1
 323 260 l 2
 323 316 250 333 220 363 c 1x30
83 260 m 1
 260 437 l 1xb0
 397 300 l 1
 397 140 l 1
 220 -37 l 1
 83 100 l 1
 83 260 l 1
EndSplineSet
EndChar
StartChar: t
Encoding: 116 116 84
Width: 389
Flags: W
HStem: 363 74<80 113 187 280> 567 20G<150 187>
VStem: 113 74<51.4784 363 437 530>
AnchorPoint: "blwmark" 210 0 basechar 0
AnchorPoint: "abvmark" 180 650 basechar 0
LayerCount: 2
Back
SplineSet
60 400 m 25
 300 400 l 1049
150 550 m 1
 150 60 l 1
 210 0 l 1
 330 120 l 1025
EndSplineSet
Fore
SplineSet
170 587 m 1
 187 570 l 1
 187 437 l 1
 320 437 l 1
 337 420 l 1
 280 363 l 1
 187 363 l 1
 187 80 l 2
 187 57 218 49 230 37 c 1
 350 157 l 1
 367 140 l 1
 190 -37 l 1
 113 40 l 1
 113 363 l 1
 40 363 l 1
 23 380 l 1
 80 437 l 1
 113 437 l 1
 113 530 l 1
 170 587 l 1
EndSplineSet
EndChar
StartChar: u
Encoding: 117 117 85
Width: 480
Flags: W
HStem: 407 20G<96 136 336 375.231> 407 20G<96 136 336 375.231>
VStem: 93 54<74 356> 333 54<46 112 134 356>
AnchorPoint: "blwmark" 240 0 basechar 0
AnchorPoint: "abvmark" 240 500 basechar 0
LayerCount: 2
Back
SplineSet
140 360 m 25
 100 400 l 1049
450 60 m 25
 390 0 l 1
 360 30 l 17
 360 380 l 1025
380 360 m 25
 340 400 l 1049
120 380 m 25
 120 90 l 1
 210 0 l 25
 360 150 l 1049
EndSplineSet
Fore
SplineSet
136 407 m 1xb0
 147 396 l 1
 167 376 l 1
 147 356 l 1
 147 106 l 2
 147 62 203 50 226 27 c 1
 333 134 l 1
 333 364 l 1
 313 384 l 1
 356 427 l 1
 381 401 l 1
 387 396 l 1
 407 376 l 1
 387 356 l 1
 387 166 l 1
 387 46 l 1
 406 27 l 1
 466 87 l 1
 477 76 l 1
 374 -27 l 1
 333 14 l 1
 333 112 l 1
 194 -27 l 1
 93 74 l 1
 93 364 l 1
 73 384 l 1
 116 427 l 1
 136 407 l 1xb0
EndSplineSet
EndChar
StartChar: v
Encoding: 118 118 86
Width: 480
Flags: W
HStem: 407 20G<96 136> 427 130G<96 136 381 393>
VStem: 93 54<104 356> 273 54<427.753 506.849> 333 54<136 346>
AnchorPoint: "blwmark" 240 0 basechar 0
LayerCount: 2
Back
SplineSet
140 360 m 25
 100 400 l 1049
120 380 m 25
 120 120 l 1
 240 0 l 25
 360 120 l 1
 360 370 l 17
 380 332 300 423 300 472 c 8
 300 526 363 550 366 550 c 1033
EndSplineSet
Fore
SplineSet
147 396 m 1xb8
 167 376 l 1
 147 356 l 1
 147 136 l 2
 147 75 224 59 256 27 c 1
 333 104 l 1
 333 346 l 1
 329 350 l 2
 312 367 273 422 273 456 c 0
 273 478 284 496 296 508 c 2
 338 550 l 2
 356 568 380 577 382 577 c 2
 393 566 l 1
 350 523 l 2
 349 523 342 520 333 515 c 1
 330 508 327 498 327 488 c 0
 327 460 353 417 372 394 c 1
 376 397 l 1
 387 386 l 2
 390 381 391 378 390 377 c 2
 387 374 l 1
 387 136 l 1
 224 -27 l 1
 93 104 l 1
 93 364 l 1
 73 384 l 1
 116 427 l 1
 136 407 l 1
 147 396 l 1xb8
EndSplineSet
Substitution2: "Dotless forms-1" v.alt
EndChar
StartChar: w
Encoding: 119 119 87
Width: 720
Flags: W
HStem: 417 20G<95 135 335 375> 417 20G<95 135 335 375 625.5 643>
VStem: 83 74<100 345> 323 74<100 345> 503 74<432.566 500.732> 563 74<140 346>
AnchorPoint: "blwmark" 360 0 basechar 0
LayerCount: 2
Back
SplineSet
385 350 m 25
 335 400 l 1049
360 375 m 25
 360 120 l 1
 480 0 l 25
 600 120 l 1
 600 370 l 17
 610 351 540 423 540 472 c 8
 540 523.5 603.5 550 606 550 c 1033
145 350 m 25
 95 400 l 1049
120 375 m 25
 120 120 l 1
 240 0 l 25
 360 120 l 1025
EndSplineSet
Fore
SplineSet
157 395 m 1xb4
 182 370 l 1
 157 345 l 1
 157 140 l 2
 157 84 230 67 260 37 c 1
 323 100 l 1
 323 355 l 1
 298 380 l 1
 355 437 l 1
 380 412 l 1
 397 395 l 1
 422 370 l 1
 397 345 l 1
 397 140 l 2
 397 84 470 67 500 37 c 1
 563 100 l 1
 563 346 l 1xb4
 556 353 l 2
 539 370 503 417 503 452 c 0
 503 473 514 489 526 502 c 2
 583 559 l 2
 602 577 625 587 626 587 c 2
 643 570 l 1
 586 513 l 2
 586 513 584 513 580 511 c 0
 579 507 577 499 577 492 c 0xb8
 577 464 600 427 618 405 c 1
 620 407 l 1
 637 390 l 2
 638 388 638 387 638 387 c 0
 637 386 638 387 637 386 c 2
 637 140 l 1
 460 -37 l 1
 340 83 l 1
 220 -37 l 1
 83 100 l 1
 83 355 l 1
 58 380 l 1
 115 437 l 1
 140 412 l 1
 157 395 l 1xb4
EndSplineSet
Substitution2: "Dotless forms-1" w.alt
EndChar
StartChar: y
Encoding: 121 121 89
Width: 480
Flags: W
HStem: -227 54<232.501 300.472> -177 54<107.874 185.576> 407 20G<96 136 336 375.231> 407 20G<96 136 336 375.231>
VStem: 93 54<136 356> 333 54<-134 82 104 356>
AnchorPoint: "abvmark" 240 500 basechar 0
LayerCount: 2
Back
SplineSet
140 360 m 25
 100 400 l 1049
380 360 m 25
 340 400 l 1049
60 -200 m 17
 60 -200 104 -150 150 -150 c 8
 162 -150 255 -200 270 -200 c 24
 289 -200 360 -150 360 -150 c 1
 360 380 l 1025
360 120 m 9
 240 0 l 25
 120 120 l 1
 120 380 l 1049
EndSplineSet
Fore
SplineSet
44 -227 m 1x8c
 33 -216 l 1
 33 -216 36 -213 39 -210 c 2
 81 -167 l 2
 94 -154 130 -123 166 -123 c 0x4c
 178 -123 271 -173 286 -173 c 0x8c
 295 -173 314 -162 333 -151 c 1
 333 82 l 1
 224 -27 l 1
 93 104 l 1
 93 364 l 1
 73 384 l 1
 116 427 l 1
 136 407 l 1
 147 396 l 1
 167 376 l 1
 147 356 l 1
 147 136 l 1
 256 27 l 1
 333 104 l 1
 333 364 l 1
 313 384 l 1
 356 427 l 1
 381 401 l 1
 387 396 l 1
 407 376 l 1
 387 356 l 1
 387 136 l 1
 387 -134 l 1
 344 -177 l 1x6c
 344 -177 273 -227 254 -227 c 0x8c
 239 -227 146 -177 134 -177 c 0x4c
 102 -177 72 -200 56 -215 c 2
 44 -227 l 1x8c
EndSplineSet
EndChar
StartChar: z
Encoding: 122 122 90
Width: 420
Flags: W
HStem: -237 74<171.188 242.852> -187 74<52.6553 119.118> 303 74<114.261 176.771> 417 20G<60 97 248 280> 417 20G<60 97 248 280>
VStem: 263 74<-130 73>
AnchorPoint: "abvmark" 180 500 basechar 0
LayerCount: 2
Back
SplineSet
60 400 m 17
 60 400 97 340 150 340 c 0
 184 340 240 400 240 400 c 1
 300 340 l 1
 120 200 l 1
 300 100 l 1
 300 -150 l 1
 300 -150 244 -200 210 -200 c 0
 172 -200 115 -150 90 -150 c 16
 44 -150 0 -200 0 -200 c 1025
EndSplineSet
Fore
SplineSet
80 437 m 1xb4
 97 420 l 1
 97 420 102 412 110 402 c 0
 126 389 146 377 170 377 c 0
 194 377 230 408 248 425 c 2
 260 437 l 1
 337 360 l 1
 280 303 l 1
 172 219 l 1
 320 137 l 1
 337 120 l 1
 337 -130 l 1
 280 -187 l 1x74
 280 -187 224 -237 190 -237 c 0xa4
 152 -237 95 -187 70 -187 c 0x64
 38 -187 8 -211 -8 -225 c 2
 -20 -237 l 1xa4
 -37 -220 l 1
 -37 -220 -35 -217 -32 -214 c 2
 25 -158 l 2
 38 -145 73 -113 110 -113 c 0x64
 135 -113 192 -163 230 -163 c 0
 240 -163 251 -159 263 -153 c 1
 263 73 l 1
 100 163 l 1
 83 180 l 1
 140 237 l 1
 256 327 l 1
 220 363 l 1
 214 357 l 2
 199 342 157 303 130 303 c 0
 102 303 78 320 62 336 c 2
 45 353 l 2
 31 367 23 380 23 380 c 1
 80 437 l 1xb4
EndSplineSet
EndChar
StartChar: braceleft
Encoding: 123 123 91
Width: 360
Flags: W
HStem: -187 21G<232 300>
VStem: 143 74<-70 170 390 560>
LayerCount: 2
Back
SplineSet
300 700 m 25
 180 580 l 1
 180 370 l 25
 60 250 l 25
 180 200 l 25
 180 -100 l 1
 300 -150 l 1049
EndSplineSet
Fore
SplineSet
320 737 m 1
 337 720 l 1
 217 600 l 1
 217 390 l 1
 104 277 l 1
 200 237 l 1
 217 220 l 1
 217 -70 l 1
 320 -113 l 1
 337 -130 l 1
 280 -187 l 1
 160 -137 l 1
 143 -120 l 1
 143 170 l 1
 40 213 l 1
 23 230 l 1
 143 350 l 1
 143 560 l 1
 320 737 l 1
EndSplineSet
EndChar
StartChar: bar
Encoding: 124 124 92
Width: 300
Flags: W
HStem: -187 21G<113 150>
VStem: 113 74<-130 680>
LayerCount: 2
Back
SplineSet
150 -150 m 25
 150 700 l 1049
EndSplineSet
Fore
SplineSet
130 -187 m 1
 113 -170 l 1
 113 680 l 1
 170 737 l 1
 187 720 l 1
 187 -130 l 1
 130 -187 l 1
EndSplineSet
EndChar
StartChar: asciitilde
Encoding: 126 126 94
Width: 840
Flags: W
HStem: 273 54<383.749 657.122> 298 54<182.878 456.251>
LayerCount: 2
Back
SplineSet
120 275 m 17
 120 275 187 325 240 325 c 27
 380 325 460 300 600 300 c 27
 653 300 720 350 720 350 c 1033
EndSplineSet
Fore
SplineSet
93 259 m 1x40
 136 302 l 1
 136 302 203 352 256 352 c 0x40
 396 352 476 327 616 327 c 0
 669 327 736 377 736 377 c 1
 747 366 l 1
 704 323 l 1
 704 323 637 273 584 273 c 0x80
 444 273 364 298 224 298 c 0
 171 298 104 248 104 248 c 1
 93 259 l 1x40
EndSplineSet
EndChar
StartChar: exclamdown
Encoding: 161 161 200
Width: 360
Flags: W
HStem: 417 20G<155 195> 417 20G<155 195>
VStem: 131 116<-127 -28.5441> 143 74<-13.9875 185>
LayerCount: 2
Back
SplineSet
205 350 m 25
 155 400 l 1049
210 -140 m 1
 210 -140 193 -116 192 -100 c 24
 182 19 180 205 180 205 c 1
 180 205 176 19 168 -100 c 24
 166.5 -139 150 -200 150 -200 c 9
 210 -140 l 1
EndSplineSet
Fore
SplineSet
247 -120 m 1x20
 130 -237 l 1
 113 -220 l 1
 113 -220 129 -159 131 -120 c 0x20
 139 -1 143 185 143 185 c 1
 200 242 l 1
 217 225 l 1x10
 217 225 219 39 229 -80 c 0
 230 -96 247 -120 247 -120 c 1x20
242 370 m 1
 185 313 l 1
 118 380 l 1
 175 437 l 1x80
 242 370 l 1
EndSplineSet
EndChar
StartChar: cent
Encoding: 162 162 202
Width: 540
Flags: W
HStem: -187 21G<263 300> 617 20G<300 337>
VStem: 83 74<127 200> 263 74<-130 -27 68 326 425 580>
LayerCount: 2
Back
SplineSet
300 600 m 25
 300 -150 l 1049
480 280 m 9
 300 400 l 25
 120 220 l 25
 120 100 l 25
 300 0 l 25
 480 100 l 1041
EndSplineSet
Fore
SplineSet
517 300 m 1
 460 243 l 1
 337 326 l 1
 337 46 l 1
 500 137 l 1
 517 120 l 1
 460 63 l 1
 337 -5 l 1
 337 -130 l 1
 280 -187 l 1
 263 -170 l 1
 263 -27 l 1
 100 63 l 1
 83 80 l 1
 83 200 l 1
 263 380 l 1
 263 580 l 1
 320 637 l 1
 337 620 l 1
 337 425 l 1
 500 317 l 1
 517 300 l 1
263 347 m 1
 231 315 165 248 157 240 c 1
 157 127 l 1
 263 68 l 1
 263 347 l 1
EndSplineSet
EndChar
StartChar: sterling
Encoding: 163 163 203
Width: 660
Flags: W
HStem: 23 54<111.529 221 228 380.229> 273 54<268.893 429.383> 573 54<286.803 387.259> 573 29<443.709 465>
VStem: 213 54<116 290 345.272 556.469>
LayerCount: 2
Back
SplineSet
481 600 m 1
 480 600 454 575 420 575 c 3
 394 575 372 600 329 600 c 3
 281 600 240 550 240 550 c 1
 240 100 l 1025
600 121.200195312 m 1
 480 0 l 17
 480 0 419 50 180 50 c 3
 97 50 60 0 60 0 c 1033
120 275 m 17
 120 275 168 325 210 325 c 27
 281 325 319 300 390 300 c 27
 432 300 480 350 480 350 c 1033
EndSplineSet
Fore
SplineSet
104 248 m 1xe8
 93 259 l 1
 93 259 93 260 94 261 c 2
 137 303 l 2
 144 310 178 344 213 351 c 1
 213 534 l 1
 213 534 217 539 222 544 c 2
 264 586 l 2
 278 600 310 627 345 627 c 0xe8
 388 627 410 602 436 602 c 0xd8
 470 602 496 627 497 627 c 2xe8
 508 616 l 1
 465 573 l 2xd8
 464 573 438 548 404 548 c 0
 378 548 356 573 313 573 c 0
 296 573 280 567 267 559 c 1
 267 349 l 1
 314 342 350 327 406 327 c 0
 443 327 483 365 493 375 c 2
 496 377 l 1
 507 366 l 2
 507 366 507 366 506 365 c 2
 506 364 l 2
 463 322 l 2
 456 315 412 273 374 273 c 0
 331 273 301 283 267 290 c 1
 267 116 l 1
 228 77 l 1
 432 73 491 30 495 27 c 1
 573 106 l 1
 616 148 l 1
 627 137 l 1
 507 16 l 1
 464 -27 l 1
 464 -27 403 23 164 23 c 0
 110 23 76 2 59 -12 c 2
 44 -27 l 1
 33 -16 l 1
 33 -16 35 -12 39 -8 c 2
 82 34 l 2
 96 48 133 77 196 77 c 0
 205 77 213 77 221 77 c 1
 213 84 l 1
 213 298 l 1
 207 298 200 298 194 298 c 0
 158 298 118 260 107 250 c 2
 104 248 l 1xe8
EndSplineSet
EndChar
StartChar: yen
Encoding: 165 165 204
Width: 780
Flags: W
HStem: -177 54<123.112 434.462> -27 54<369.613 543 597 668.642> -2 54<230.011 487.882> 223 53<167.375 213> 523 21G<33 63> 573 54<106.919 201.967>
VStem: 213 54<291 554.438> 543 54<-64 -27 31 292 314 526>
LayerCount: 2
Back
SplineSet
60 550 m 1
 60 550 101 600 149 600 c 3
 192 600 196 575 240 575 c 1
 240 275 l 1025
120 200 m 17
 120 200 166 250 210 250 c 3
 372 250 390 150 390 150 c 1
 570 330 l 1025
60 -200 m 17
 60 -200 79 -150 300 -150 c 3
 529 -150 450 -200 450 -200 c 9
 570 -80 l 1
 570 570 l 1025
540 600 m 25
 600 540 l 1049
180 -25 m 17
 180 -25 228 25 270 25 c 27
 410 25 490 0 630 0 c 27
 672 0 720 50 720 50 c 1033
EndSplineSet
Fore
SplineSet
164 -52 m 1xbf
 153 -41 l 1
 153 -41 153 -40 154 -39 c 2
 197 3 l 2
 204 10 248 52 286 52 c 0xbf
 388 52 458 38 543 31 c 1
 543 292 l 1
 374 123 l 1
 363 134 l 2
 363 134 359 156 339 179 c 0
 313 202 269 223 194 223 c 0
 160 223 126 194 111 180 c 2
 104 173 l 1
 93 184 l 1
 93 184 94 186 96 188 c 2
 139 230 l 2
 149 240 180 270 213 276 c 1
 213 549 l 1
 180 553 172 573 133 573 c 0
 105 573 80 556 63 541 c 2
 44 523 l 1
 33 534 l 1
 33 534 37 539 42 544 c 2
 84 586 l 2
 99 601 131 627 165 627 c 0
 208 627 212 602 256 602 c 1
 267 591 l 1
 267 291 l 1
 252 276 l 1
 316 271 354 249 376 227 c 2
 387 216 l 2
 399 204 407 191 411 182 c 1
 543 314 l 1
 543 554 l 1
 513 584 l 1
 556 627 l 1
 586 597 l 1
 597 586 l 1
 627 556 l 1
 597 526 l 1
 597 346 l 1
 597 28 l 1
 612 27 629 27 646 27 c 0
 683 27 723 65 733 75 c 2
 736 77 l 1
 747 66 l 2
 747 66 747 66 746 65 c 2
 746 64 l 1
 703 22 l 2
 696 15 652 -27 614 -27 c 0
 608 -27 603 -27 597 -27 c 1xdf
 597 -64 l 1
 488 -173 l 2
 487 -175 485 -177 483 -179 c 2
 441 -222 l 1
 438 -225 434 -227 434 -227 c 2
 423 -216 l 1
 434 -205 l 2
 436 -202 436 -199 436 -196 c 0
 436 -194 l 0
 418 -185 375 -177 284 -177 c 0
 136 -177 79 -199 57 -214 c 1
 44 -227 l 1
 33 -216 l 1
 33 -216 34 -213 38 -209 c 2
 80 -167 l 2
 93 -154 144 -123 316 -123 c 0
 424 -123 463 -134 475 -146 c 2
 484 -155 l 1
 543 -96 l 1
 543 -25 l 1
 443 -19 368 -2 254 -2 c 0
 218 -2 178 -40 167 -50 c 2
 164 -52 l 1xbf
EndSplineSet
EndChar
StartChar: brokenbar
Encoding: 166 166 205
Width: 300
Flags: W
HStem: -187 21G<113 150>
VStem: 113 74<-130 180 370 680>
LayerCount: 2
Back
SplineSet
150 -150 m 17
 150 200 l 1025
150 350 m 1
 150 700 l 1033
EndSplineSet
Fore
SplineSet
130 313 m 1
 113 330 l 1
 113 680 l 1
 170 737 l 1
 187 720 l 1
 187 370 l 1
 130 313 l 1
130 -187 m 1
 113 -170 l 1
 113 180 l 1
 170 237 l 1
 187 220 l 1
 187 -130 l 1
 130 -187 l 1
EndSplineSet
EndChar
StartChar: section
Encoding: 167 167 206
Width: 600
Flags: W
HStem: -177 74<141.946 263.885> 603 74<343.426 465.827>
VStem: 83 74<192 260 482 560> 443 74<-60 18 240 308>
LayerCount: 2
Back
SplineSet
240 400 m 25
 120 280 l 25
 120 160 l 25
 480 50 l 25
 480 -80 l 25
 360 -200 l 17
 360 -200 264 -140 196 -140 c 27
 138 -140 60 -200 60 -200 c 1033
540 700 m 17
 540 700 473 640 420 640 c 27
 345 640 240 700 240 700 c 9
 120 580 l 25
 120 450 l 25
 480 340 l 25
 480 220 l 25
 360 100 l 1049
EndSplineSet
Fore
SplineSet
577 720 m 1
 520 663 l 1
 520 663 453 603 400 603 c 0
 325 603 220 663 220 663 c 2
 220 663 163 606 157 600 c 1
 157 482 l 1
 500 377 l 1
 517 360 l 1
 517 240 l 1
 396 119 l 1
 500 87 l 1
 517 70 l 1
 517 -60 l 1
 340 -237 l 1
 340 -237 244 -177 176 -177 c 0
 118 -177 40 -237 40 -237 c 1
 23 -220 l 1
 80 -163 l 1
 80 -163 158 -103 216 -103 c 0
 284 -103 380 -163 380 -163 c 1
 443 -100 l 1
 443 18 l 1
 100 123 l 1
 83 140 l 1
 83 260 l 1
 204 381 l 1
 100 413 l 1
 83 430 l 1
 83 560 l 1
 260 737 l 1
 260 737 365 677 440 677 c 0
 493 677 560 737 560 737 c 1
 577 720 l 1
370 127 m 1
 443 200 l 1
 443 308 l 1
 230 373 l 1
 157 300 l 1
 157 192 l 1
 370 127 l 1
EndSplineSet
EndChar
StartChar: dieresis
Encoding: 168 168 101
Width: 480
Flags: W
HStem: 523 94
LayerCount: 2
Back
SplineSet
340 590 m 25
 380 550 l 1049
100 590 m 25
 140 550 l 1049
EndSplineSet
Fore
SplineSet
73 574 m 1
 116 617 l 1
 167 566 l 1
 124 523 l 1
 73 574 l 1
313 574 m 1
 356 617 l 1
 407 566 l 1
 364 523 l 1
 313 574 l 1
EndSplineSet
EndChar
StartChar: copyright
Encoding: 169 169 221
Width: 840
Flags: W
HStem: -27 54<296.429 572.8> 108 54<368.323 499.593> 411 54<517.417 566.693> 417 20G<450.465 482> 417 20G<450.465 482> 438 54<435.485 495.204> 573 54<267.2 543.571>
VStem: 33 54<209.533 418.639> 230 54<229.804 357.824> 364 16<180 386 425 446> 428 54<206 394> 753 54<181.361 390.467>
LayerCount: 2
Back
SplineSet
372 438 m 1
 372 190 l 1025
454.799804688 410 m 1
 454.799804688 190 l 1025
372 465 m 1
 372 465 256.799804688 399 256.799804688 300 c 3
 256.799804688 208 320.400390625 135 439.200195312 135 c 3
 517.200195312 135 603.599609375 218 604.799804688 218 c 1025
372 406 m 1
 372 406 434.400390625 465 474 465 c 3
 516 465 499.200195312 438 537.599609375 438 c 3
 568.799804688 438 585.599609375 465 586.799804688 465 c 1025
60 350 m 0
 60 475 210 600 360 600 c 0
 660 600 780 500 780 250 c 0
 780 125 630 0 480 0 c 0
 180 0 60 100 60 350 c 0
EndSplineSet
Fore
SplineSet
33 334 m 0xc3f0
 33 388 61 442 105 486 c 2
 148 529 l 2
 206 587 291 627 376 627 c 0
 538 627 648 597 714 531 c 2
 725 520 l 2
 781 463 807 381 807 266 c 0
 807 212 779 158 735 114 c 2
 692 71 l 1
 634 13 549 -27 464 -27 c 0
 302 -27 192 3 126 69 c 2
 115 80 l 2
 59 137 33 219 33 334 c 0xc3f0
87 366 m 0
 87 255 110 173 163 117 c 1
 230 55 338 27 496 27 c 0
 571 27 645 57 701 104 c 1
 733 143 753 189 753 234 c 0
 753 345 730 427 677 483 c 1
 610 545 502 573 344 573 c 0
 269 573 195 543 139 496 c 1
 107 457 87 411 87 366 c 0
470 437 m 1xd3f0
 482 426 l 1
 482 206 l 1
 439 163 l 1
 428 174 l 1
 428 394 l 1
 470 437 l 1xd3f0
364 446 m 1
 356 438 l 1xc7f0
 356 438 341 430 322 414 c 1
 301 387 284 354 284 316 c 0
 284 274 297 235 323 206 c 0
 335 196 348 187 364 180 c 1
 364 386 l 1
 359 382 356 379 356 379 c 2
 345 390 l 1
 364 409 l 1
 364 446 l 1
380 462 m 1
 380 425 l 1
 388 433 l 1
 388 433 450 492 490 492 c 0xc7f0
 507 492 514 487 519 482 c 2
 531 471 l 2
 531 470 l 2
 536 467 542 465 553 465 c 0xe3f0
 568 465 580 471 588 477 c 2
 602 492 l 2xc7f0
 614 481 l 1
 612 479 l 2
 611 478 609 475 606 472 c 2
 564 430 l 2
 556 422 542 411 522 411 c 0xe3f0
 507 411 501 415 496 420 c 0
 484 431 l 2
 484 432 l 0
 479 435 471 438 458 438 c 0
 434 438 402 416 380 399 c 1
 380 173 l 1
 402 166 427 162 455 162 c 0
 533 162 619 245 620 245 c 2
 632 234 l 1
 589 191 l 2
 588 191 502 108 424 108 c 0
 364 108 318 126 287 157 c 2
 286 158 l 1
 275 169 l 2
 245 199 230 239 230 284 c 0
 230 334 259 375 288 404 c 2
 330 447 l 2
 359 476 388 492 388 492 c 1
 399 481 l 1
 380 462 l 1
EndSplineSet
EndChar
StartChar: ordfeminine
Encoding: 170 170 210
Width: 480
Flags: W
HStem: 163 74<80 400> 488 74<232.385 323> 567 20G<210 230>
VStem: 83 74<410 440> 323 74<337.187 396 430 488 562 641>
LayerCount: 2
Back
SplineSet
60 200 m 25
 420 200 l 1049
150 520 m 17
 120 610 l 1
 210 700 l 1
 360 675 l 1
 360 330 l 1
 390 300 l 1
 450 360 l 1049
360 450 m 25
 210 300 l 1
 120 390 l 1
 120 460 l 1
 210 550 l 1
 210 550 232.927734376 525 300 525 c 3
 280.99609375 525 360 525 360 525 c 1033
EndSplineSet
Fore
SplineSet
23 180 m 1
 80 237 l 1
 440 237 l 1
 457 220 l 1
 400 163 l 1
 40 163 l 1
 23 180 l 1
186 543 m 1
 230 587 l 1
 230 586 l 2
 234 582 256 562 317 562 c 2
 323 562 l 1
 323 641 l 1
 190 663 l 1
 157 630 l 1
 186 543 l 1
323 488 m 1
 277 488 l 1
 214 488 193 510 190 513 c 2
 157 480 l 1
 157 410 l 1
 230 337 l 1
 323 430 l 1
 323 488 l 1
323 396 m 1
 190 263 l 1
 83 370 l 1
 83 440 l 1
 128 485 l 1
 113 500 l 1
 83 590 l 1
 230 737 l 1
 380 712 l 1
 397 695 l 1
 397 545 l 1
 397 470 l 1
 397 350 l 2
 397 344 406 341 410 337 c 1
 470 397 l 1
 487 380 l 1
 370 263 l 1
 323 310 l 1
 323 396 l 1
EndSplineSet
EndChar
StartChar: guillemotleft
Encoding: 171 171 215
Width: 660
Flags: W
LayerCount: 2
Back
SplineSet
570 325 m 17
 570 325 543.919921876 295.744140624 510 275 c 0
 396 207 360 200 360 200 c 1
 360 200 437 174 540 100 c 0
 565.150390624 81.732421875 600 50 600 50 c 1033
270 325 m 17
 270 325 243.919921876 295.744140624 210 275 c 0
 96 207 60 200 60 200 c 1
 60 200 137 174 240 100 c 0
 265.14976701 81.7315958294 300 50 300 50 c 1033
EndSplineSet
Fore
SplineSet
290 362 m 1
 307 345 l 1
 307 345 304 342 299 337 c 2
 243 280 l 2
 233 270 213 252 190 238 c 0
 172 227 153 217 141 210 c 1
 172 194 213 170 260 137 c 0
 285 119 320 87 320 87 c 1
 337 70 l 1
 280 13 l 1
 280 13 245 45 220 63 c 0
 117 137 40 163 40 163 c 1
 23 180 l 1
 80 237 l 1
 80 237 116 244 230 312 c 0
 247 323 262 335 273 345 c 2
 290 362 l 1
590 362 m 1
 607 345 l 1
 607 345 604 342 599 337 c 2
 543 280 l 2
 533 270 513 252 490 238 c 0
 472 227 453 217 441 210 c 1
 472 194 513 170 560 137 c 0
 585 119 620 87 620 87 c 1
 637 70 l 1
 580 13 l 1
 580 13 545 45 520 63 c 0
 417 137 340 163 340 163 c 1
 323 180 l 1
 380 237 l 1
 380 237 416 244 530 312 c 0
 547 323 562 335 573 345 c 2
 590 362 l 1
EndSplineSet
EndChar
StartChar: logicalnot
Encoding: 172 172 225
Width: 720
Flags: W
HStem: 363 74<140 563>
VStem: 563 74<220 363>
LayerCount: 2
Back
SplineSet
120 400 m 25
 600 400 l 25
 600 200 l 1049
EndSplineSet
Fore
SplineSet
83 380 m 1
 140 437 l 1
 620 437 l 1
 637 420 l 1
 637 220 l 1
 580 163 l 1
 563 180 l 1
 563 363 l 1
 100 363 l 1
 83 380 l 1
EndSplineSet
EndChar
StartChar: registered
Encoding: 174 174 222
Width: 840
Flags: W
HStem: -20 40<301.064 573.819> 142 40<250.96 324.198> 431 40<294.116 325> 445 26<337.42 353> 445 17<247 257.534> 465 20G<376.5 385 434.296 501.188> 580 40<266.181 538.936>
VStem: 40 40<212.888 417.592> 325 12<182 431> 394 40<174 426> 542 40<175 301> 760 40<182.408 387.112>
LayerCount: 2
Back
SplineSet
232 438 m 1
 232 438 255 465 281 465 c 3
 305 465 317 451 331 451 c 3
 349 451 364 465 365 465 c 1025
331 438 m 1
 331 176 l 1025
496 314 m 1
 595 396 l 1
 446 465 l 1
 414 438 l 1
 414 162 l 1
 380 135 l 1
 380 135 363 162 298 162 c 3
 252 162 232 135 232 135 c 1033
530 340 m 1
 562 314 l 1
 562 162 l 1
 595 135 l 9
 628 162 l 1049
60 350 m 0
 60 475 210 600 360 600 c 0
 660 600 780 500 780 250 c 0
 780 125 630 0 480 0 c 0
 180 0 60 100 60 350 c 0
EndSplineSet
Fore
SplineSet
40 338 m 0xc3f0
 40 392 68 446 112 490 c 2
 144 522 l 2
 144 523 l 2
 202 581 287 620 372 620 c 0
 534 620 644 591 710 525 c 2
 719 516 l 2
 775 459 800 377 800 262 c 0
 800 208 772 154 728 110 c 2
 696 78 l 1
 696 77 l 2
 638 19 553 -20 468 -20 c 0
 306 -20 196 9 130 75 c 2
 122 84 l 2
 121 84 l 2
 65 141 40 223 40 338 c 0xc3f0
80 362 m 0
 80 250 104 168 158 112 c 1
 224 49 333 20 492 20 c 0
 569 20 646 54 703 103 c 1
 738 143 760 190 760 238 c 0
 760 350 736 432 682 488 c 1
 616 551 507 580 348 580 c 0
 271 580 194 546 137 497 c 1
 102 457 80 410 80 362 c 0
476 302 m 1
 508 334 l 1
 567 383 l 1
 434 445 l 1xcff0
 434 445 434 197 434 174 c 1
 402 142 l 1
 368 115 l 1
 361 123 l 2
 351 131 328 142 286 142 c 0
 256 142 237 130 228 122 c 2
 220 115 l 1
 212 123 l 2
 212 123 213 125 215 127 c 2
 247 159 l 2
 254 166 275 182 310 182 c 0
 315 182 320 182 325 182 c 1
 325 431 l 2
 323 431 321 431 319 431 c 0xe3f0
 305 431 293 445 269 445 c 0
 252 445 237 434 228 426 c 2
 220 418 l 1
 212 426 l 1
 212 426 213 428 215 430 c 2
 247 462 l 2
 248 462 l 0
 256 470 274 485 293 485 c 0xcff0
 317 485 329 471 343 471 c 0xd3f0
 361 471 376 485 377 485 c 2xc7f0
 385 477 l 1
 353 445 l 2xd3f0
 352 445 346 439 337 435 c 1
 337 180 l 1
 367 176 382 165 388 159 c 2
 392 155 l 1
 394 157 l 1
 394 426 l 1
 426 458 l 1
 458 485 l 1xc7f0
 607 416 l 1
 615 408 l 1
 583 376 l 1
 553 351 l 1
 574 334 l 1
 582 326 l 1
 582 175 l 1
 607 155 l 1
 640 182 l 1
 648 174 l 1
 616 142 l 1
 583 115 l 1
 550 142 l 1
 542 150 l 1
 542 301 l 1
 518 320 l 1
 517 321 l 1
 484 294 l 1
 476 302 l 1
EndSplineSet
EndChar
StartChar: macron
Encoding: 175 175 227
Width: 480
Flags: W
HStem: 523 54<106 374>
LayerCount: 2
Back
SplineSet
90 550 m 1
 390 550 l 1049
EndSplineSet
Fore
SplineSet
63 534 m 1
 106 577 l 1
 406 577 l 1
 417 566 l 1
 374 523 l 1
 74 523 l 1
 63 534 l 1
EndSplineSet
EndChar
StartChar: degree
Encoding: 176 176 229
Width: 600
Flags: W
HStem: 398 54<240.857 388.877> 698 54<211.123 359.143>
VStem: 93 54<535.021 641.554> 453 54<508.446 614.979>
LayerCount: 2
Back
SplineSet
120 600 m 0
 120 660 198 725 270 725 c 0
 390 725 480 650 480 550 c 0
 480 490 402 425 330 425 c 0
 210 425 120 500 120 600 c 0
EndSplineSet
Fore
SplineSet
93 584 m 0
 93 610 108 637 130 659 c 2
 172 701 l 2
 201 730 245 752 286 752 c 0
 353 752 410 729 448 691 c 2
 459 679 l 0
 489 649 507 610 507 566 c 0
 507 540 492 513 470 491 c 2
 428 449 l 2
 399 420 355 398 314 398 c 0
 247 398 190 421 152 459 c 2
 141 471 l 0
 111 501 93 540 93 584 c 0
147 616 m 0
 147 574 162 536 189 507 c 0
 227 473 283 452 346 452 c 0
 377 452 409 464 435 483 c 1
 446 499 453 516 453 534 c 0
 453 576 438 614 411 643 c 0
 373 677 317 698 254 698 c 0
 223 698 191 686 165 667 c 1
 154 651 147 634 147 616 c 0
EndSplineSet
EndChar
StartChar: plusminus
Encoding: 177 177 213
Width: 720
Flags: W
HStem: -2 54<136 584> 348 54<136 333 387 584> 582 20G<356 387>
VStem: 333 54<191 348 402 559>
LayerCount: 2
Back
SplineSet
120 25 m 25
 600 25 l 1049
360 575 m 25
 360 175 l 1049
120 375 m 25
 600 375 l 1049
EndSplineSet
Fore
SplineSet
93 359 m 1
 136 402 l 1
 333 402 l 1
 333 559 l 1
 376 602 l 1
 387 591 l 1
 387 402 l 1
 616 402 l 1
 627 391 l 1
 584 348 l 1
 387 348 l 1
 387 191 l 1
 344 148 l 1
 333 159 l 1
 333 348 l 1
 104 348 l 1
 93 359 l 1
93 9 m 1
 136 52 l 1
 616 52 l 1
 627 41 l 1
 584 -2 l 1
 104 -2 l 1
 93 9 l 1
EndSplineSet
EndChar
StartChar: micro
Encoding: 181 181 209
Width: 480
Flags: W
HStem: -187 21G<83 120> 417 20G<95 135 335 375> 417 20G<95 135 335 375>
VStem: 83 74<-130 -16 62 345> 323 74<50 66 100 345>
LayerCount: 2
Back
SplineSet
120 375 m 1
 120 -150 l 1025
145 350 m 9
 95 400 l 1041
450 60 m 9
 390 0 l 1
 360 30 l 17
 360 375 l 1025
385 350 m 9
 335 400 l 1041
60 0 m 1
 60 0 71.9384760968 25 150 25 c 3
 223 25 240 0 240 0 c 9
 360 120 l 1025
EndSplineSet
Fore
SplineSet
40 -37 m 1xd8
 23 -20 l 1
 23 -20 24 -18 26 -16 c 2
 83 41 l 2
 83 355 l 1
 58 380 l 1
 115 437 l 1
 140 412 l 1
 157 395 l 1
 182 370 l 1
 157 345 l 1
 157 62 l 1
 161 62 165 62 170 62 c 0
 230 62 252 45 258 39 c 2
 260 37 l 1
 323 100 l 1
 323 355 l 1
 298 380 l 1
 355 437 l 1
 380 412 l 1
 397 395 l 1
 422 370 l 1
 397 345 l 1
 397 140 l 1
 397 50 l 1
 410 37 l 1
 470 97 l 1
 487 80 l 1
 370 -37 l 1
 323 10 l 1
 323 66 l 1
 220 -37 l 1
 216 -32 l 2
 209 -26 192 -17 157 -13 c 1
 157 -130 l 1
 100 -187 l 1
 83 -170 l 1
 83 -16 l 1
 65 -19 54 -25 48 -29 c 2
 40 -37 l 1xd8
EndSplineSet
EndChar
StartChar: paragraph
Encoding: 182 182 226
Width: 720
Flags: W
HStem: -187 74<325.143 408 432 534.044> 63 74<212.659 321.719> 538 74<374.815 408> 563 74<251.653 382.824> 563 49<432.792 461>
VStem: 83 74<211.331 453.621> 408 24<-113 539> 533 74<-55 520>
LayerCount: 2
Back
SplineSet
360 150 m 17
 360 150 348.13838788 100 270 100 c 3
 168 100 120 177.79076131 120 350 c 3
 120 469 170.810673948 600 329 600 c 3
 372 600 394 575 420 575 c 3
 454 575 480 600 481 600 c 1025
420 550 m 1
 420 -125 l 1025
630 600 m 1
 570 540 l 1
 570 -75 l 1025
660 -200 m 1
 660 -200 508 -150 390 -150 c 3
 307 -150 270 -200 270 -200 c 1025
EndSplineSet
Fore
SplineSet
697 -180 m 1xcf
 640 -237 l 1
 640 -237 488 -187 370 -187 c 0
 316 -187 282 -208 265 -222 c 2
 250 -237 l 1
 233 -220 l 2
 233 -220 235 -217 239 -213 c 2
 240 -213 l 2
 296 -156 l 2
 310 -142 346 -114 408 -113 c 1
 408 539 l 2
 405 539 403 538 400 538 c 0xe7
 374 538 352 563 309 563 c 0
 264 563 228 553 199 535 c 1
 169 489 157 428 157 370 c 0
 157 271 172 204 205 164 c 1
 227 146 256 137 290 137 c 0
 310 137 325 140 338 145 c 1
 380 187 l 1
 397 170 l 1
 397 170 394 157 382 145 c 2
 325 89 l 2
 325 88 l 0
 312 75 289 63 250 63 c 0
 211 63 181 74 157 98 c 2
 140 115 l 2
 102 153 83 223 83 330 c 0
 83 402 102 478 151 527 c 2
 207 584 l 2
 240 616 286 637 349 637 c 0xd7
 392 637 414 612 440 612 c 0xcf
 474 612 500 637 501 637 c 2xd7
 518 620 l 1
 461 563 l 2
 460 563 449 552 432 545 c 1
 432 -114 l 1
 546 -119 680 -163 680 -163 c 1
 697 -180 l 1xcf
650 637 m 1xd7
 667 620 l 1
 607 560 l 1
 607 -55 l 1
 550 -112 l 1
 533 -95 l 1
 533 520 l 1
 650 637 l 1xd7
EndSplineSet
EndChar
StartChar: periodcentered
Encoding: 183 183 212
Width: 360
Flags: W
HStem: 283 94
VStem: 133 94
LayerCount: 2
Back
SplineSet
160 350 m 25
 200 310 l 1049
EndSplineSet
Fore
SplineSet
133 334 m 1
 176 377 l 1
 227 326 l 1
 184 283 l 1
 133 334 l 1
EndSplineSet
EndChar
StartChar: cedilla
Encoding: 184 184 102
Width: 480
Flags: W
HStem: -212 74<82.3208 215.402>
LayerCount: 2
Back
SplineSet
240 0 m 25
 210 -25 l 1
 360 -50 l 1
 240 -200 l 1
 240 -200 209 -175 150 -175 c 3
 78 -175 60 -200 60 -200 c 1025
EndSplineSet
Fore
SplineSet
277 20 m 1
 263 6 l 1
 380 -13 l 1
 397 -30 l 1
 277 -180 l 1
 220 -237 l 1
 220 -237 189 -212 130 -212 c 0
 75 -212 52 -226 44 -233 c 2
 40 -237 l 1
 23 -220 l 2
 23 -220 24 -219 25 -218 c 2
 81 -161 l 2
 87 -155 110 -138 170 -138 c 0
 212 -138 239 -151 252 -158 c 1
 313 -82 l 1
 190 -62 l 1
 173 -45 l 1
 230 12 l 1
 260 37 l 1
 277 20 l 1
EndSplineSet
EndChar
StartChar: questiondown
Encoding: 191 191 201
Width: 480
Flags: W
HStem: 407 20G<216 256> 407 20G<216 256>
VStem: 93 54<-127 -46> 213 54<66 194> 333 54<-94 -66>
CounterMasks: 1 38
LayerCount: 2
Back
SplineSet
360 -50 m 25
 360 -110 l 25
 270 -200 l 25
 120 -150 l 25
 120 -30 l 25
 240 50 l 25
 240 210 l 1049
260 360 m 25
 220 400 l 1049
EndSplineSet
Fore
SplineSet
287 376 m 1xb8
 244 333 l 1
 193 384 l 1
 236 427 l 1
 287 376 l 1xb8
376 -23 m 1
 387 -34 l 1
 387 -94 l 1
 254 -227 l 1
 104 -177 l 1
 93 -166 l 1
 93 -46 l 1
 136 -3 l 1
 213 49 l 1
 213 194 l 1
 256 237 l 1
 267 226 l 1
 267 66 l 1
 224 23 l 1
 147 -29 l 1
 147 -127 l 1
 286 -173 l 1
 333 -126 l 1
 333 -66 l 1
 376 -23 l 1
EndSplineSet
EndChar
StartChar: AE
Encoding: 198 198 188
Width: 1380
Flags: W
HStem: -37 74<841.499 1040.77> 13 74<114.651 222.908> 263 74<1115 1178.37> 313 74<294.773 350 434 456.939 1046.78 1090.45> 513 74<1114.63 1182.51> 517 20G<990 1027> 538 21G<233 264 488 530 803 828> 563 74<293.767 363.195 978.03 1055.87> 563 56<295 348.559>
VStem: 383 74<388.24 546.675> 828 24<64 462 521 571> 953 74<120 311.543 351 480>
AnchorPoint: "blwmark" 720 0 basechar 0
AnchorPoint: "abvmark" 720 700 basechar 0
LayerCount: 2
Back
SplineSet
625 560 m 9
 575 600 l 25
 525 560 l 1041
240 300 m 1
 240 300 276 350 360 350 c 3
 512 350 600 250 601 250 c 1025
270 575 m 1
 270 575 282 600 330 600 c 11
 389 600 420 549 420 500 c 3
 420 263 211 75 211 75 c 1025
60 0 m 1
 60 0 97 50 180 50 c 3
 298 50 330 0 330 0 c 1025
600 580 m 1
 630 300 l 1025
990 300 m 25
 990 300 1046 350 1080 350 c 27
 1122 350 1098 300 1140 300 c 3
 1189 300 1230 350 1231 350 c 1049
840 550 m 1
 840 100 l 1025
990 500 m 1
 990 100 l 1025
840 600 m 1
 840 600 630 480 630 300 c 3
 630 134 744 0 960 0 c 3
 1103 0 1261 150 1262 150 c 1025
840 492 m 1
 840 492 954 600 1026 600 c 3
 1103 600 1070 550 1140 550 c 3
 1198 550 1230 600 1231 600 c 1025
EndSplineSet
Fore
SplineSet
1010 537 m 1x1470
 1027 520 l 1
 1027 351 l 1
 1046 366 1078 387 1100 387 c 0x1470
 1110 387 1116 384 1120 380 c 2
 1137 363 l 2
 1143 357 1146 346 1149 338 c 0
 1152 337 1156 337 1160 337 c 0x2070
 1194 337 1223 360 1239 375 c 2
 1250 386 l 2
 1251 387 l 2x1070
 1268 370 l 1
 1265 367 l 2
 1264 366 1262 364 1261 363 c 2
 1205 307 l 2
 1191 293 1158 263 1120 263 c 0x2070
 1110 263 1105 266 1100 270 c 0
 1083 287 l 2
 1077 293 1075 303 1071 312 c 0
 1069 313 1064 313 1060 313 c 0
 1050 313 1039 309 1027 303 c 1
 1027 120 l 1
 970 63 l 1
 953 80 l 1
 953 280 l 1
 953 480 l 1
 1010 537 l 1x1470
40 -37 m 1x8070
 23 -20 l 1
 23 -20 26 -17 30 -13 c 2
 86 44 l 2
 100 58 137 87 200 87 c 0
 202 87 203 87 205 87 c 0
 244 129 310 210 350 313 c 1
 347 313 343 313 340 313 c 0x5070
 288 313 255 294 236 279 c 2
 220 263 l 1x2070
 203 280 l 1
 203 280 205 283 210 288 c 2
 267 345 l 2
 281 359 314 385 373 387 c 1
 380 417 383 448 383 480 c 0
 383 504 376 528 362 547 c 1
 349 557 331 563 310 563 c 0x1170
 287 563 274 558 264 552 c 2
 250 538 l 1
 233 555 l 1
 233 555 235 558 239 562 c 2
 295 619 l 2
 296 619 l 0x02f0
 304 627 319 637 350 637 c 0x0170
 376 637 395 627 410 612 c 2
 427 596 l 2
 428 595 l 0
 447 576 457 548 457 520 c 0
 457 472 448 425 434 382 c 1
 506 370 559 338 590 314 c 1
 564 556 l 1
 555 563 l 1x00f0
 505 523 l 1
 488 540 l 1
 545 597 l 1
 595 637 l 1
 620 617 l 1
 645 597 l 1
 662 580 l 1
 641 559 l 1
 653 446 l 1
 667 465 683 482 698 497 c 0
 698 498 l 2
 755 555 l 2
 807 607 860 637 860 637 c 1
 877 620 l 1
 847 590 l 1
 852 590 l 1
 852 521 l 1
 860 529 l 1
 860 529 974 637 1046 637 c 0x0370
 1076 637 1089 629 1098 620 c 2
 1115 603 l 2
 1117 601 1120 597 1122 595 c 0
 1130 590 1141 587 1160 587 c 0x0870
 1187 587 1208 598 1223 609 c 2
 1251 637 l 2x0170
 1268 620 l 2
 1266 618 1261 611 1254 604 c 2
 1198 548 l 2
 1183 533 1156 513 1120 513 c 0x0870
 1095 513 1084 519 1075 528 c 2
 1057 545 l 2
 1055 547 1053 550 1051 553 c 0
 1042 559 1028 563 1006 563 c 0
 958 563 891 515 852 483 c 1
 852 60 l 1
 838 60 l 1
 879 45 926 37 980 37 c 0
 1123 37 1281 187 1282 187 c 2
 1299 170 l 1
 1242 113 l 2
 1241 113 1083 -37 940 -37 c 0
 831 -37 748 -2 692 53 c 0
 675 70 l 2
 633 113 606 168 597 229 c 1
 581 213 l 2
 580 213 517 285 404 307 c 1
 356 208 288 135 260 107 c 2
 238 85 l 1
 302 78 332 56 344 44 c 2
 361 27 l 2
 365 23 367 20 367 20 c 1
 310 -37 l 1x8170
 296 -23 l 2
 277 -8 237 13 160 13 c 0x4070
 107 13 73 -7 55 -22 c 2
 40 -37 l 1x8070
828 571 m 1
 820 563 l 1x00f0
 820 563 785 544 745 509 c 1
 703 459 667 395 667 320 c 0
 667 242 691 171 740 118 c 0
 764 96 794 78 828 64 c 1
 828 462 l 1
 823 458 820 455 820 455 c 1
 803 472 l 1
 828 497 l 1
 828 571 l 1
EndSplineSet
EndChar
StartChar: Eth
Encoding: 208 208 180
Width: 840
Flags: W
HStem: -27 21G<33 59 416 607.762> 23 54<111.529 232 248 376.186> 273 54<417 488.642> 298 54<170.146 232 248 361.129> 523 21G<33 63> 548 54<191.352 232> 573 54<106.919 207.259> 573 29<263.744 285>
VStem: 232 16<76 295 352 549> 363 54<166 273 336 534> 693 54<117 453>
AnchorPoint: "blwmark" 420 0 basechar 0
AnchorPoint: "abvmark" 480 700 basechar 0
LayerCount: 2
Back
SplineSet
60 550 m 1
 60 550 101 600 149 600 c 3
 192 600 214 575 240 575 c 3
 274 575 300 600 301 600 c 1025
240 550 m 1
 240 75 l 1025
390 150 m 1
 390 550 l 1
 450 600 l 1
 720 475 l 1
 720 101 l 1
 600 0 l 17
 600 0 419 50 180 50 c 3
 97 50 60 0 60 0 c 1033
120 275 m 17
 120 275 168 325 210 325 c 27
 305 325 355 300 450 300 c 27
 492 300 540 350 540 350 c 1033
EndSplineSet
Fore
SplineSet
104 248 m 1xdae0
 93 259 l 1
 93 259 93 260 94 261 c 2
 137 303 l 2
 144 310 188 352 226 352 c 0
 228 352 230 352 232 352 c 2
 232 549 l 2
 230 549 227 548 224 548 c 0xdce0
 198 548 176 573 133 573 c 0
 105 573 80 556 63 541 c 2
 44 523 l 1
 33 534 l 1
 33 534 37 539 42 544 c 2
 84 586 l 2
 99 601 131 627 165 627 c 0xcae0
 208 627 230 602 256 602 c 0xc9e0
 290 602 316 627 317 627 c 2xcae0
 328 616 l 1
 285 573 l 2xc9e0
 284 573 270 559 248 552 c 1
 248 351 l 1
 292 349 327 342 363 336 c 1
 363 534 l 1
 406 577 l 1
 466 627 l 1
 736 502 l 1
 747 491 l 1
 747 117 l 1
 704 74 l 1
 584 -27 l 1
 584 -27 403 23 164 23 c 0
 110 23 76 2 59 -12 c 2
 44 -27 l 1
 33 -16 l 1
 33 -16 35 -12 39 -8 c 2
 82 34 l 2
 96 48 133 77 196 77 c 0
 208 77 220 76 232 76 c 1
 232 297 l 1
 220 298 207 298 194 298 c 0
 158 298 118 260 107 250 c 2
 104 248 l 1xdae0
374 123 m 1
 363 134 l 1
 363 278 l 1
 323 283 289 291 248 295 c 1
 248 76 l 1
 461 70 616 27 616 27 c 1
 693 92 l 1
 693 453 l 1
 434 573 l 1
 417 558 l 1
 417 329 l 1
 432 328 448 327 466 327 c 0
 503 327 543 365 553 375 c 2
 556 377 l 1
 567 366 l 2
 567 366 567 366 566 365 c 2
 566 364 l 2
 523 322 l 2
 516 315 472 273 434 273 c 0
 428 273 423 273 417 273 c 1xe9e0
 417 166 l 1
 374 123 l 1
EndSplineSet
EndChar
StartChar: multiply
Encoding: 215 215 223
Width: 720
Flags: W
HStem: 517 20G<120 164 596 637>
LayerCount: 2
Back
SplineSet
600 500 m 25
 120 100 l 1049
120 500 m 25
 600 100 l 1049
EndSplineSet
Fore
SplineSet
83 480 m 1
 140 537 l 1
 380 337 l 1
 620 537 l 1
 637 520 l 1
 580 463 l 1
 404 316 l 1
 620 137 l 1
 637 120 l 1
 580 63 l 1
 340 263 l 1
 100 63 l 1
 83 80 l 1
 140 137 l 1
 316 284 l 1
 100 463 l 1
 83 480 l 1
EndSplineSet
EndChar
StartChar: Oslash
Encoding: 216 216 182
Width: 960
Flags: W
HStem: -27 54<359.219 564.768> 465 21G<333 352> 573 54<473.858 524 531 628.198>
VStem: 123 54<197.736 382.447> 352 16<70 179 221 473 516 580> 484 54<116 289 317 334 362 534> 757 54<215.392 426.715>
AnchorPoint: "abvmark" 540 700 basechar 0
LayerCount: 2
Back
SplineSet
840 600 m 25
 120 0 l 1049
360 550 m 1
 360 100 l 1025
512 550 m 1
 510 100 l 1025
360 600 m 1
 360 600 150 480 150 300 c 3
 150 134 264 0 480 0 c 3
 623 0 784 142 784 300 c 3
 784 512 673 600 540 600 c 3
 436 600 360 492 360 492 c 1025
EndSplineSet
Fore
SplineSet
387 616 m 1
 344 573 l 2
 344 573 306 551 262 512 c 1
 217 461 177 394 177 316 c 0
 177 241 200 171 246 119 c 1
 352 207 l 1
 352 473 l 1
 344 465 l 1
 333 476 l 1
 333 476 340 486 352 499 c 1
 352 580 l 1
 368 580 l 1
 368 516 l 1
 406 554 l 2
 438 586 492 627 556 627 c 0
 619 627 677 607 721 563 c 2
 732 552 l 2
 737 547 742 542 747 536 c 1
 856 627 l 1
 867 616 l 1
 824 573 l 1
 759 519 l 1
 791 471 811 405 811 316 c 0
 811 240 774 168 719 113 c 2
 677 70 l 2
 618 11 538 -27 464 -27 c 0
 355 -27 272 8 216 63 c 2
 214 65 l 1
 104 -27 l 1
 93 -16 l 1
 136 27 l 1
 199 80 l 1
 149 134 123 205 123 284 c 0
 123 374 176 450 228 502 c 2
 271 544 l 2
 323 596 376 627 376 627 c 1
 387 616 l 1
524 573 m 1
 473 573 428 546 397 520 c 0
 391 512 387 508 387 508 c 1
 368 489 l 1
 368 221 l 1
 484 317 l 1
 485 534 l 1
 524 573 l 1
531 573 m 1
 539 566 l 1
 538 362 l 1
 699 497 l 1
 694 504 689 509 684 515 c 0
 643 553 589 572 531 573 c 1
368 193 m 1
 368 70 l 1
 352 70 l 1
 352 179 l 1
 261 104 l 1
 316 56 395 27 496 27 c 0
 561 27 630 57 686 104 c 1
 729 155 757 218 757 284 c 0
 757 367 740 432 711 479 c 1
 538 334 l 1
 537 116 l 1
 494 73 l 1
 483 84 l 1
 484 289 l 1
 368 193 l 1
EndSplineSet
EndChar
StartChar: Thorn
Encoding: 222 222 178
Width: 840
Flags: W
HStem: -177 54<21.0167 187.667> 73 52<417 518.072> 407 20G<446 509.2> 407 20G<446 509.2> 523 21G<33 63> 548 54<191.352 232> 573 54<106.919 207.259> 573 29<263.744 285>
VStem: 232 16<-152 549> 363 54<-34 65 125 356 378 524> 693 54<186 253>
AnchorPoint: "abvmark" 480 700 basechar 0
LayerCount: 2
Back
SplineSet
300 50 m 17
 300 50 369 100 420 100 c 27
 511 100 600 50 600 50 c 1
 720 170 l 1
 720 275 l 1
 450 400 l 1
 390 340 l 1025
60 550 m 1
 60 550 101 600 149 600 c 3
 192 600 214 575 240 575 c 3
 274 575 300 600 301 600 c 1025
240 550 m 1
 240 -125 l 1025
450 600 m 1
 390 540 l 1
 390 -50 l 1
 240 -200 l 1
 240 -200 208 -150 90 -150 c 3
 7 -150 -30 -200 -28 -200 c 1033
EndSplineSet
Fore
SplineSet
-23 -207 m 2xeae0
 -44 -227 l 2
 -55 -216 l 2
 -55 -216 -53 -211 -48 -206 c 2
 -5 -164 l 2
 9 -150 46 -123 106 -123 c 0
 172 -123 210 -138 232 -152 c 1
 232 549 l 2
 230 549 227 548 224 548 c 0xece0
 198 548 176 573 133 573 c 0
 105 573 80 556 63 541 c 2
 44 523 l 1
 33 534 l 1
 33 534 37 539 42 544 c 2
 84 586 l 2
 99 601 131 627 165 627 c 0xcae0
 208 627 230 602 256 602 c 0xc9e0
 290 602 316 627 317 627 c 2xcae0
 328 616 l 1
 285 573 l 2xc9e0
 284 573 270 559 248 552 c 1
 248 -155 l 1
 236 -155 l 1
 242 -159 247 -163 250 -166 c 2
 256 -173 l 1
 363 -66 l 1
 363 65 l 1
 322 51 284 23 284 23 c 2
 273 34 l 1
 316 77 l 1
 316 77 336 91 363 105 c 1
 363 324 l 1
 363 524 l 1
 466 627 l 1
 477 616 l 1
 417 556 l 1
 417 378 l 1
 466 427 l 1
 736 302 l 1
 747 291 l 1
 747 186 l 1
 584 23 l 1
 584 23 504 69 417 73 c 1
 417 -34 l 1
 224 -227 l 1
 213 -216 l 1
 213 -216 213 -215 212 -214 c 0
 194 -199 153 -177 74 -177 c 0
 28 -177 -4 -193 -23 -207 c 2xeae0
417 356 m 2
 417 125 l 1
 423 126 430 127 436 127 c 0
 527 127 616 77 616 77 c 2
 616 77 686 147 693 154 c 1
 693 253 l 1
 434 373 l 2
 434 373 419 358 417 356 c 2
EndSplineSet
EndChar
StartChar: eth
Encoding: 240 240 181
Width: 480
Flags: W
HStem: 407 20G<236 275.744> 407 20G<236 275.744> 523 54<154.093 202 224 256> 623 21G<149 173>
VStem: 93 54<104 264 577.5 622.999> 333 54<136 264 349 489.293>
AnchorPoint: "blwmark" 240 0 basechar 0
AnchorPoint: "abvmark" 300 700 basechar 0
LayerCount: 2
Back
SplineSet
300 610 m 1
 140 450 l 1025
360 280 m 1
 240 400 l 25
 120 280 l 1
 120 120 l 25
 240 0 l 25
 360 120 l 1
 360 450 l 10
 360 510 293 550 240 550 c 0
 187 550 120 549 120 600 c 27
 120 633 180 670 169 650 c 1049
EndSplineSet
Fore
SplineSet
333 264 m 1x3c
 224 373 l 1
 147 296 l 1
 147 136 l 2
 147 75 224 59 256 27 c 1
 333 104 l 1
 333 264 l 1x3c
333 349 m 1
 333 434 l 2
 333 455 324 475 311 490 c 0
 287 511 253 523 224 523 c 1
 124 423 l 1
 113 434 l 1
 202 523 l 1
 168 523 133 527 116 544 c 2
 104 555 l 2
 97 562 93 571 93 584 c 0
 93 597 103 611 113 621 c 2
 155 664 l 2
 156 664 l 2
 169 677 182 685 185 682 c 2
 197 671 l 2
 198 670 197 669 196 666 c 2
 153 623 l 1
 149 627 l 2
 148 623 147 620 147 616 c 0
 147 607 149 598 153 592 c 0
 176 576 220 577 256 577 c 1
 316 637 l 1
 327 626 l 1
 276 575 l 1
 302 570 329 557 348 538 c 2
 360 527 l 2
 376 511 387 490 387 466 c 2
 387 136 l 1
 224 -27 l 1
 93 104 l 1
 93 264 l 1
 256 427 l 1xbc
 333 349 l 1
EndSplineSet
EndChar
StartChar: divide
Encoding: 247 247 224
Width: 720
Flags: W
HStem: 273 54<136 584> 448 21G<344 384> 522 20G<336 376>
LayerCount: 2
Back
SplineSet
340 125 m 25
 380 85 l 1049
120 300 m 25
 600 300 l 1049
340 515 m 25
 380 475 l 1049
EndSplineSet
Fore
SplineSet
313 499 m 1
 356 542 l 1
 407 491 l 1
 364 448 l 1
 313 499 l 1
93 284 m 1
 136 327 l 1
 616 327 l 1
 627 316 l 1
 584 273 l 1
 104 273 l 1
 93 284 l 1
313 109 m 1
 356 152 l 1
 407 101 l 1
 364 58 l 1
 313 109 l 1
EndSplineSet
EndChar
StartChar: oslash
Encoding: 248 248 183
Width: 480
Flags: W
HStem: 417 20G<240 280 420 457> 417 20G<240 280 420 457>
VStem: 83 74<130.141 260> 323 74<140 269.859>
AnchorPoint: "blwmark" 240 0 basechar 0
AnchorPoint: "abvmark" 240 500 basechar 0
LayerCount: 2
Back
SplineSet
420 400 m 25
 60 0 l 1049
240 400 m 25
 120 280 l 25
 120 120 l 25
 240 0 l 25
 360 120 l 25
 360 280 l 25
 240 400 l 25
EndSplineSet
Fore
SplineSet
220 363 m 1x30
 157 300 l 1
 157 140 l 2
 157 136 157 133 158 130 c 2
 309 298 l 1
 286 326 242 341 220 363 c 1x30
83 260 m 1
 260 437 l 1
 352 345 l 1
 383 380 l 1
 440 437 l 1xb0
 457 420 l 1
 372 325 l 1
 397 300 l 1
 397 140 l 1
 220 -37 l 1
 128 55 l 1
 97 20 l 1
 40 -37 l 1
 23 -20 l 1
 108 75 l 1
 83 100 l 1
 83 260 l 1
171 102 m 1
 194 74 238 59 260 37 c 1
 323 100 l 1
 323 260 l 2
 323 264 323 267 322 270 c 2
 171 102 l 1
EndSplineSet
EndChar
StartChar: thorn
Encoding: 254 254 179
Width: 480
Flags: W
HStem: -187 21G<83 120> 417 20G<240 280> 417 20G<240 280>
VStem: 83 74<-130 2 94 300 334 570> 323 74<140 300>
AnchorPoint: "abvmark" 240 700 basechar 0
LayerCount: 2
Back
SplineSet
60 0 m 1
 60 0 115 60 150 60 c 0
 185 60 240 0 240 0 c 9
 360 120 l 1
 360 280 l 25
 240 400 l 1
 120 280 l 1049
95 625 m 25
 145 575 l 1049
120 600 m 1
 120 -150 l 1025
EndSplineSet
Fore
SplineSet
58 605 m 1xd8
 115 662 l 1
 140 637 l 1
 157 620 l 1
 182 595 l 1
 157 570 l 1
 157 334 l 1
 260 437 l 1
 397 300 l 1
 397 140 l 1
 220 -37 l 1
 205 -21 l 2
 193 -10 175 6 157 15 c 1
 157 -130 l 1
 100 -187 l 1
 83 -170 l 1
 83 2 l 1
 73 -6 64 -14 56 -21 c 2
 40 -37 l 1
 23 -20 l 1
 23 -20 26 -17 31 -12 c 2
 83 40 l 1
 83 260 l 1
 83 580 l 1
 58 605 l 1xd8
157 300 m 1
 157 94 l 1
 162 95 166 97 170 97 c 0
 197 97 236 60 252 44 c 2
 260 37 l 1
 323 100 l 1
 323 260 l 2
 323 316 250 333 220 363 c 1
 157 300 l 1
EndSplineSet
EndChar
StartChar: lslash
Encoding: 322 322 291
Width: 240
Flags: W
HStem: 437 20G<206 237>
VStem: 93 54<44 302 324 356 378 581>
LayerCount: 2
Back
SplineSet
210 430 m 25
 30 250 l 1049
100 40 m 25
 140 0 l 25
 180 40 l 1049
100 625 m 25
 140 585 l 1049
120 605 m 9
 120 20 l 1049
EndSplineSet
Fore
SplineSet
73 609 m 1
 116 652 l 1
 136 632 l 1
 147 621 l 1
 167 601 l 1
 147 581 l 1
 147 378 l 1
 226 457 l 1
 237 446 l 1
 147 356 l 1
 147 36 l 1
 156 27 l 1
 196 67 l 1
 207 56 l 1
 124 -27 l 1
 104 -7 l 1
 93 4 l 1
 73 24 l 1
 93 44 l 1
 93 302 l 1
 14 223 l 1
 3 234 l 1
 93 324 l 1
 93 589 l 1
 73 609 l 1
EndSplineSet
EndChar
StartChar: Eng
Encoding: 330 330 599
Width: 840
Flags: W
HStem: -187 74<126.534 474.64> -37 21G<23 55 296 330> 13 74<114.255 227.259> 513 21G<23 58> 538 74<194.815 228> 563 49<252.792 281> 563 33<88 107.353> 617 20G<320.5 338 450 508.4>
VStem: 228 24<86 539> 353 74<80 520> 653 74<-60 447>
AnchorPoint: "abvmark" 480 700 basechar 0
LayerCount: 2
Back
SplineSet
60 550 m 1
 60 550 101 600 149 600 c 3
 192 600 214 575 240 575 c 3
 274 575 300 600 301 600 c 1025
240 550 m 1
 240 75 l 1025
60 0 m 17
 60 0 97 50 180 50 c 3
 298 50 330 0 330 0 c 1
 390 60 l 1
 390 540 l 1
 450 600 l 1
 690 475 l 1
 690 -80 l 1
 570 -200 l 1
 570 -200 494 -150 300 -150 c 3
 79 -150 60 -200 60 -200 c 1033
EndSplineSet
Fore
SplineSet
40 -37 m 1xf3e0
 23 -20 l 1
 23 -20 26 -17 30 -13 c 2
 86 44 l 2
 100 58 137 87 200 87 c 0
 210 87 219 87 228 86 c 1
 228 539 l 2
 225 539 223 538 220 538 c 0xf9e0
 194 538 172 563 129 563 c 0
 101 563 75 546 58 531 c 2
 40 513 l 1
 23 530 l 1
 23 530 27 534 32 539 c 2
 88 596 l 2
 89 596 l 0xf3e0
 104 611 135 637 169 637 c 0
 212 637 234 612 260 612 c 0
 294 612 320 637 321 637 c 2
 338 620 l 1
 281 563 l 2xf5e0
 280 563 269 552 252 545 c 1
 252 83 l 1
 306 75 333 55 344 44 c 2
 350 37 l 1
 353 40 l 1
 353 520 l 1
 470 637 l 1
 710 512 l 1
 727 495 l 1
 727 -60 l 1
 550 -237 l 1
 550 -237 474 -187 280 -187 c 0
 132 -187 75 -209 53 -224 c 1
 40 -237 l 1
 23 -220 l 2
 23 -220 24 -218 28 -214 c 2
 84 -157 l 2
 97 -144 148 -113 320 -113 c 0
 514 -113 590 -163 590 -163 c 1
 653 -100 l 1
 653 447 l 1
 430 563 l 1
 427 560 l 1
 427 80 l 1
 310 -37 l 1
 296 -23 l 2
 277 -8 237 13 160 13 c 0
 107 13 73 -7 55 -22 c 2
 40 -37 l 1xf3e0
EndSplineSet
EndChar
StartChar: OE
Encoding: 338 338 116
Width: 1500
Flags: W
HStem: -27 54<330.027 534.768 960.027 1164.14> 273 54<1239 1303.48> 323 54<1163.4 1221> 465 21G<303 322 933 952> 507 20G<1106 1137> 523 54<1230.58 1306.57> 573 54<443.858 494 501 598.198 1094.11 1181.06>
VStem: 93 54<198.262 382.447> 322 16<70 473 516 580> 453 54<116 534> 723 58<187.369 424.191> 952 16<70 472 511 580> 1083 54<116 316.804 336 484>
AnchorPoint: "blwmark" 720 0 basechar 0
AnchorPoint: "abvmark" 780 700 basechar 0
LayerCount: 2
Back
SplineSet
1110 300 m 25
 1110 300 1166 350 1200 350 c 27
 1242 350 1218 300 1260 300 c 3
 1309 300 1350 350 1351 350 c 1049
960 550 m 1
 960 100 l 1025
1110 500 m 1
 1110 100 l 1025
960 600 m 1
 960 600 750 480 750 300 c 3
 750 134 864 0 1080 0 c 3
 1223 0 1381 150 1382 150 c 1025
960 492 m 1
 960 492 1074 600 1146 600 c 3
 1223 600 1190 550 1260 550 c 3
 1318 550 1350 600 1351 600 c 1025
330 550 m 1
 330 100 l 1025
482 550 m 1
 480 100 l 1025
330 600 m 1
 330 600 120 480 120 300 c 3
 120 134 234 0 450 0 c 3
 593 0 754 142 754 300 c 3
 754 512 643 600 510 600 c 3
 406 600 330 492 330 492 c 1025
EndSplineSet
Fore
SplineSet
357 616 m 1x93f8
 314 573 l 2
 314 573 276 551 232 512 c 1
 187 461 147 394 147 316 c 0
 147 237 173 164 223 111 c 1
 278 59 360 27 466 27 c 0
 531 27 600 57 656 104 c 1
 692 147 717 197 725 251 c 0
 724 262 723 273 723 284 c 0
 723 296 724 309 726 321 c 0
 720 409 693 472 654 515 c 1
 613 553 559 572 501 573 c 1
 509 566 l 1
 507 116 l 1
 464 73 l 1
 453 84 l 1
 455 534 l 1
 494 573 l 1
 443 573 398 546 367 520 c 0
 361 512 357 508 357 508 c 1
 338 489 l 1
 338 70 l 1
 322 70 l 1
 322 473 l 1
 314 465 l 1
 303 476 l 1
 303 476 310 486 322 499 c 1
 322 580 l 1
 338 580 l 1
 338 516 l 1
 376 554 l 2
 408 586 462 627 526 627 c 0
 589 627 647 607 691 563 c 2
 702 552 l 2
 732 522 755 481 768 428 c 1
 786 456 807 481 828 502 c 2
 871 544 l 2
 923 596 976 627 976 627 c 1
 987 616 l 1
 944 573 l 2
 944 573 906 551 862 512 c 1
 824 469 790 415 780 352 c 0
 781 340 781 329 781 316 c 0
 781 305 780 293 778 282 c 0
 784 216 810 157 853 111 c 0
 908 59 990 27 1096 27 c 0
 1239 27 1397 177 1398 177 c 2
 1409 166 l 1
 1366 123 l 2
 1365 123 1207 -27 1064 -27 c 0
 955 -27 872 8 816 63 c 2
 805 74 l 2
 776 103 754 139 740 178 c 1
 726 155 709 133 689 113 c 2
 647 70 l 2
 588 11 508 -27 434 -27 c 0
 325 -27 242 8 186 63 c 2
 175 74 l 2
 121 128 93 202 93 284 c 0
 93 374 146 450 198 502 c 2
 241 544 l 2
 293 596 346 627 346 627 c 1
 357 616 l 1x93f8
1126 527 m 1xb9f8
 1137 516 l 1
 1137 336 l 1
 1155 350 1191 377 1216 377 c 0xb9f8
 1226 377 1232 374 1236 370 c 2
 1247 358 l 2
 1254 351 1256 339 1261 330 c 0
 1264 328 1270 327 1276 327 c 0xd1f8
 1310 327 1340 351 1355 365 c 2
 1366 376 l 1
 1367 377 l 2xb1f8
 1378 366 l 1
 1375 362 l 2
 1374 361 1373 360 1372 359 c 2
 1371 359 l 1
 1329 316 l 2
 1315 302 1282 273 1244 273 c 0xd1f8
 1234 273 1229 276 1224 280 c 2
 1213 292 l 2
 1206 300 1204 310 1199 320 c 0
 1196 321 1190 323 1184 323 c 0
 1170 323 1153 315 1137 305 c 1
 1137 116 l 1
 1094 73 l 1
 1083 84 l 1
 1083 284 l 1
 1083 484 l 1
 1126 527 l 1xb9f8
952 580 m 1
 968 580 l 1
 968 511 l 1
 976 519 l 1
 976 519 1090 627 1162 627 c 0x93f8
 1192 627 1205 619 1214 610 c 2
 1225 599 l 2
 1229 595 1232 590 1235 587 c 0
 1243 581 1255 577 1276 577 c 0x95f8
 1303 577 1323 588 1338 599 c 2
 1366 627 l 2
 1367 627 l 2x93f8
 1378 616 l 2
 1376 613 1372 608 1365 600 c 2
 1364 600 l 2
 1322 558 l 2
 1307 543 1280 523 1244 523 c 0x95f8
 1219 523 1207 530 1199 538 c 2
 1187 550 l 2
 1183 554 1180 557 1177 561 c 0
 1168 568 1154 573 1130 573 c 0x93f8
 1078 573 1005 517 968 486 c 1
 968 70 l 1
 952 70 l 1
 952 472 l 1
 947 468 944 465 944 465 c 1
 933 476 l 1
 952 495 l 1
 952 580 l 1
EndSplineSet
EndChar
StartChar: hv
Encoding: 405 405 514
Width: 720
Flags: W
HStem: 417 20G<270 310> 417 20G<270 310 625.5 643>
VStem: 83 74<55 270 304 570> 323 74<140 328.03> 503 74<433.796 499.789> 563 74<140 350>
AnchorPoint: "blwmark" 360 0 basechar 0
AnchorPoint: "abvmark" 360 700 basechar 0
LayerCount: 2
Back
SplineSet
606 550 m 17
 604 550 540 521 540 472 c 16
 540 423 600 370 600 370 c 9
 600 120 l 1
 480 0 l 25
 360 120 l 1
 360 310 l 25
 270 400 l 1
 120 250 l 1049
95 50 m 25
 145 0 l 1049
95 625 m 25
 145 575 l 1049
120 600 m 9
 120 25 l 1049
EndSplineSet
Fore
SplineSet
58 605 m 1xb4
 115 662 l 1
 140 637 l 1
 157 620 l 1
 182 595 l 1
 157 570 l 1
 157 304 l 1
 290 437 l 1
 397 330 l 1
 397 140 l 1
 500 37 l 1
 563 100 l 1
 563 350 l 1xb4
 556 357 l 2
 540 373 503 414 503 452 c 0
 503 472 513 488 526 501 c 0
 527 502 l 2
 583 558 l 2
 602 576 625 587 626 587 c 2
 643 570 l 1
 586 513 l 2
 586 513 583 512 580 511 c 0
 578 505 577 499 577 492 c 0xb8
 577 459 603 424 621 405 c 2
 637 390 l 1
 637 140 l 1
 460 -37 l 1
 323 100 l 1
 323 290 l 2
 323 329 271 342 250 363 c 1
 157 270 l 1
 157 45 l 1
 182 20 l 1
 125 -37 l 1
 100 -12 l 1
 83 5 l 1
 58 30 l 1
 83 55 l 1
 83 230 l 1
 83 580 l 1
 58 605 l 1xb4
EndSplineSet
EndChar
StartChar: HV
Encoding: 502 502 513
Width: 1080
Flags: W
HStem: -27 21G<33 59 303 334 704 754> 23 54<111.09 277.656> 523 21G<33 63> 548 54<191.352 232> 573 54<106.919 207.259> 573 29<263.744 285>
VStem: 232 16<75 549> 363 54<76 524> 633 54<79 299> 813 54<425.03 490.219> 903 54<197 356.992>
AnchorPoint: "blwmark" 570 0 basechar 0
AnchorPoint: "abvmark" 600 700 basechar 0
LayerCount: 2
Back
SplineSet
60 550 m 1
 60 550 101 600 149 600 c 3
 192 600 214 575 240 575 c 3
 274 575 300 600 301 600 c 1025
240 550 m 1
 240 75 l 1025
450 225 m 1
 600 375 l 1
 660 315 l 1
 660 60 l 1
 750 0 l 1
 930 181.200195312 l 1
 930 378 l 1
 930 378 840 382.799804688 840 450 c 3
 840 516 960 600 960 600 c 1025
450 600 m 1
 390 540 l 1
 390 60 l 1
 330 0 l 1
 330 0 298 50 180 50 c 3
 97 50 60 0 60 0 c 1033
EndSplineSet
Fore
SplineSet
466 627 m 1xebe0
 477 616 l 1
 417 556 l 1
 417 76 l 1
 314 -27 l 1
 303 -16 l 1
 303 -16 303 -15 302 -14 c 0
 284 1 243 23 164 23 c 0
 110 23 76 2 59 -12 c 2
 44 -27 l 1
 33 -16 l 1
 33 -16 35 -12 39 -8 c 2
 82 34 l 2
 96 48 133 77 196 77 c 0
 209 77 221 76 232 75 c 1
 232 549 l 2
 230 549 227 548 224 548 c 0xf3e0
 198 548 176 573 133 573 c 0
 105 573 80 556 63 541 c 2
 44 523 l 1
 33 534 l 1
 33 534 37 539 42 544 c 2
 84 586 l 2
 99 601 131 627 165 627 c 0xebe0
 208 627 230 602 256 602 c 0xe7e0
 290 602 316 627 317 627 c 2xebe0
 328 616 l 1
 285 573 l 2xe7e0
 284 573 270 559 248 552 c 1
 248 73 l 1
 302 65 329 45 340 34 c 2
 346 27 l 1
 363 44 l 1
 363 524 l 1
 466 627 l 1xebe0
434 198 m 1
 423 209 l 1
 616 402 l 1
 687 331 l 1
 687 79 l 1
 765 27 l 1
 903 166 l 1
 903 352 l 1
 888 354 860 362 842 380 c 2
 831 391 l 2
 830 392 l 0
 820 402 813 415 813 434 c 0
 813 466 840 502 869 531 c 2
 912 573 l 2xe7e0
 943 604 976 627 976 627 c 1xebe0
 987 616 l 1
 944 573 l 2xe7e0
 944 573 927 561 904 541 c 1
 884 518 867 490 867 466 c 0
 867 450 871 438 879 428 c 0
 905 407 946 405 946 405 c 1
 957 394 l 1
 957 197 l 1
 777 16 l 1
 734 -27 l 1
 644 33 l 1
 633 44 l 1
 633 299 l 1
 584 348 l 1
 434 198 l 1
EndSplineSet
EndChar
StartChar: dotlessj
Encoding: 567 567 98
Width: 240
Flags: W
HStem: 417 20G<95 135> 417 20G<95 135>
VStem: 83 74<-70 345>
AnchorPoint: "abvmark" 120 500 basechar 0
LayerCount: 2
Back
SplineSet
145 350 m 25
 95 400 l 25
 45 350 l 1049
120 375 m 1
 120 -90 l 9
 70 -140 l 1049
EndSplineSet
Fore
SplineSet
157 395 m 1xa0
 182 370 l 1
 157 345 l 1
 157 -70 l 1
 50 -177 l 1
 33 -160 l 1
 83 -110 l 1
 83 355 l 1
 75 363 l 1
 25 313 l 1
 8 330 l 1
 115 437 l 1
 140 412 l 1
 157 395 l 1xa0
EndSplineSet
EndChar
StartChar: ascript
Encoding: 593 593 348
Width: 480
Flags: W
HStem: 325 54<280.272 325.651> 407 20G<236 267 356 387> 407 20G<236 267 356 387>
VStem: 93 54<74 264> 333 54<46 112 134 355 379.001 384>
AnchorPoint: "blwmark" 240 0 basechar 0
AnchorPoint: "abvmark" 270 500 basechar 0
LayerCount: 2
Back
SplineSet
450 60 m 25
 390 0 l 1
 360 30 l 1
 360 400 l 1
 360 400 334 352 300 352 c 0
 266 352 240 400 240 400 c 9
 120 280 l 1
 120 90 l 17
 210 0 l 1
 360 150 l 1049
EndSplineSet
Fore
SplineSet
333 355 m 1x98
 323 344 l 2
 313 334 299 325 284 325 c 0
 269 325 256 335 246 345 c 2
 235 356 l 2
 230 361 225 367 222 371 c 1
 147 296 l 1
 147 106 l 2
 147 62 203 50 226 27 c 1
 333 134 l 1
 333 355 l 1x98
333 112 m 1
 194 -27 l 1
 93 74 l 1
 93 264 l 1
 256 427 l 1
 267 416 l 2
 267 416 273 405 283 393 c 0
 292 385 304 379 316 379 c 0
 322 379 326 380 332 383 c 0
 332 384 333 384 333 384 c 1
 376 427 l 1xd8
 387 416 l 1
 387 46 l 1
 406 27 l 1
 466 87 l 1
 477 76 l 1
 374 -27 l 1
 333 14 l 1
 333 112 l 1
EndSplineSet
EndChar
StartChar: circumflex
Encoding: 710 710 100
Width: 480
Flags: W
HStem: 488 249
VStem: 203 74<644.416 680>
LayerCount: 2
Back
SplineSet
360 525 m 25
 360 525 240 600 240 700 c 1
 240 550 120 525 120 525 c 1025
EndSplineSet
Fore
SplineSet
203 679 m 0
 203 680 203 679 203 680 c 2
 260 737 l 1
 277 720 l 2
 277 719 277 720 277 719 c 0
 277 702 280 687 286 672 c 0
 296 644 314 619 333 599 c 0
 358 576 380 562 380 562 c 1
 397 545 l 1
 340 488 l 1
 340 488 313 505 285 533 c 2
 268 550 l 2
 256 562 244 576 233 592 c 1
 231 590 229 588 227 586 c 2
 171 529 l 2
 138 496 100 488 100 488 c 1
 83 505 l 1
 140 562 l 2
 140 562 157 565 178 578 c 0
 182 585 187 594 190 603 c 0
 198 624 203 648 203 679 c 0
EndSplineSet
EndChar
StartChar: caron
Encoding: 711 711 245
Width: 480
Flags: W
HStem: 498 229
VStem: 213 54<541 584.503>
LayerCount: 2
Back
SplineSet
120 700 m 25
 120 700 240 625 240 525 c 1
 240 675 360 700 360 700 c 1025
EndSplineSet
Fore
SplineSet
93 684 m 1
 136 727 l 1
 136 727 163 710 191 682 c 2
 202 670 l 2
 216 656 232 638 243 619 c 1
 249 628 256 637 263 644 c 2
 305 686 l 2
 338 719 376 727 376 727 c 1
 387 716 l 1
 344 673 l 2
 344 673 322 668 297 651 c 1
 280 625 267 590 267 541 c 1
 224 498 l 1
 213 509 l 1
 213 559 184 603 154 634 c 0
 128 659 104 673 104 673 c 1
 93 684 l 1
EndSplineSet
EndChar
StartChar: verticallinemod
Encoding: 712 712 887
Width: 480
Flags: W
HStem: 498 229
VStem: 213 54<541 684>
LayerCount: 2
Back
SplineSet
240 700 m 9
 240 525 l 1025
EndSplineSet
Fore
SplineSet
256 727 m 1
 267 716 l 1
 267 541 l 1
 224 498 l 1
 213 509 l 1
 213 684 l 1
 256 727 l 1
EndSplineSet
EndChar
StartChar: breve
Encoding: 728 728 265
Width: 480
Flags: W
HStem: 498 54<184.424 312.142> 607 20G<116 147 386 417>
VStem: 93 324
LayerCount: 2
Back
SplineSet
120 600 m 17
 120 600 137.55499552 525 270 525 c 3
 324 525 390 600 390 600 c 1033
EndSplineSet
Fore
SplineSet
136 627 m 1
 147 616 l 1
 147 616 150 603 163 588 c 0
 184 570 222 552 286 552 c 0
 320 552 358 581 382 603 c 2
 406 627 l 1
 417 616 l 1
 417 616 413 611 406 604 c 2
 363 562 l 2
 342 541 295 498 254 498 c 0
 183 498 146 520 126 540 c 2
 114 551 l 2
 97 568 93 584 93 584 c 1
 136 627 l 1
EndSplineSet
EndChar
StartChar: dotaccent
Encoding: 729 729 269
Width: 480
Flags: W
HStem: 533 94
VStem: 193 94
LayerCount: 2
Back
SplineSet
220 600 m 25
 260 560 l 1049
EndSplineSet
Fore
SplineSet
193 584 m 1
 236 627 l 1
 287 576 l 1
 244 533 l 1
 193 584 l 1
EndSplineSet
EndChar
StartChar: ring
Encoding: 730 730 184
Width: 480
Flags: W
HStem: 488 74<198.729 322.482> 688 74<157.518 281.271>
VStem: 83 74<599.796 687.479> 323 74<562.521 650.204>
LayerCount: 2
Back
SplineSet
120 650 m 0
 120 710 138 725 210 725 c 0
 300 725 360 675 360 600 c 0
 360 540 342 525 270 525 c 0
 180 525 120 575 120 650 c 0
EndSplineSet
Fore
SplineSet
83 630 m 0
 83 658 88 677 99 688 c 2
 155 744 l 2
 168 757 192 762 230 762 c 0
 280 762 320 746 346 720 c 2
 363 703 l 1
 364 703 l 2
 385 682 397 653 397 620 c 0
 397 592 392 573 381 562 c 2
 325 506 l 2
 312 493 288 488 250 488 c 0
 200 488 160 504 134 530 c 2
 117 547 l 1
 116 547 l 0
 95 568 83 597 83 630 c 0
157 670 m 0
 157 641 166 615 182 595 c 1
 208 574 246 562 290 562 c 0
 303 562 313 562 323 563 c 1
 323 567 323 574 323 580 c 0
 323 609 314 635 298 655 c 1
 272 676 234 688 190 688 c 0
 177 688 167 688 157 687 c 1
 157 683 157 676 157 670 c 0
EndSplineSet
EndChar
StartChar: ogonek
Encoding: 731 731 283
Width: 480
Flags: W
HStem: -227 254
VStem: 123 54<-128 -106>
LayerCount: 2
Back
SplineSet
240 0 m 25
 150 -90 l 1
 150 -150 l 9
 270 -200 l 25
 330 -140 l 1049
EndSplineSet
Fore
SplineSet
256 27 m 1
 267 16 l 1
 177 -74 l 1
 177 -128 l 1
 286 -173 l 2
 286 -173 301 -158 303 -156 c 2
 346 -113 l 1
 357 -124 l 1
 254 -227 l 1
 134 -177 l 1
 123 -166 l 1
 123 -106 l 1
 256 27 l 1
EndSplineSet
EndChar
StartChar: tilde
Encoding: 732 732 168
Width: 480
Flags: W
HStem: 498 21G<33 47> 523 54<208.582 369.383> 548 54<110.011 271.418> 607 20G<433 447>
LayerCount: 2
Back
SplineSet
60 525 m 17
 60 525 108 575 150 575 c 27
 221 575 259 550 330 550 c 27
 372 550 420 600 420 600 c 1033
EndSplineSet
Fore
SplineSet
44 498 m 1xb0
 33 509 l 1
 33 509 33 510 34 511 c 2
 77 553 l 2
 84 560 128 602 166 602 c 0xb0
 237 602 275 577 346 577 c 0
 383 577 423 615 433 625 c 2
 436 627 l 1
 447 616 l 2
 447 616 447 616 446 615 c 2
 446 614 l 2
 403 572 l 2
 396 565 352 523 314 523 c 0xd0
 243 523 205 548 134 548 c 0
 98 548 58 510 47 500 c 2
 44 498 l 1xb0
EndSplineSet
EndChar
StartChar: hungarumlaut
Encoding: 733 733 267
Width: 480
Flags: W
HStem: 488 249
VStem: 203 74<653.608 680> 383 74<653.608 680>
LayerCount: 2
Back
SplineSet
420 700 m 17
 420 600 270 525 270 525 c 1049
240 700 m 17
 240 600 90 525 90 525 c 1049
EndSplineSet
Fore
SplineSet
260 737 m 1
 277 720 l 1
 277 680 253 644 224 615 c 2
 168 559 l 2
 167 558 l 2
 123 515 70 488 70 488 c 2
 53 505 l 1
 110 562 l 2
 110 562 140 577 175 604 c 1
 191 626 203 652 203 680 c 1
 260 737 l 1
440 737 m 1
 457 720 l 1
 457 680 433 644 404 615 c 2
 348 559 l 2
 347 558 l 2
 303 515 250 488 250 488 c 2
 233 505 l 1
 290 562 l 2
 290 562 320 577 355 604 c 1
 371 626 383 652 383 680 c 1
 440 737 l 1
EndSplineSet
EndChar
StartChar: ringbelow
Encoding: 755 755 886
Width: 480
Flags: W
HStem: -312 74<198.729 322.482> -112 74<157.518 281.271>
VStem: 83 74<-200.204 -112.521> 323 74<-237.479 -149.796>
LayerCount: 2
Back
SplineSet
120 -150 m 0
 120 -90 138 -75 210 -75 c 0
 300 -75 360 -125 360 -200 c 0
 360 -260 342 -275 270 -275 c 0
 180 -275 120 -225 120 -150 c 0
EndSplineSet
Fore
SplineSet
83 -170 m 0
 83 -142 88 -123 99 -112 c 2
 155 -56 l 2
 168 -43 192 -38 230 -38 c 0
 280 -38 320 -54 346 -80 c 2
 363 -97 l 1
 364 -97 l 0
 385 -118 397 -147 397 -180 c 0
 397 -208 392 -227 381 -238 c 2
 325 -294 l 2
 312 -307 288 -312 250 -312 c 0
 200 -312 160 -296 134 -270 c 2
 117 -253 l 1
 116 -253 l 0
 95 -232 83 -203 83 -170 c 0
157 -130 m 0
 157 -159 166 -185 182 -205 c 1
 208 -226 246 -238 290 -238 c 0
 303 -238 313 -238 323 -237 c 1
 323 -233 323 -226 323 -220 c 0
 323 -191 314 -165 298 -145 c 1
 272 -124 234 -112 190 -112 c 0
 177 -112 167 -112 157 -113 c 1
 157 -117 157 -124 157 -130 c 0
EndSplineSet
EndChar
StartChar: hookcmb
Encoding: 777 777 381
Width: 0
Flags: W
HStem: 463 274 513 21G<-367 -330>
VStem: -397 314
AnchorPoint: "abvmark" -240 500 mark 0
LayerCount: 2
Back
SplineSet
-240 500 m 1
 -120 620 l 1
 -120 675 l 1
 -270 700 l 25
 -360 610 l 1
 -330 550 l 1049
EndSplineSet
Fore
SplineSet
-260 463 m 1xa0
 -277 480 l 1
 -157 600 l 1
 -157 641 l 1
 -290 663 l 2
 -290 663 -319 634 -323 630 c 1
 -293 570 l 1
 -350 513 l 1x60
 -367 530 l 1
 -397 590 l 1
 -250 737 l 1
 -100 712 l 1
 -83 695 l 1
 -83 640 l 1
 -260 463 l 1xa0
EndSplineSet
EndChar
StartChar: breveinvertedbelowcmb
Encoding: 815 815 537
Width: 0
VWidth: 400
Flags: W
HStem: -162 74<-278.055 -157.963>
AnchorPoint: "blwmark" -240 0 mark 0
LayerCount: 2
Back
SplineSet
-90 -200 m 17
 -90 -200 -107.5546875 -125 -240 -125 c 3
 -294 -125 -360 -200 -360 -200 c 1033
EndSplineSet
Fore
SplineSet
-110 -237 m 1
 -127 -220 l 1
 -127 -220 -130 -208 -140 -195 c 0
 -162 -178 -199 -162 -260 -162 c 0
 -294 -162 -332 -191 -356 -213 c 2
 -380 -237 l 1
 -397 -220 l 1
 -397 -220 -393 -215 -386 -208 c 2
 -329 -152 l 2
 -308 -131 -261 -88 -220 -88 c 0
 -149 -88 -111 -110 -91 -130 c 2
 -74 -147 l 2
 -57 -164 -53 -180 -53 -180 c 1
 -110 -237 l 1
EndSplineSet
EndChar
StartChar: tridotright
Encoding: 4347 4347 895
Width: 600
Flags: W
LayerCount: 2
Back
SplineSet
455 200 m 25
 505 150 l 1049
155 350 m 25
 205 300 l 1049
155 50 m 25
 205 0 l 1049
EndSplineSet
Fore
SplineSet
118 30 m 1
 175 87 l 1
 242 20 l 1
 185 -37 l 1
 118 30 l 1
118 330 m 1
 175 387 l 1
 242 320 l 1
 185 263 l 1
 118 330 l 1
418 180 m 1
 475 237 l 1
 542 170 l 1
 485 113 l 1
 418 180 l 1
EndSplineSet
EndChar
StartChar: figuredash
Encoding: 8210 8210 908
Width: 480
Flags: W
HStem: 173 54<136 344>
VStem: 93 294
LayerCount: 2
Back
SplineSet
120 200 m 25
 360 200 l 1049
EndSplineSet
Fore
SplineSet
93 184 m 1
 136 227 l 1
 376 227 l 1
 387 216 l 1
 344 173 l 1
 104 173 l 1
 93 184 l 1
EndSplineSet
EndChar
StartChar: endash
Encoding: 8211 8211 257
Width: 480
Flags: W
HStem: 163 74<80 400>
LayerCount: 2
Back
SplineSet
60 200 m 25
 420 200 l 1049
EndSplineSet
Fore
SplineSet
23 180 m 1
 80 237 l 1
 440 237 l 1
 457 220 l 1
 400 163 l 1
 40 163 l 1
 23 180 l 1
EndSplineSet
EndChar
StartChar: emdash
Encoding: 8212 8212 258
Width: 720
Flags: W
HStem: 163 74<80 640>
LayerCount: 2
Back
SplineSet
60 200 m 25
 660 200 l 1049
EndSplineSet
Fore
SplineSet
23 180 m 1
 80 237 l 1
 680 237 l 1
 697 220 l 1
 640 163 l 1
 40 163 l 1
 23 180 l 1
EndSplineSet
EndChar
StartChar: horizontalbar
Encoding: 8213 8213 909
Width: 840
Flags: W
HStem: 163 74<80 760>
LayerCount: 2
Back
SplineSet
60 200 m 25
 780 200 l 1049
EndSplineSet
Fore
SplineSet
23 180 m 1
 80 237 l 1
 800 237 l 1
 817 220 l 1
 760 163 l 1
 40 163 l 1
 23 180 l 1
EndSplineSet
EndChar
StartChar: quoteright
Encoding: 8217 8217 255
Width: 360
Flags: W
HStem: 388 249
VStem: 91 148
LayerCount: 2
Back
SplineSet
152.5 600 m 25
 202.5 550 l 1
 202.5 500 l 25
 127.5 425 l 1049
EndSplineSet
Fore
SplineSet
116 580 m 1
 172 637 l 1
 239 570 l 1
 239 520 l 1
 108 388 l 1
 91 405 l 1
 166 480 l 1
 166 530 l 1
 116 580 l 1
EndSplineSet
EndChar
StartChar: quotesinglbase
Encoding: 8218 8218 256
Width: 360
VWidth: 450
Flags: W
HStem: -127 194
VStem: 108 114
LayerCount: 2
Back
SplineSet
155 40 m 25
 195 0 l 1
 195 -40 l 25
 135 -100 l 1049
EndSplineSet
Fore
SplineSet
128 24 m 1
 171 67 l 1
 222 16 l 1
 222 -24 l 1
 119 -127 l 1
 108 -116 l 1
 168 -56 l 1
 168 -16 l 1
 128 24 l 1
EndSplineSet
EndChar
StartChar: quotereversed
Encoding: 8219 8219 928
Width: 360
Flags: W
HStem: 423 194
VStem: 138 114
LayerCount: 2
Back
SplineSet
205 590 m 25
 165 550 l 1
 165 510 l 25
 225 450 l 1049
EndSplineSet
Fore
SplineSet
189 617 m 1
 232 574 l 1
 192 534 l 1
 192 494 l 2
 192 494 207 479 209 477 c 2
 252 434 l 1
 241 423 l 1
 138 526 l 1
 138 566 l 1
 189 617 l 1
EndSplineSet
EndChar
StartChar: quotedblleft
Encoding: 8220 8220 251
Width: 600
Flags: W
HStem: 408 194
LayerCount: 2
Back
SplineSet
205 435 m 25
 165 475 l 1
 165 515 l 25
 225 575 l 1049
445 435 m 25
 405 475 l 1
 405 515 l 25
 465 575 l 1049
EndSplineSet
Fore
SplineSet
472 451 m 1
 429 408 l 1
 378 459 l 1
 378 499 l 1
 481 602 l 1
 492 591 l 1
 432 531 l 1
 432 491 l 1
 472 451 l 1
232 451 m 1
 189 408 l 1
 138 459 l 1
 138 499 l 1
 241 602 l 1
 252 591 l 1
 192 531 l 1
 192 491 l 1
 232 451 l 1
EndSplineSet
EndChar
StartChar: quotedblrev
Encoding: 8223 8223 929
Width: 600
Flags: W
HStem: 388 249
LayerCount: 2
Back
SplineSet
207.5 600 m 25
 157.5 550 l 1
 157.5 500 l 25
 232.5 425 l 1049
447.5 600 m 25
 397.5 550 l 1
 397.5 500 l 25
 472.5 425 l 1049
EndSplineSet
Fore
SplineSet
428 637 m 1
 484 580 l 1
 434 530 l 1
 434 480 l 2
 434 480 451 464 453 462 c 2
 509 405 l 1
 492 388 l 1
 361 520 l 1
 361 570 l 1
 428 637 l 1
188 637 m 1
 244 580 l 1
 194 530 l 1
 194 480 l 2
 194 480 211 464 213 462 c 2
 269 405 l 1
 252 388 l 1
 121 520 l 1
 121 570 l 1
 188 637 l 1
EndSplineSet
EndChar
StartChar: dagger
Encoding: 8224 8224 262
Width: 480
Flags: W
HStem: -177 21G<213 244> 407 20G<56 96 294.333 396> 407 20G<56 96 294.333 396> 607 20G<266 297>
VStem: 201 77<150.237 338 403 523.938> 213 54<-134 334.712>
LayerCount: 2
Back
SplineSet
60 400 m 25
 120 340 l 25
 360 400 l 25
 420 340 l 1049
210 540 m 1
 210 540 226 455 228 400 c 24
 238 186 240 -150 240 -150 c 1
 240 -150 244 186 252 400 c 24
 256 478 270 600 270 600 c 9
 210 540 l 1
EndSplineSet
Fore
SplineSet
183 524 m 1xd8
 286 627 l 1
 297 616 l 1
 297 616 283 494 279 416 c 0
 279 412 278 407 278 403 c 1xd8
 376 427 l 1
 447 356 l 1
 404 313 l 1
 344 373 l 1
 277 356 l 1
 275 289 273 216 272 147 c 0
 269 -3 267 -134 267 -134 c 1
 224 -177 l 1
 213 -166 l 1xd4
 213 -166 212 -35 209 115 c 0
 208 189 206 268 203 338 c 1
 104 313 l 1
 33 384 l 1
 76 427 l 1
 136 367 l 1
 201 383 l 2
 201 384 l 0
 199 439 183 524 183 524 c 1xd8
239 545 m 1
 240 550 240 555 240 559 c 2
 237 556 l 1
 237 556 238 552 239 545 c 1
EndSplineSet
EndChar
StartChar: daggerdbl
Encoding: 8225 8225 263
Width: 480
Flags: W
HStem: 417 20G<60 100 299.167 400> 417 20G<60 100 299.167 400> 617 20G<270 307>
VStem: 197 86<-116.89 -13 72 328 413 516.89>
LayerCount: 2
Back
SplineSet
60 60 m 25
 120 0 l 25
 360 60 l 25
 420 0 l 1049
60 400 m 25
 120 340 l 25
 360 400 l 25
 420 340 l 1049
210 540 m 1
 210 540 227 516 228 500 c 24
 238 383 240 200 240 200 c 1
 240 200 244 383 252 500 c 24
 254 539 270 600 270 600 c 9
 210 540 l 1
270 -140 m 1
 270 -140 253 -116 252 -100 c 24
 242 17 240 200 240 200 c 1
 240 200 236 17 228 -100 c 24
 226 -139 210 -200 210 -200 c 9
 270 -140 l 1
EndSplineSet
Fore
SplineSet
307 -120 m 1xb0
 190 -237 l 1
 173 -220 l 1
 173 -220 189 -159 191 -120 c 0
 193 -88 195 -50 197 -13 c 1
 100 -37 l 1
 23 40 l 1
 80 97 l 1
 140 37 l 1
 199 52 l 1
 202 123 203 180 203 180 c 1
 203 180 203 248 200 328 c 1
 100 303 l 1
 23 380 l 1
 80 437 l 1
 140 377 l 1
 197 391 l 1
 195 422 193 453 191 480 c 0
 190 496 173 520 173 520 c 1
 290 637 l 1
 307 620 l 1
 307 620 291 559 289 520 c 0
 287 488 285 450 283 413 c 1
 380 437 l 1
 457 360 l 1
 400 303 l 1
 340 363 l 1
 281 348 l 1
 278 277 277 220 277 220 c 2
 277 220 277 152 280 72 c 1
 380 97 l 1
 457 20 l 1
 400 -37 l 1
 340 23 l 1
 283 9 l 1
 285 -22 287 -53 289 -80 c 0
 290 -96 307 -120 307 -120 c 1xb0
EndSplineSet
EndChar
StartChar: bullet
Encoding: 8226 8226 259
Width: 360
Flags: W
HStem: 208 164
VStem: 98 164
LayerCount: 2
Back
SplineSet
160 335 m 25
 225 270 l 25
 200 245 l 25
 135 310 l 25
 160 335 l 25
EndSplineSet
Fore
SplineSet
180 372 m 1
 262 290 l 1
 180 208 l 1
 98 290 l 1
 180 372 l 1
EndSplineSet
EndChar
StartChar: perthousand
Encoding: 8240 8240 244
Width: 1260
Flags: W
HStem: -177 21G<33 64 564 604 984 1024>
VStem: 93 54<454 564> 333 54<486 596> 453 54<-46 64> 693 54<-14 96> 873 54<-46 64> 1113 54<-14 96>
LayerCount: 2
Back
SplineSet
1020 200 m 25
 900 80 l 25
 900 -30 l 25
 1020 -150 l 25
 1140 -30 l 25
 1140 80 l 25
 1020 200 l 25
600 200 m 25
 480 80 l 25
 480 -30 l 25
 600 -150 l 25
 720 -30 l 25
 720 80 l 25
 600 200 l 25
60 -150 m 25
 780 700 l 1049
240 700 m 25
 120 580 l 25
 120 470 l 25
 240 350 l 25
 360 470 l 25
 360 580 l 25
 240 700 l 25
EndSplineSet
Fore
SplineSet
224 673 m 1
 147 596 l 1
 147 486 l 2
 147 425 224 409 256 377 c 1
 333 454 l 1
 333 564 l 2
 333 625 256 641 224 673 c 1
93 564 m 1
 256 727 l 1
 387 596 l 1
 387 486 l 1
 224 323 l 1
 93 454 l 1
 93 564 l 1
44 -177 m 1
 33 -166 l 1
 753 684 l 1
 796 727 l 1
 807 716 l 1
 87 -134 l 1
 44 -177 l 1
584 173 m 1
 507 96 l 1
 507 -14 l 2
 507 -75 584 -91 616 -123 c 1
 693 -46 l 1
 693 64 l 2
 693 125 616 141 584 173 c 1
453 64 m 1
 616 227 l 1
 747 96 l 1
 747 -14 l 1
 584 -177 l 1
 453 -46 l 1
 453 64 l 1
1004 173 m 1
 927 96 l 1
 927 -14 l 2
 927 -75 1004 -91 1036 -123 c 1
 1113 -46 l 1
 1113 64 l 2
 1113 125 1036 141 1004 173 c 1
873 64 m 1
 1036 227 l 1
 1167 96 l 1
 1167 -14 l 1
 1004 -177 l 1
 873 -46 l 1
 873 64 l 1
EndSplineSet
EndChar
StartChar: minute
Encoding: 8242 8242 926
Width: 360
Flags: W
HStem: 498 229
VStem: 213 54<640.795 684>
LayerCount: 2
Back
SplineSet
240 700 m 17
 240 600 120 525 120 525 c 1041
EndSplineSet
Fore
SplineSet
256 727 m 1
 267 716 l 1
 267 663 234 617 202 586 c 2
 160 543 l 2
 132 515 104 498 104 498 c 1
 93 509 l 1
 136 552 l 2
 136 552 149 560 168 576 c 1
 192 605 213 642 213 684 c 1
 256 727 l 1
EndSplineSet
EndChar
StartChar: guilsinglright
Encoding: 8250 8250 243
Width: 360
Flags: W
HStem: 23 329
VStem: 33 294
LayerCount: 2
Back
SplineSet
90 325 m 17
 90 325 116.080078125 295.744140624 150 275 c 0
 264 207 300 200 300 200 c 1
 300 200 223 174 120 100 c 0
 94.849609375 81.732421875 60 50 60 50 c 1033
EndSplineSet
Fore
SplineSet
106 352 m 1
 117 341 l 1
 117 341 118 339 119 338 c 0
 130 328 147 314 166 302 c 0
 246 254 287 236 305 230 c 0
 312 227 316 227 316 227 c 1
 327 216 l 1
 284 173 l 1
 284 173 281 172 275 170 c 0
 252 161 186 132 104 73 c 0
 79 55 44 23 44 23 c 1
 33 34 l 1
 76 77 l 1
 76 77 111 109 136 127 c 0
 175 155 209 176 238 191 c 1
 215 202 181 220 134 248 c 0
 111 262 92 280 82 290 c 2
 71 301 l 2
 63 309 l 1
 106 352 l 1
EndSplineSet
EndChar
StartChar: refmark
Encoding: 8251 8251 953
Width: 720
Flags: W
HStem: 448 21G<374 414> 522 5G<116 160 366 406 592 627>
LayerCount: 2
Back
SplineSet
600 500 m 25
 120 100 l 1049
120 500 m 25
 600 100 l 1049
580 340 m 25
 620 300 l 1049
310 125 m 25
 350 85 l 1049
370 515 m 25
 410 475 l 1049
100 300 m 25
 140 260 l 1049
EndSplineSet
Fore
SplineSet
73 284 m 1
 116 327 l 1
 167 276 l 1
 124 233 l 1
 73 284 l 1
343 499 m 1
 386 542 l 1
 437 491 l 1
 394 448 l 1
 343 499 l 1
283 109 m 1
 326 152 l 1
 377 101 l 1
 334 58 l 1
 283 109 l 1
553 324 m 1
 596 367 l 1
 647 316 l 1
 604 273 l 1
 553 324 l 1
93 484 m 1
 136 527 l 1
 376 327 l 1
 616 527 l 1
 627 516 l 1
 584 473 l 1
 392 313 l 1
 616 127 l 1
 627 116 l 1
 584 73 l 1
 344 273 l 1
 104 73 l 1
 93 84 l 1
 136 127 l 1
 328 287 l 1
 104 473 l 1
 93 484 l 1
EndSplineSet
EndChar
StartChar: bracketquillleft
Encoding: 8261 8261 916
Width: 360
Flags: W
HStem: -177 54<147 284> 273 54<147 284> 673 54<147 284>
VStem: 93 54<-123 273 327 673>
LayerCount: 2
Back
SplineSet
300 300 m 25
 120 300 l 1049
300 700 m 25
 120 700 l 25
 120 -150 l 25
 300 -150 l 1033
EndSplineSet
Fore
SplineSet
327 716 m 1
 284 673 l 1
 147 673 l 1
 147 327 l 1
 316 327 l 1
 327 316 l 1
 284 273 l 1
 147 273 l 1
 147 -123 l 1
 316 -123 l 1
 327 -134 l 1
 284 -177 l 1
 104 -177 l 1
 93 -166 l 1
 93 284 l 1
 93 684 l 1
 136 727 l 1
 316 727 l 1
 327 716 l 1
EndSplineSet
EndChar
StartChar: bracketquillright
Encoding: 8262 8262 917
Width: 360
Flags: W
HStem: -177 54<76 213> 273 54<76 213> 673 54<76 213>
VStem: 213 54<-123 273 327 673>
LayerCount: 2
Back
SplineSet
60 300 m 25
 240 300 l 1049
60 700 m 25
 240 700 l 25
 240 -150 l 25
 60 -150 l 1033
EndSplineSet
Fore
SplineSet
33 684 m 1
 76 727 l 1
 256 727 l 1
 267 716 l 1
 267 316 l 1
 267 -134 l 1
 224 -177 l 1
 44 -177 l 1
 33 -166 l 1
 76 -123 l 1
 213 -123 l 1
 213 273 l 1
 44 273 l 1
 33 284 l 1
 76 327 l 1
 213 327 l 1
 213 673 l 1
 44 673 l 1
 33 684 l 1
EndSplineSet
EndChar
StartChar: et
Encoding: 8266 8266 960
Width: 480
Flags: W
HStem: -187 21G<143 180> 313 74<169.308 338.188> 417 20G<90 182 380 457> 417 20G<90 182 380 457>
VStem: 143 74<-130 21.5015>
LayerCount: 2
Back
SplineSet
90 400 m 1
 90 400 164 350 270 350 c 3
 335 350 420 400 420 400 c 1
 420 400 180 176 180 -100 c 3
 180 -68 180 -150 180 -150 c 1025
EndSplineSet
Fore
SplineSet
217 -73 m 2xe8
 217 -130 l 1
 160 -187 l 1
 143 -170 l 1
 143 -112 l 0
 146 86 272 256 340 334 c 1
 313 323 279 313 250 313 c 0
 144 313 70 363 70 363 c 1
 53 380 l 1
 110 437 l 1
 110 437 184 387 290 387 c 0
 355 387 440 437 440 437 c 1
 457 420 l 1
 441 404 l 2
 388 349 220 157 217 -73 c 2xe8
EndSplineSet
EndChar
StartChar: paragraphrev
Encoding: 8267 8267 951
Width: 840
Flags: W
HStem: -177 54<141.529 232 248 356.035> 73 54<487.632 603.032> 523 21G<33 64> 548 54<191.352 232 454.067 560.091> 573 54<106.497 207.259 277.169 285 466 473.743 543.741 627.632> 573 29<263.744 285 530.206 570.156>
VStem: 232 16<-123 549> 363 54<-59 524> 664 54<210.011 527.453>
LayerCount: 2
Back
SplineSet
60 550 m 1
 60 550 99 600 149 600 c 3
 192 600 214 575 240 575 c 3
 274 575 300 600 301 600 c 1025
240 550 m 1
 240 -125 l 1025
480 -200 m 1
 480 -200 328 -150 210 -150 c 3
 127 -150 90 -200 90 -200 c 1025
451 150 m 17
 451 150 462.861328124 100 541 100 c 3
 643 100 691 177.791015624 691 350 c 3
 691 469 684 600 602 600 c 3
 559 600 537 575 511 575 c 3
 477 575 451 600 450 600 c 1
 390 540 l 1
 390 -75 l 1025
EndSplineSet
Fore
SplineSet
467 177 m 1xeb80
 478 166 l 1
 478 166 480 157 488 147 c 0
 502 136 523 127 557 127 c 0
 584 127 608 133 627 144 c 1
 652 185 664 247 664 334 c 0
 664 422 660 517 625 560 c 0
 614 568 601 573 586 573 c 0xeb80
 543 573 521 548 495 548 c 0xf380
 461 548 435 573 434 573 c 0xe780
 434 573 419 558 417 556 c 2
 417 -59 l 1
 374 -102 l 1
 363 -91 l 1
 363 524 l 1
 466 627 l 2xeb80
 467 627 493 602 527 602 c 0xf380
 553 602 575 627 618 627 c 0
 636 627 650 621 662 609 c 2
 674 597 l 2
 714 557 718 458 718 366 c 0
 718 259 699 188 661 150 c 2
 619 108 l 2
 595 84 564 73 525 73 c 0
 486 73 464 85 451 98 c 2
 451 99 l 1
 439 110 l 2
 427 122 424 134 424 134 c 1
 467 177 l 1xeb80
507 -184 m 1
 464 -227 l 1
 464 -227 312 -177 194 -177 c 0
 140 -177 106 -198 89 -212 c 2
 74 -227 l 1
 63 -216 l 1
 63 -216 65 -212 69 -208 c 2
 112 -166 l 2
 126 -152 163 -123 226 -123 c 0
 228 -123 230 -123 232 -123 c 2
 232 549 l 2
 230 549 227 548 224 548 c 0xf380
 198 548 176 573 133 573 c 0
 106 573 83 559 66 545 c 2
 44 523 l 1
 33 534 l 1
 33 534 37 540 43 546 c 2
 86 588 l 2
 101 603 131 627 165 627 c 0xeb80
 208 627 230 602 256 602 c 0xe780
 290 602 316 627 317 627 c 2
 328 616 l 1
 285 573 l 2
 284 573 270 559 248 552 c 1
 248 -124 l 1
 362 -129 496 -173 496 -173 c 2
 507 -184 l 1
EndSplineSet
EndChar
StartChar: lozengedot
Encoding: 8280 8280 899
Width: 720
Flags: W
LayerCount: 2
Back
SplineSet
520 195 m 25
 560 155 l 1049
340 40 m 25
 380 0 l 1049
340 350 m 25
 380 310 l 1049
160 195 m 25
 200 155 l 1049
EndSplineSet
Fore
SplineSet
133 179 m 1
 176 222 l 1
 227 171 l 1
 184 128 l 1
 133 179 l 1
313 334 m 1
 356 377 l 1
 407 326 l 1
 364 283 l 1
 313 334 l 1
313 24 m 1
 356 67 l 1
 407 16 l 1
 364 -27 l 1
 313 24 l 1
493 179 m 1
 536 222 l 1
 587 171 l 1
 544 128 l 1
 493 179 l 1
EndSplineSet
EndChar
StartChar: dotcross
Encoding: 8284 8284 954
Width: 720
Flags: W
HStem: 273 54<76 333 387 644> 452 20G<176 216 356 387 496 536>
VStem: 333 54<66 273 327 534>
LayerCount: 2
Back
SplineSet
360 550 m 25
 360 50 l 1049
60 300 m 25
 660 300 l 1049
500 445 m 25
 540 405 l 1049
500 195 m 25
 540 155 l 1049
180 445 m 25
 220 405 l 1049
180 195 m 25
 220 155 l 1049
EndSplineSet
Fore
SplineSet
153 179 m 1
 196 222 l 1
 247 171 l 1
 204 128 l 1
 153 179 l 1
153 429 m 1
 196 472 l 1
 247 421 l 1
 204 378 l 1
 153 429 l 1
473 179 m 1
 516 222 l 1
 567 171 l 1
 524 128 l 1
 473 179 l 1
473 429 m 1
 516 472 l 1
 567 421 l 1
 524 378 l 1
 473 429 l 1
33 284 m 1
 76 327 l 1
 333 327 l 1
 333 534 l 1
 376 577 l 1
 387 566 l 1
 387 327 l 1
 676 327 l 1
 687 316 l 1
 644 273 l 1
 387 273 l 1
 387 66 l 1
 344 23 l 1
 333 34 l 1
 333 273 l 1
 44 273 l 1
 33 284 l 1
EndSplineSet
EndChar
StartChar: therefore
Encoding: 8756 8756 896
Width: 720
Flags: W
LayerCount: 2
Back
SplineSet
515 50 m 25
 565 0 l 1049
335 350 m 25
 385 300 l 1049
155 50 m 25
 205 0 l 1049
EndSplineSet
Fore
SplineSet
118 30 m 1
 175 87 l 1
 242 20 l 1
 185 -37 l 1
 118 30 l 1
298 330 m 1
 355 387 l 1
 422 320 l 1
 365 263 l 1
 298 330 l 1
478 30 m 1
 535 87 l 1
 602 20 l 1
 545 -37 l 1
 478 30 l 1
EndSplineSet
EndChar
StartChar: because
Encoding: 8757 8757 897
Width: 720
Flags: W
LayerCount: 2
Back
SplineSet
520 350 m 25
 560 310 l 1049
160 350 m 25
 200 310 l 1049
340 40 m 25
 380 0 l 1049
EndSplineSet
Fore
SplineSet
313 24 m 1
 356 67 l 1
 407 16 l 1
 364 -27 l 1
 313 24 l 1
133 334 m 1
 176 377 l 1
 227 326 l 1
 184 283 l 1
 133 334 l 1
493 334 m 1
 536 377 l 1
 587 326 l 1
 544 283 l 1
 493 334 l 1
EndSplineSet
EndChar
StartChar: bracketangleleft
Encoding: 9296 9296 930
Width: 480
Flags: W
HStem: -187 21G<383 420>
LayerCount: 2
Back
SplineSet
390 675 m 17
 390 675 293.433426836 553.835692694 270 525 c 0
 216 459 60 250 60 250 c 1
 60 250 245 60 300 0 c 0
 319.832255214 -22.129028541 420 -150 420 -150 c 1033
EndSplineSet
Fore
SplineSet
410 712 m 1
 427 695 l 1
 427 695 330 574 307 545 c 0
 253 479 97 270 97 270 c 1
 97 270 282 80 337 20 c 0
 357 -2 457 -130 457 -130 c 1
 400 -187 l 1
 383 -170 l 1
 383 -170 283 -42 263 -20 c 0
 208 40 23 230 23 230 c 1
 23 230 179 439 233 505 c 0
 256 534 353 655 353 655 c 1
 410 712 l 1
EndSplineSet
EndChar
StartChar: FleuronCenter
Encoding: 10086 10086 955
Width: 840
Flags: W
HStem: 457 20G<234.5 268 494.5 514> 548 54<567 734> 548 21G<33 68> 557 55<400.067 507 567 692.667> 573 54<106 264.312>
LayerCount: 2
Back
SplineSet
480 700 m 1
 480 700 540 644 540 600 c 27
 540 521 420 425 420 425 c 1025
60 575 m 25
 90 600 l 25
 750 575 l 25
 780 600 l 1049
660 100 m 1
 660 100 551 0 420 0 c 3
 275 0 90 141 90 300 c 27
 90 376 149 450 240 450 c 27
 314 450 360 325 360 325 c 1
 360 325 406 450 480 450 c 27
 546 450 600 399 600 350 c 3
 600 277.78125 523.607421876 243.705078124 450 200 c 8
 398 169 390 128 390 75 c 19
 390 47.953970399 450 25 450 25 c 1025
EndSplineSet
Fore
SplineSet
687 116 m 1xc0
 644 73 l 1
 644 73 535 -27 404 -27 c 0
 396 -27 390 -27 382 -26 c 0
 307 -19 224 23 163 84 c 2
 152 95 l 2
 151 96 l 0
 99 148 63 214 63 284 c 0
 63 324 80 364 108 392 c 2
 150 434 l 2
 176 460 213 477 256 477 c 0
 280 477 300 464 317 447 c 2
 328 436 l 1
 329 436 l 2
 329 435 l 0
 346 418 360 396 370 378 c 1
 377 388 384 397 392 405 c 2
 395 408 l 1
 393 409 l 1
 436 452 l 2
 436 452 442 457 452 466 c 0
 475 492 499 525 509 557 c 1x90
 74 573 l 1
 44 548 l 1xa8
 33 559 l 1
 76 602 l 1xc0
 106 627 l 1x88
 507 612 l 1x90
 496 638 473 663 461 676 c 2
 453 684 l 1
 496 727 l 1
 496 727 497 725 499 723 c 2
 511 712 l 2
 524 699 567 653 567 616 c 0
 567 614 567 611 567 609 c 2
 766 602 l 1xc0
 796 627 l 1
 807 616 l 1
 764 573 l 1x88
 734 548 l 1
 548 555 l 1
 531 525 507 497 486 476 c 1
 489 476 493 477 496 477 c 0
 532 477 565 461 587 439 c 2
 598 428 l 2
 616 410 627 388 627 366 c 0
 627 337 614 313 594 293 c 2
 552 251 l 2
 523 222 478 199 434 173 c 0
 433 173 432 172 432 172 c 0
 419 148 417 122 417 91 c 0
 417 86 420 81 423 76 c 0
 430 70 438 65 446 61 c 0
 457 55 466 52 466 52 c 1
 477 41 l 1
 465 28 l 1
 583 41 676 127 676 127 c 1
 687 116 l 1xc0
EndSplineSet
EndChar
StartChar: FleuronRight
Encoding: 10087 10087 956
Width: 960
Flags: W
HStem: 517 20G<180 224>
LayerCount: 2
Back
SplineSet
60 150 m 25
 90 200 l 25
 390 300 l 1049
210 0 m 25
 180 25 l 25
 210 475 l 25
 180 500 l 1049
900 350 m 1
 900 350 746 25 540 25 c 27
 449 25 360 74 360 150 c 27
 360 212 510 250 510 250 c 1
 510 250 360 288 360 350 c 27
 360 405 421 450 480 450 c 3
 568 450 607 386 660 325 c 8
 695 285 691 225 750 225 c 3
 800 225 870 325 870 325 c 1025
EndSplineSet
Fore
SplineSet
920 387 m 1
 937 370 l 1
 937 370 933 362 926 348 c 0
 904 308 853 219 782 148 c 2
 725 91 l 2
 668 34 597 -12 520 -12 c 0
 462 -12 406 8 372 42 c 2
 355 59 l 1
 354 59 l 2
 335 78 323 102 323 130 c 0
 323 143 330 156 341 167 c 2
 398 223 l 2
 398 224 l 2
 404 230 411 235 417 239 c 1
 401 246 385 255 372 265 c 1
 370 263 l 1
 228 216 l 1
 217 47 l 1
 230 37 l 1
 247 20 l 1
 190 -37 l 1
 160 -12 l 1
 143 5 l 1
 156 192 l 1
 98 173 l 1
 97 170 l 1
 40 113 l 1
 23 130 l 1
 53 180 l 1
 110 237 l 1
 160 253 l 1
 173 453 l 1
 160 463 l 1
 143 480 l 1
 200 537 l 1
 230 512 l 1
 247 495 l 1
 232 278 l 1
 329 310 l 1
 325 316 323 323 323 330 c 0
 323 353 334 375 351 392 c 2
 408 448 l 2
 408 449 l 2
 432 472 466 487 500 487 c 0
 552 487 586 465 617 434 c 2
 634 417 l 1
 635 416 l 2
 656 395 675 370 697 345 c 0
 718 321 725 291 739 270 c 0
 747 265 757 262 770 262 c 0
 784 262 801 271 815 281 c 1
 827 295 833 305 833 305 c 2
 890 362 l 1
 892 359 l 1
 920 387 l 1
EndSplineSet
EndChar
StartChar: bracketwhiteleft
Encoding: 10214 10214 918
Width: 480
Flags: W
HStem: -177 54<147 262 278 404> 673 54<147 262 278 404>
VStem: 93 54<-123 673> 262 16<-123 673>
LayerCount: 2
Back
SplineSet
270 650 m 25
 270 -100 l 1049
420 700 m 25
 120 700 l 25
 120 -150 l 25
 420 -150 l 1033
EndSplineSet
Fore
SplineSet
447 716 m 1
 404 673 l 1
 278 673 l 1
 278 -123 l 1
 436 -123 l 1
 447 -134 l 1
 404 -177 l 1
 104 -177 l 1
 93 -166 l 1
 93 684 l 1
 136 727 l 1
 436 727 l 1
 447 716 l 1
262 673 m 1
 147 673 l 1
 147 -123 l 1
 262 -123 l 1
 262 673 l 1
EndSplineSet
EndChar
StartChar: bracketwhiteright
Encoding: 10215 10215 919
Width: 480
Flags: W
HStem: -187 74<80 198 222 323> 663 74<80 198 222 323>
VStem: 198 24<-113 663> 323 74<-113 663>
LayerCount: 2
Back
SplineSet
210 650 m 25
 210 -100 l 1049
60 700 m 25
 360 700 l 25
 360 -150 l 25
 60 -150 l 1033
EndSplineSet
Fore
SplineSet
23 680 m 1
 80 737 l 1
 380 737 l 1
 397 720 l 1
 397 -130 l 1
 340 -187 l 1
 40 -187 l 1
 23 -170 l 1
 80 -113 l 1
 198 -113 l 1
 198 663 l 1
 40 663 l 1
 23 680 l 1
222 -113 m 1
 323 -113 l 1
 323 663 l 1
 222 663 l 1
 222 -113 l 1
EndSplineSet
EndChar
StartChar: ruslst
Encoding: 11789 11789 903
Width: 360
Flags: W
HStem: 413 324
VStem: 23 314
LayerCount: 2
Back
SplineSet
60 450 m 25
 300 700 l 1049
EndSplineSet
Fore
SplineSet
40 413 m 1
 23 430 l 1
 263 680 l 1
 320 737 l 1
 337 720 l 1
 97 470 l 1
 40 413 l 1
EndSplineSet
EndChar
StartChar: ramus
Encoding: 11801 11801 911
Width: 720
Flags: W
HStem: -177 21G<93 124> 513 20G<259 290> 595 20G<682 713>
VStem: 63 54<139.092 334> 236 54<335.984 490> 405 54<534.222 646>
LayerCount: 2
Back
SplineSet
432 662 m 1
 432 662 432 625 432 600 c 27
 432 551 474 475 474 475 c 1
 474 475 582 516 642 550 c 24
 666 564 686 588 686 588 c 1025
90 350 m 1
 90 350 90 274 90 225 c 27
 90 127 185 -25 185 -25 c 1
 185 -25 391 57 510 125 c 24
 558 153 600 200 600 200 c 1025
263 506 m 1
 263 506 263 449 263 412 c 27
 263 339 330 225 330 225 c 1
 330 225 488 287 577 338 c 24
 613 359 646 394 646 394 c 1025
120 -150 m 25
 600 700 l 1049
EndSplineSet
Fore
SplineSet
104 -177 m 1
 93 -166 l 1
 162 -44 l 1
 158 -41 l 1
 158 -41 63 111 63 209 c 2
 63 334 l 1
 106 377 l 1
 117 366 l 1
 117 241 l 2
 117 168 169 65 196 17 c 1
 304 208 l 1
 303 209 l 1
 303 209 236 323 236 396 c 2
 236 490 l 1
 279 533 l 1
 290 522 l 1
 290 428 l 2
 290 379 320 311 340 272 c 1
 447 460 l 1
 442 469 405 538 405 584 c 2
 405 646 l 1
 448 689 l 1
 459 678 l 1
 459 616 l 2
 459 589 472 552 484 526 c 1
 573 684 l 1
 616 727 l 1
 627 716 l 1
 511 510 l 1
 546 524 615 552 658 577 c 0
 666 582 675 588 680 593 c 2
 702 615 l 1
 713 604 l 2
 713 604 710 600 703 593 c 2
 702 592 l 2
 660 550 l 2
 652 542 639 531 626 523 c 0
 583 499 516 471 481 457 c 1
 371 262 l 1
 419 282 526 326 593 365 c 0
 618 380 642 401 653 412 c 2
 662 421 l 1
 673 410 l 1
 673 410 672 408 669 405 c 2
 626 363 l 2
 616 353 590 328 561 311 c 0
 494 273 390 229 341 209 c 1
 231 14 l 1
 293 39 435 100 526 152 c 0
 550 166 574 186 589 200 c 2
 616 227 l 1
 627 216 l 2
 627 216 623 211 615 203 c 2
 614 202 l 2
 572 160 l 2
 556 144 526 117 494 98 c 0
 403 46 263 -13 201 -39 c 1
 147 -134 l 1
 104 -177 l 1
EndSplineSet
EndChar
StartChar: rlslst
Encoding: 11804 11804 904
Width: 360
Flags: W
HStem: -177 304
VStem: 33 294
LayerCount: 2
Back
SplineSet
60 100 m 25
 300 -150 l 1049
EndSplineSet
Fore
SplineSet
76 127 m 1
 87 116 l 1
 327 -134 l 1
 284 -177 l 1
 273 -166 l 1
 33 84 l 1
 76 127 l 1
EndSplineSet
EndChar
StartChar: llslst
Encoding: 11805 11805 905
Width: 360
Flags: W
HStem: -187 324
VStem: 23 314
LayerCount: 2
Back
SplineSet
60 -150 m 25
 300 100 l 1049
EndSplineSet
Fore
SplineSet
40 -187 m 1
 23 -170 l 1
 263 80 l 1
 320 137 l 1
 337 120 l 1
 97 -130 l 1
 40 -187 l 1
EndSplineSet
EndChar
StartChar: barquillleft
Encoding: 11808 11808 920
Width: 360
Flags: W
HStem: -187 21G<83 120> 263 74<157 280>
VStem: 83 74<-130 263 337 680>
LayerCount: 2
Back
SplineSet
300 300 m 25
 120 300 l 1049
120 700 m 25
 120 -150 l 1049
EndSplineSet
Fore
SplineSet
140 737 m 1
 157 720 l 1
 157 337 l 1
 320 337 l 1
 337 320 l 1
 280 263 l 1
 157 263 l 1
 157 -130 l 1
 100 -187 l 1
 83 -170 l 1
 83 280 l 1
 83 680 l 1
 140 737 l 1
EndSplineSet
EndChar
StartChar: barquillright
Encoding: 11809 11809 921
Width: 360
Flags: W
HStem: -177 21G<213 244> 273 54<76 213>
VStem: 213 54<-134 273 327 684>
LayerCount: 2
Back
SplineSet
60 300 m 25
 240 300 l 1049
240 700 m 25
 240 -150 l 1049
EndSplineSet
Fore
SplineSet
256 727 m 1
 267 716 l 1
 267 316 l 1
 267 -134 l 1
 224 -177 l 1
 213 -166 l 1
 213 273 l 1
 44 273 l 1
 33 284 l 1
 76 327 l 1
 213 327 l 1
 213 684 l 1
 256 727 l 1
EndSplineSet
EndChar
StartChar: brackettopright
Encoding: 11811 11811 923
Width: 360
Flags: W
HStem: 673 54<76 213>
VStem: 213 54<316 673>
LayerCount: 2
Back
SplineSet
60 700 m 25
 240 700 l 17
 240 300 l 1025
EndSplineSet
Fore
SplineSet
33 684 m 1
 76 727 l 1
 256 727 l 1
 267 716 l 1
 267 316 l 1
 224 273 l 1
 213 284 l 1
 213 673 l 1
 44 673 l 1
 33 684 l 1
EndSplineSet
EndChar
StartChar: bracketbottomleft
Encoding: 11812 11812 924
Width: 360
Flags: W
HStem: -177 54<147 284>
VStem: 93 54<-123 284>
LayerCount: 2
Back
SplineSet
120 300 m 1
 120 -150 l 9
 300 -150 l 1033
EndSplineSet
Fore
SplineSet
136 327 m 1
 147 316 l 1
 147 -123 l 1
 316 -123 l 1
 327 -134 l 1
 284 -177 l 1
 104 -177 l 1
 93 -166 l 1
 93 284 l 1
 136 327 l 1
EndSplineSet
EndChar
StartChar: bracketbottomright
Encoding: 11813 11813 925
Width: 360
Flags: W
HStem: -187 74<80 203>
VStem: 203 74<-113 280>
LayerCount: 2
Back
SplineSet
240 300 m 1
 240 -150 l 9
 60 -150 l 1033
EndSplineSet
Fore
SplineSet
260 337 m 1
 277 320 l 1
 277 -130 l 1
 220 -187 l 1
 40 -187 l 1
 23 -170 l 1
 80 -113 l 1
 203 -113 l 1
 203 280 l 1
 260 337 l 1
EndSplineSet
EndChar
StartChar: Ubracketleft
Encoding: 11814 11814 912
Width: 600
Flags: W
HStem: -37 74<273.396 520> 363 74<273.308 520>
VStem: 83 74<136.118 262.951>
LayerCount: 2
Back
SplineSet
540 400 m 1
 360 400 l 26
 228 400 120 310 120 200 c 27
 120 90 228 0 360 0 c 26
 540 0 l 1025
EndSplineSet
Fore
SplineSet
577 420 m 1
 520 363 l 1
 340 363 l 2
 282 363 228 345 187 317 c 1
 167 288 157 255 157 220 c 0
 157 176 174 134 204 101 c 1
 248 62 311 37 380 37 c 2
 560 37 l 1
 577 20 l 1
 520 -37 l 1
 340 -37 l 2
 266 -37 200 -8 156 36 c 2
 139 52 l 2
 104 87 83 132 83 180 c 0
 83 228 104 273 139 308 c 2
 195 364 l 2
 239 408 306 437 380 437 c 2
 560 437 l 1
 577 420 l 1
EndSplineSet
EndChar
StartChar: fivedots
Encoding: 11821 11821 935
Width: 720
Flags: W
LayerCount: 2
Back
SplineSet
335 200 m 25
 385 150 l 1049
535 200 m 25
 585 150 l 1049
335 40 m 25
 385 -10 l 1049
335 360 m 25
 385 310 l 1049
135 200 m 25
 185 150 l 1049
EndSplineSet
Fore
SplineSet
98 180 m 1
 155 237 l 1
 222 170 l 1
 165 113 l 1
 98 180 l 1
298 340 m 1
 355 397 l 1
 422 330 l 1
 365 273 l 1
 298 340 l 1
298 20 m 1
 355 77 l 1
 422 10 l 1
 365 -47 l 1
 298 20 l 1
498 180 m 1
 555 237 l 1
 622 170 l 1
 565 113 l 1
 498 180 l 1
298 180 m 1
 355 237 l 1
 422 170 l 1
 365 113 l 1
 298 180 l 1
EndSplineSet
EndChar
StartChar: a_a
Encoding: 42803 42803 336
Width: 720
Flags: W
HStem: 198 54<228.375 333 468.375 573> 407 20G<206 346 446 586> 407 20G<206 346 446 586>
VStem: 93 54<106 144> 333 54<106 112 134 176 252 326 348 350> 573 54<27.2798 112 134 198 252 350>
CounterMasks: 1 1c
AnchorPoint: "abvmark" 360 500 basechar 0
AnchorPoint: "blwmark" 360 0 basechar 0
LayerCount: 2
Back
SplineSet
360 310 m 1
 450 400 l 1
 600 375 l 1
 600 30 l 1
 630 0 l 1
 690 60 l 1049
600 150 m 25
 450 0 l 1
 360 90 l 1
 360 160 l 1
 450 250 l 1
 450 250 472.927734376 225 540 225 c 3
 501.9921875 225 600 225 600 225 c 1033
150 220 m 17
 120 310 l 1
 210 400 l 1
 360 375 l 1
 360 150 l 9
 210 0 l 1
 120 90 l 1
 120 160 l 1
 210 250 l 1
 210 250 232.928594192 225 300 225 c 3
 261.991563428 225 360 225 360 225 c 1033
EndSplineSet
Fore
SplineSet
316 252 m 2xdc
 333 252 l 1
 333 294 l 1
 333 350 l 1
 194 373 l 1
 147 326 l 1
 177 236 l 1
 134 193 l 1
 123 204 l 1
 93 294 l 1
 226 427 l 1
 376 402 l 1
 387 391 l 1
 387 348 l 1
 466 427 l 1
 616 402 l 1
 627 391 l 1
 627 241 l 1
 627 166 l 1
 627 46 l 2
 627 37 640 33 646 27 c 1
 706 87 l 1
 717 76 l 1
 614 -27 l 1
 573 14 l 1
 573 112 l 1
 434 -27 l 1
 333 74 l 1
 333 112 l 1
 194 -27 l 1
 93 74 l 1
 93 144 l 1
 226 277 l 1
 226 276 l 2
 230 272 252 254 308 252 c 0
 310 252 313 252 316 252 c 2xdc
276 198 m 2
 275 198 l 0
 219 200 198 220 195 223 c 2
 194 223 l 1
 147 176 l 1
 147 106 l 1
 226 27 l 1
 333 134 l 1
 333 144 l 1
 333 198 l 1
 276 198 l 2
387 198 m 1
 466 277 l 1
 466 276 l 2
 470 272 492 254 548 252 c 0
 550 252 553 252 556 252 c 2
 573 252 l 1
 573 350 l 1
 434 373 l 1
 387 326 l 1
 387 198 l 1
387 166 m 1
 387 106 l 1
 466 27 l 1
 573 134 l 1
 573 198 l 1
 516 198 l 2
 515 198 l 1
 459 200 438 220 435 223 c 2
 434 223 l 1
 387 176 l 1
 387 166 l 1
EndSplineSet
LCarets2: 1 360 
Ligature2: "Historic ligatures-1" a a
EndChar
StartChar: a_u
Encoding: 42807 42807 344
Width: 720
Flags: W
HStem: 188 74<232.385 323> 417 20G<210 350 575 615> 417 20G<210 350 575 615>
VStem: 83 74<110 140> 323 74<130 188 262 341> 563 74<50 96 130 345>
CounterMasks: 1 1c
AnchorPoint: "blwmark" 360 0 basechar 0
AnchorPoint: "abvmark" 360 500 basechar 0
LayerCount: 2
Back
SplineSet
360 150 m 9
 210 0 l 1
 120 90 l 1
 120 160 l 1
 210 250 l 1
 210 250 232.928594192 225 300 225 c 3
 280.995781714 225 360 225 360 225 c 1033
690 60 m 25
 630 0 l 1
 600 30 l 17
 600 375 l 1025
625 350 m 25
 575 400 l 1049
600 150 m 25
 450 0 l 25
 360 90 l 1
 360 375 l 17
 210 400 l 1
 120 310 l 1
 150 220 l 1033
EndSplineSet
Fore
SplineSet
710 97 m 1xdc
 727 80 l 1
 610 -37 l 1
 563 10 l 1
 563 96 l 1
 430 -37 l 1
 323 70 l 1
 323 96 l 1
 190 -37 l 1
 83 70 l 1
 83 140 l 1
 128 185 l 1
 113 200 l 1
 83 290 l 1
 230 437 l 1
 380 412 l 1
 397 395 l 1
 397 245 l 1
 397 170 l 1
 397 110 l 1
 470 37 l 1
 563 130 l 1
 563 355 l 1
 538 380 l 1
 595 437 l 1
 620 412 l 1
 637 395 l 1
 662 370 l 1
 637 345 l 1
 637 170 l 1
 637 50 l 1
 650 37 l 1
 710 97 l 1xdc
186 243 m 1
 230 287 l 1
 230 286 l 2
 234 282 256 262 317 262 c 2
 323 262 l 1
 323 341 l 1
 190 363 l 2
 190 363 161 334 157 330 c 1
 186 243 l 1
323 130 m 1
 323 188 l 1
 282 188 l 2
 218 188 193 210 190 213 c 2
 157 180 l 1
 157 110 l 1
 230 37 l 1
 323 130 l 1
EndSplineSet
LCarets2: 1 360 
Ligature2: "Historic ligatures-1" a u
EndChar
StartChar: a_v
Encoding: 42809 42809 345
Width: 720
Flags: W
HStem: 198 54<228.375 333> 412 20G<206 326 621.5 633>
VStem: 93 54<106 144> 333 54<136 198 252 350> 513 54<431.406 504.805> 573 54<136 358>
AnchorPoint: "blwmark" 360 0 basechar 0
AnchorPoint: "abvmark" 360 500 basechar 0
LayerCount: 2
Back
SplineSet
360 150 m 9
 210 0 l 1
 120 90 l 1
 120 160 l 1
 210 250 l 1
 210 250 232.928594192 225 300 225 c 3
 261.991563428 225 360 225 360 225 c 1033
606 550 m 17
 604 550 540 521 540 472 c 16
 540 423 600 375 600 375 c 9
 600 120 l 1
 480 0 l 25
 360 120 l 1
 360 375 l 17
 210 405 l 1
 120 315 l 1
 150 225 l 1033
EndSplineSet
Fore
SplineSet
633 566 m 1
 590 523 l 2
 589 523 583 520 574 514 c 1
 570 505 567 498 567 488 c 0
 567 458 589 428 606 410 c 0
 612 405 616 402 616 402 c 2
 627 391 l 1
 627 136 l 1
 464 -27 l 1
 333 104 l 1
 333 112 l 1
 194 -27 l 1
 93 74 l 1
 93 144 l 1
 226 277 l 1
 226 276 l 2
 230 272 252 254 308 252 c 0
 310 252 313 252 316 252 c 2
 333 252 l 1
 333 350 l 1
 194 378 l 2
 194 378 151 335 147 331 c 1
 177 241 l 1
 134 198 l 1
 123 209 l 1
 93 299 l 1
 226 432 l 1
 376 402 l 1
 387 391 l 1
 387 241 l 1
 387 166 l 1
 387 136 l 1
 496 27 l 1
 573 104 l 1
 573 358 l 2
 572 359 570 361 569 362 c 2
 558 373 l 2
 540 391 513 423 513 456 c 0
 513 476 523 493 536 506 c 2
 579 548 l 2
 598 567 621 577 622 577 c 2
 633 566 l 1
333 134 m 1
 333 198 l 1
 276 198 l 2
 275 198 l 1
 219 200 198 220 195 223 c 2
 194 223 l 1
 147 176 l 1
 147 106 l 1
 226 27 l 1
 333 134 l 1
EndSplineSet
LCarets2: 1 360 
Ligature2: "Historic ligatures-1" a v
EndChar
StartChar: avslash
Encoding: 42811 42811 861
Width: 720
Flags: W
HStem: 198 54<228.375 333> 223 54<387 573 627 644> 407 20G<206 346> 407 20G<206 346 621.5 633>
VStem: 93 54<106 144> 333 54<136 198 277 350> 513 54<430.872 504.805> 573 54<136 223 277 354>
AnchorPoint: "abvmark" 360 500 basechar 0
AnchorPoint: "blwmark" 360 0 basechar 0
LayerCount: 2
Back
SplineSet
360 250 m 25
 660 250 l 1049
360 150 m 9
 210 0 l 1
 120 90 l 1
 120 160 l 1
 210 250 l 1
 210 250 232.928594192 225 300 225 c 3
 261.991563428 225 360 225 360 225 c 1033
606 550 m 17
 604 550 540 521 540 472 c 16
 540 423 600 370 600 370 c 9
 600 120 l 1
 480 0 l 25
 360 120 l 1
 360 375 l 17
 210 400 l 1
 120 310 l 1
 150 220 l 1033
EndSplineSet
Fore
SplineSet
633 566 m 1x6f
 590 523 l 2
 589 523 583 520 574 514 c 1
 570 505 567 498 567 488 c 0
 567 454 597 418 614 399 c 0
 616 397 l 1
 627 386 l 1
 627 277 l 1
 676 277 l 1
 687 266 l 1
 644 223 l 1
 627 223 l 1
 627 136 l 1
 464 -27 l 1
 333 104 l 1
 333 112 l 1
 194 -27 l 1
 93 74 l 1
 93 144 l 1
 226 277 l 1x6f
 226 276 l 2
 230 272 252 254 308 252 c 0
 310 252 313 252 316 252 c 2
 333 252 l 1x8f
 333 350 l 1
 194 373 l 2
 193 373 151 330 147 326 c 1
 177 236 l 1
 134 193 l 1
 123 204 l 1
 93 294 l 1
 226 427 l 1
 376 402 l 1
 387 391 l 1
 387 277 l 1
 573 277 l 1
 573 354 l 1
 566 362 l 2
 550 378 513 418 513 456 c 0
 513 476 523 493 536 506 c 2
 579 548 l 2
 598 567 621 577 622 577 c 2
 633 566 l 1x6f
387 166 m 1
 387 136 l 1
 496 27 l 1
 573 104 l 1
 573 223 l 1
 387 223 l 1
 387 166 l 1
333 134 m 1
 333 198 l 1
 276 198 l 2
 275 198 l 1x8f
 219 200 198 220 195 223 c 2
 194 223 l 1
 147 176 l 1
 147 106 l 1
 226 27 l 1
 333 134 l 1
EndSplineSet
EndChar
StartChar: a_y
Encoding: 42813 42813 346
Width: 720
Flags: W
HStem: -237 74<476.085 537.987> -187 74<352.36 422.207> 188 74<232.385 323> 417 20G<210 350 575 615> 417 20G<210 350 575 615>
VStem: 83 74<110 140> 323 74<140 188 262 341> 563 74<-130 66 100 345>
CounterMasks: 1 07
AnchorPoint: "abvmark" 360 500 basechar 0
LayerCount: 2
Back
SplineSet
360 150 m 9
 210 0 l 1
 120 90 l 1
 120 160 l 1
 210 250 l 1
 210 250 232.928594192 225 300 225 c 3
 280.995781714 225 360 225 360 225 c 1033
625 350 m 25
 575 400 l 1049
300 -200 m 17
 300 -200 344 -150 390 -150 c 8
 408.5 -150 489 -200 510 -200 c 24
 532.5 -200 600 -150 600 -150 c 1
 600 375 l 1025
600 120 m 9
 480 0 l 25
 360 120 l 1
 360 375 l 17
 210 400 l 1
 120 310 l 1
 150 220 l 1033
EndSplineSet
Fore
SplineSet
280 -237 m 1xa7
 263 -220 l 1
 263 -220 265 -217 268 -214 c 2
 325 -158 l 2
 325 -157 l 0
 339 -143 374 -113 410 -113 c 0x67
 428 -113 509 -163 530 -163 c 0xa7
 537 -163 551 -157 563 -150 c 1
 563 66 l 1
 460 -37 l 1
 325 98 l 1
 190 -37 l 1
 83 70 l 1
 83 140 l 1
 128 185 l 1
 113 200 l 1
 83 290 l 1
 230 437 l 1
 380 412 l 1
 397 395 l 1
 397 245 l 1
 397 170 l 1
 397 140 l 1
 500 37 l 1
 563 100 l 1
 563 355 l 1
 538 380 l 1
 595 437 l 1
 620 412 l 1
 637 395 l 1
 662 370 l 1
 637 345 l 1
 637 140 l 1
 637 -130 l 1
 580 -187 l 1x77
 580 -187 512 -237 490 -237 c 0xa7
 469 -237 388 -187 370 -187 c 0x67
 338 -187 308 -210 292 -225 c 2
 280 -237 l 1xa7
186 243 m 1
 230 287 l 1
 230 286 l 2
 234 282 256 262 317 262 c 2
 323 262 l 1
 323 341 l 1
 190 363 l 2
 190 363 161 334 157 330 c 1
 186 243 l 1
323 130 m 1
 323 188 l 1
 282 188 l 2
 218 188 193 210 190 213 c 2
 157 180 l 1
 157 110 l 1
 230 37 l 1
 323 130 l 1
EndSplineSet
LCarets2: 1 360 
Ligature2: "Historic ligatures-1" a y
EndChar
StartChar: kbar
Encoding: 42817 42817 862
Width: 480
Flags: W
HStem: 438 74<50 83 157 220> 442 20G<335 375>
VStem: 83 74<55 199 247 438 512 570> 323 74<55 174>
AnchorPoint: "abvmark" 240 700 basechar 0
AnchorPoint: "blwmark" 240 0 basechar 0
LayerCount: 2
Back
SplineSet
240 475 m 25
 30 475 l 1049
335 425 m 25
 385 375 l 1049
95 625 m 25
 145 575 l 1049
95 625 m 25
 145 575 l 1049
120 200 m 1
 360 350 l 9
 360 400 l 1049
240 275 m 1
 360 200 l 1
 360 25 l 1025
335 50 m 25
 385 0 l 1049
95 50 m 25
 145 0 l 1049
95 625 m 25
 145 575 l 1049
120 600 m 9
 120 25 l 1049
EndSplineSet
Fore
SplineSet
298 405 m 1xb0
 355 462 l 1x70
 380 437 l 1
 397 420 l 1
 422 395 l 1
 397 370 l 1
 365 338 l 1
 340 313 l 1
 299 287 l 1
 380 237 l 1
 397 220 l 1
 397 45 l 1
 422 20 l 1
 365 -37 l 1
 340 -12 l 1
 323 5 l 1
 298 30 l 1
 323 55 l 1
 323 174 l 1
 220 238 l 1
 157 199 l 1
 157 45 l 1
 182 20 l 1
 125 -37 l 1
 100 -12 l 1
 83 5 l 1
 58 30 l 1
 83 55 l 1
 83 180 l 1
 83 438 l 1
 10 438 l 1
 -7 455 l 1
 50 512 l 1
 83 512 l 1
 83 580 l 1
 58 605 l 1
 115 662 l 1
 140 637 l 1
 157 620 l 1
 182 595 l 1
 157 570 l 1
 157 512 l 1
 260 512 l 1
 277 495 l 1
 220 438 l 1
 157 438 l 1
 157 247 l 1
 260 312 l 1
 323 351 l 1
 323 380 l 1
 298 405 l 1xb0
EndSplineSet
EndChar
StartChar: kslash
Encoding: 42819 42819 863
Width: 480
Flags: W
HStem: 442 20G<335 375>
VStem: 83 74<55 199 247 570> 323 74<55 136 170 174>
AnchorPoint: "abvmark" 240 700 basechar 0
AnchorPoint: "blwmark" 240 0 basechar 0
LayerCount: 2
Back
SplineSet
450 280 m 25
 270 100 l 1049
335 425 m 25
 385 375 l 1049
95 625 m 25
 145 575 l 1049
95 625 m 25
 145 575 l 1049
120 200 m 1
 360 350 l 9
 360 400 l 1049
240 275 m 1
 360 200 l 1
 360 25 l 1025
335 50 m 25
 385 0 l 1049
95 50 m 25
 145 0 l 1049
95 625 m 25
 145 575 l 1049
120 600 m 9
 120 25 l 1049
EndSplineSet
Fore
SplineSet
298 405 m 1
 355 462 l 1
 380 437 l 1
 397 420 l 1
 422 395 l 1
 397 370 l 1
 365 338 l 1
 340 313 l 1
 299 287 l 1
 380 237 l 1
 385 232 l 1
 470 317 l 1
 487 300 l 1
 397 210 l 1
 397 45 l 1
 422 20 l 1
 365 -37 l 1
 340 -12 l 1
 323 5 l 1
 298 30 l 1
 323 55 l 1
 323 136 l 1
 250 63 l 1
 233 80 l 1
 323 170 l 1
 323 174 l 1
 220 238 l 1
 157 199 l 1
 157 45 l 1
 182 20 l 1
 125 -37 l 1
 100 -12 l 1
 83 5 l 1
 58 30 l 1
 83 55 l 1
 83 180 l 1
 83 580 l 1
 58 605 l 1
 115 662 l 1
 140 637 l 1
 157 620 l 1
 182 595 l 1
 157 570 l 1
 157 247 l 1
 260 312 l 1
 323 351 l 1
 323 380 l 1
 298 405 l 1
EndSplineSet
EndChar
StartChar: kbarslash
Encoding: 42821 42821 864
Width: 480
Flags: W
HStem: 438 74<50 83 157 220> 442 20G<335 375>
VStem: 83 74<55 199 247 438 512 570> 323 74<55 136 170 174>
AnchorPoint: "abvmark" 240 700 basechar 0
AnchorPoint: "blwmark" 240 0 basechar 0
LayerCount: 2
Back
SplineSet
335 425 m 25
 385 375 l 1049
95 625 m 25
 145 575 l 1049
95 625 m 25
 145 575 l 1049
120 200 m 1
 360 350 l 9
 360 400 l 1049
240 275 m 1
 360 200 l 1
 360 25 l 1025
335 50 m 25
 385 0 l 1049
95 50 m 25
 145 0 l 1049
95 625 m 25
 145 575 l 1049
120 600 m 9
 120 25 l 1049
240 475 m 25
 30 475 l 1049
450 280 m 25
 270 100 l 1049
EndSplineSet
Fore
SplineSet
470 317 m 1x70
 487 300 l 1
 397 210 l 1
 397 45 l 1
 422 20 l 1
 365 -37 l 1
 340 -12 l 1
 323 5 l 1
 298 30 l 1
 323 55 l 1
 323 136 l 1
 250 63 l 1
 233 80 l 1
 323 170 l 1
 323 174 l 1
 220 238 l 1
 157 199 l 1
 157 45 l 1
 182 20 l 1
 125 -37 l 1
 100 -12 l 1
 83 5 l 1
 58 30 l 1
 83 55 l 1
 83 180 l 1
 83 438 l 1
 10 438 l 1
 -7 455 l 1
 50 512 l 1
 83 512 l 1
 83 580 l 1
 58 605 l 1
 115 662 l 1
 140 637 l 1
 157 620 l 1
 182 595 l 1
 157 570 l 1
 157 512 l 1
 260 512 l 1
 277 495 l 1
 220 438 l 1
 157 438 l 1xb0
 157 247 l 1
 260 312 l 1
 323 351 l 1
 323 380 l 1
 298 405 l 1
 355 462 l 1
 380 437 l 1
 397 420 l 1
 422 395 l 1
 397 370 l 1
 365 338 l 1
 340 313 l 1
 299 287 l 1
 380 237 l 1
 385 232 l 1
 470 317 l 1x70
EndSplineSet
EndChar
StartChar: lbroken
Encoding: 42823 42823 574
Width: 420
Flags: W
HStem: 417 20G<300 337> 417 20G<300 337>
VStem: 83 74<274 570> 263 74<55 346>
LayerCount: 2
Back
SplineSet
275 50 m 25
 325 0 l 25
 375 50 l 1049
95 625 m 25
 145 575 l 1049
120 600 m 1
 120 220 l 1
 300 400 l 1
 300 25 l 1025
EndSplineSet
Fore
SplineSet
58 605 m 1xb0
 115 662 l 1
 140 637 l 1
 157 620 l 1
 182 595 l 1
 157 570 l 1
 157 274 l 1
 320 437 l 1
 337 420 l 1
 337 45 l 1
 345 37 l 1
 395 87 l 1
 412 70 l 1
 305 -37 l 1
 280 -12 l 1
 263 5 l 1
 238 30 l 1
 263 55 l 1
 263 346 l 1
 100 183 l 1
 83 200 l 1
 83 580 l 1
 58 605 l 1xb0
EndSplineSet
EndChar
StartChar: lbar
Encoding: 42825 42825 865
Width: 240
Flags: W
HStem: 448 54<46 93 147 194>
VStem: 93 54<44 448 502 581>
AnchorPoint: "abvmark" 120 700 basechar 0
AnchorPoint: "blwmark" 120 0 basechar 0
LayerCount: 2
Back
SplineSet
100 40 m 25
 140 0 l 25
 180 40 l 1049
100 625 m 25
 140 585 l 1049
120 605 m 9
 120 20 l 1049
210 475 m 25
 30 475 l 1049
EndSplineSet
Fore
SplineSet
237 491 m 1
 194 448 l 1
 147 448 l 1
 147 36 l 1
 156 27 l 1
 196 67 l 1
 207 56 l 1
 124 -27 l 1
 104 -7 l 1
 93 4 l 1
 73 24 l 1
 93 44 l 1
 93 448 l 1
 14 448 l 1
 3 459 l 1
 46 502 l 1
 93 502 l 1
 93 589 l 1
 73 609 l 1
 116 652 l 1
 136 632 l 1
 147 621 l 1
 167 601 l 1
 147 581 l 1
 147 502 l 1
 226 502 l 1
 237 491 l 1
EndSplineSet
EndChar
StartChar: obiit
Encoding: 42827 42827 866
Width: 480
Flags: W
HStem: 188 74<50 83 157 323 397 430> 417 20G<240 280> 417 20G<240 280>
VStem: 83 74<100 188> 323 74<140 188 262 300>
LayerCount: 2
Back
SplineSet
30 225 m 25
 450 225 l 1049
240 400 m 25
 120 280 l 25
 120 120 l 25
 240 0 l 25
 360 120 l 25
 360 280 l 25
 240 400 l 25
EndSplineSet
Fore
SplineSet
220 363 m 1x98
 157 300 l 1
 157 262 l 1
 323 262 l 1
 322 316 250 333 220 363 c 1x98
-7 205 m 1
 50 262 l 1
 85 262 l 1
 260 437 l 1xd8
 397 300 l 1
 397 262 l 1
 470 262 l 1
 487 245 l 1
 430 188 l 1
 397 188 l 1
 397 140 l 1
 220 -37 l 1
 83 100 l 1
 83 188 l 1
 10 188 l 1
 -7 205 l 1
157 188 m 1
 157 140 l 2
 157 84 230 67 260 37 c 1
 323 100 l 1
 323 188 l 1
 157 188 l 1
EndSplineSet
EndChar
StartChar: oeloop
Encoding: 42829 42829 867
Width: 660
Flags: W
HStem: 417 20G<240 280 480 530> 417 20G<240 280 480 530>
VStem: 83 74<100 260> 323 74<134 300>
AnchorPoint: "abvmark" 360 500 basechar 0
AnchorPoint: "blwmark" 360 0 basechar 0
LayerCount: 2
Back
SplineSet
240 400 m 25
 120 280 l 25
 120 120 l 25
 240 0 l 25
 360 120 l 25
 360 280 l 25
 240 400 l 25
360 80 m 25
 360 280 l 25
 480 400 l 25
 600 320 l 1
 360 80 l 25
EndSplineSet
Fore
SplineSet
397 100 m 1
 340 43 l 1
 323 60 l 1025x30
340 43 m 1
 323 60 l 1
 323 66 l 1
 220 -37 l 1
 83 100 l 1
 83 260 l 1
 260 437 l 1
 380 317 l 1
 500 437 l 1xb0
 620 357 l 1
 637 340 l 1
 340 43 l 1
397 134 m 1
 560 297 l 1
 460 363 l 1
 397 300 l 1
 397 140 l 1
 397 134 l 1
220 363 m 1
 157 300 l 1
 157 140 l 2
 157 84 230 67 260 37 c 1
 323 100 l 1
 323 260 l 2
 323 316 250 333 220 363 c 1
EndSplineSet
EndChar
StartChar: pbar
Encoding: 42833 42833 868
Width: 480
Flags: W
HStem: -187 21G<83 120> -112 74<50 83 157 220> 417 20G<95 135 240 280> 417 20G<95 135 240 280>
VStem: 83 74<-130 -112 -38 46 135 300 334 345> 323 74<80 300>
AnchorPoint: "abvmark" 240 500 basechar 0
LayerCount: 2
Back
SplineSet
60 50 m 1
 60 50 115 100 150 100 c 0
 247 100 300 0 300 0 c 9
 360 60 l 1
 360 280 l 25
 240 400 l 1
 120 280 l 1049
95 400 m 25
 145 350 l 1049
120 375 m 1
 120 -150 l 1025
240 -75 m 25
 30 -75 l 1049
EndSplineSet
Fore
SplineSet
277 -55 m 1xec
 220 -112 l 1
 157 -112 l 1
 157 -130 l 1
 100 -187 l 1
 83 -170 l 1
 83 -112 l 1
 10 -112 l 1
 -7 -95 l 1
 50 -38 l 1
 83 -38 l 1
 83 46 l 1
 60 32 40 13 40 13 c 2
 23 30 l 1
 80 87 l 1
 80 87 81 88 83 90 c 2
 83 260 l 1
 83 355 l 1
 58 380 l 1
 115 437 l 1
 140 412 l 1
 157 395 l 1
 182 370 l 1
 157 345 l 1
 157 334 l 1
 260 437 l 1
 397 300 l 1
 397 80 l 1
 280 -37 l 1
 263 -20 l 1
 263 -20 253 -1 234 20 c 0
 214 38 189 55 157 61 c 1
 157 -38 l 1
 260 -38 l 1
 277 -55 l 1xec
157 300 m 1
 157 135 l 1
 162 136 166 137 170 137 c 0
 219 137 257 111 282 86 c 2
 299 69 l 2
 300 68 l 0
 310 58 317 49 323 41 c 1
 323 260 l 2
 323 316 250 333 220 363 c 1
 157 300 l 1
EndSplineSet
EndChar
StartChar: pflourish
Encoding: 42835 42835 869
Width: 600
Flags: W
HStem: -187 21G<-7 30 203 240> 417 20G<215 254.412 360 400> 417 20G<215 254.412 360 400>
VStem: 53 74<-90.1082 35.6082> 203 74<-130 9 122 300 334 345> 443 74<140 260>
AnchorPoint: "abvmark" 360 500 basechar 0
LayerCount: 2
Back
SplineSet
240 280 m 25
 360 400 l 1
 480 280 l 25
 480 120 l 1
 360 0 l 1
 360 0 278 100 30 100 c 1
 30 100 90 44 90 0 c 3
 90 -132 30 -150 30 -150 c 1033
215 400 m 25
 265 350 l 1049
240 375 m 1
 240 -150 l 1025
EndSplineSet
Fore
SplineSet
178 380 m 1xdc
 235 437 l 1
 268 403 l 1
 277 395 l 1
 302 370 l 1
 277 345 l 1
 277 334 l 1
 380 437 l 1
 517 300 l 1
 517 140 l 1
 340 -37 l 1
 331 -27 l 2
 321 -18 304 -5 277 9 c 1
 277 -130 l 1
 220 -187 l 1
 203 -170 l 1
 203 38 l 1
 178 45 149 51 116 56 c 1
 122 44 127 32 127 20 c 0
 127 -61 104 -99 87 -116 c 2
 30 -173 l 2
 19 -184 10 -187 10 -187 c 2
 -7 -170 l 1
 31 -132 l 1
 43 -110 53 -75 53 -20 c 0
 53 14 18 55 1 72 c 2
 -7 80 l 1
 50 137 l 1
 60 137 69 136 79 136 c 0
 127 134 168 130 203 122 c 1
 203 260 l 1
 203 355 l 1
 178 380 l 1xdc
277 300 m 1
 277 100 l 1
 335 78 366 51 376 41 c 2
 380 37 l 1
 443 100 l 1
 443 260 l 1
 340 363 l 1
 277 300 l 1
EndSplineSet
EndChar
StartChar: psquirrel
Encoding: 42837 42837 870
Width: 600
Flags: W
HStem: -187 21G<203 240> -6 80<277 326.574> 13 74<76 200.786> 417 20G<30 67 215 254.412 360 400> 417 20G<30 67 215 254.412 360 400>
VStem: 53 74<147.669 307.928> 203 74<-130 -6 82 300 334 345> 443 74<140 260>
AnchorPoint: "abvmark" 360 500 basechar 0
LayerCount: 2
Back
SplineSet
240 280 m 25
 360 400 l 1
 480 280 l 25
 480 120 l 1
 360 0 l 1
 360 0 358 50 30 50 c 1
 30 50 90 156 90 200 c 3
 90 332 30 400 30 400 c 1033
215 400 m 25
 265 350 l 1049
240 375 m 1
 240 -150 l 1025
EndSplineSet
Fore
SplineSet
178 380 m 1xb7
 235 437 l 1
 268 403 l 1
 277 395 l 1
 302 370 l 1
 277 345 l 1
 277 334 l 1
 380 437 l 1
 517 300 l 1
 517 140 l 1
 340 -37 l 1
 327 -23 l 2
 318 -18 303 -12 277 -6 c 1xd7
 277 -130 l 1
 220 -187 l 1
 203 -170 l 1
 203 5 l 1
 156 10 94 13 10 13 c 1
 -7 30 l 1
 -7 30 53 136 53 180 c 0
 53 312 -7 380 -7 380 c 1
 50 437 l 1
 67 420 l 1
 67 420 127 352 127 220 c 0
 127 187 93 119 76 87 c 1
 126 87 168 84 203 82 c 1
 203 260 l 1
 203 355 l 1
 178 380 l 1xb7
277 300 m 1
 277 74 l 1
 345 64 368 51 376 43 c 2
 381 38 l 1
 443 100 l 1
 443 260 l 1
 340 363 l 1
 277 300 l 1
EndSplineSet
EndChar
StartChar: qbar
Encoding: 42839 42839 871
Width: 480
Flags: W
HStem: -187 21G<323 360> -112 74<260 323 397 430> 315 74<272.5 321.905> 417 20G<240 277 360 397> 417 20G<240 277 360 397>
VStem: 83 74<140 260> 323 74<-130 -112 -38 66 100 338>
AnchorPoint: "abvmark" 270 500 basechar 0
LayerCount: 2
Back
SplineSet
450 -75 m 25
 240 -75 l 1049
360 120 m 9
 240 0 l 25
 120 120 l 25
 120 280 l 25
 240 400 l 1
 240 400 264 352 300 352 c 24
 336 352 360 400 360 400 c 9
 360 -150 l 1049
EndSplineSet
Fore
SplineSet
323 100 m 1xe6
 323 338 l 1
 319 334 l 2
 309 324 296 315 280 315 c 0
 265 315 252 324 242 334 c 2
 225 351 l 2
 222 354 219 357 217 360 c 2
 157 300 l 1
 157 140 l 1
 260 37 l 1
 323 100 l 1xe6
323 66 m 1
 220 -37 l 1
 83 100 l 1
 83 260 l 1
 260 437 l 1
 277 420 l 1
 277 420 282 410 290 400 c 0
 299 393 309 389 320 389 c 0
 325 389 330 389 334 391 c 2
 380 437 l 1xf6
 397 420 l 1
 397 -38 l 1
 470 -38 l 1
 487 -55 l 1
 430 -112 l 1
 397 -112 l 1
 397 -130 l 1
 340 -187 l 1
 323 -170 l 1
 323 -112 l 1
 220 -112 l 1
 203 -95 l 1
 260 -38 l 1
 323 -38 l 1
 323 66 l 1
EndSplineSet
EndChar
StartChar: rumrotunda
Encoding: 42845 42845 705
Width: 600
Flags: W
HStem: -177 21G<213 245.633> -27 54<416 500.66> 407 20G<116 160> 407 20G<116 160>
VStem: 393 54<47.385 178>
LayerCount: 2
Back
SplineSet
360 225 m 1
 420 200 l 1
 420 200 420 139 420 100 c 27
 420 3 240 -150 240 -150 c 1025
540 50 m 17
 540 50 517 0 450 0 c 3
 337 0 300 60 300 60 c 9
 240 0 l 1
 120 180 l 25
 240 300 l 1
 120 400 l 1
 60 340 l 1049
EndSplineSet
Fore
SplineSet
556 77 m 1xe8
 567 66 l 1
 567 66 562 55 551 44 c 2
 509 2 l 2
 495 -12 471 -27 434 -27 c 0
 413 -27 394 -25 378 -21 c 1
 359 -45 337 -67 319 -85 c 2
 277 -128 l 2
 247 -158 224 -177 224 -177 c 1
 213 -166 l 1
 256 -123 l 1
 256 -123 268 -112 286 -95 c 0
 309 -71 333 -43 353 -14 c 1
 323 -4 305 11 295 21 c 2
 283 32 l 1
 224 -27 l 1
 213 -16 l 1
 93 164 l 1
 212 283 l 1
 104 373 l 2
 104 373 89 358 87 356 c 2
 44 313 l 1
 33 324 l 1
 136 427 l 1
 256 327 l 1
 267 316 l 1
 147 196 l 1
 258 29 l 1
 316 87 l 1
 327 76 l 2
 327 76 329 73 332 69 c 0
 343 60 359 49 383 40 c 1
 389 56 393 70 393 84 c 2
 393 178 l 1
 344 198 l 1
 333 209 l 1
 376 252 l 1
 436 227 l 1
 447 216 l 1
 447 116 l 2
 447 90 434 60 416 31 c 1
 431 28 448 27 466 27 c 0
 488 27 504 33 518 40 c 1
 556 77 l 1xe8
EndSplineSet
EndChar
StartChar: y_y
Encoding: 42849 42849 834
Width: 720
Flags: W
HStem: -237 74<366.108 545.121> -187 74<112.36 293.892> 417 20G<95 135 335 375 575 615> 417 20G<95 135 335 375 575 615>
VStem: 83 74<140 345> 323 74<140 345> 563 74<-130 66 100 345>
CounterMasks: 1 0e
AnchorPoint: "abvmark" 360 500 basechar 0
LayerCount: 2
Back
SplineSet
385 350 m 25
 335 400 l 1049
625 350 m 25
 575 400 l 1049
60 -200 m 17
 60 -200 104 -150 150 -150 c 8
 292 -150 368 -200 510 -200 c 24
 550 -200 600 -150 600 -150 c 1
 600 375 l 1025
600 120 m 9
 480 0 l 25
 360 120 l 1
 360 375 l 1049
145 350 m 25
 95 400 l 1049
360 120 m 9
 240 0 l 25
 120 120 l 1
 120 375 l 1049
EndSplineSet
Fore
SplineSet
40 -237 m 1x8e
 23 -220 l 1
 23 -220 25 -217 28 -214 c 2
 85 -158 l 2
 85 -157 l 0
 99 -143 134 -113 170 -113 c 0x4e
 312 -113 388 -163 530 -163 c 0x8e
 541 -163 553 -159 563 -154 c 1
 563 66 l 1
 460 -37 l 1
 340 83 l 1
 220 -37 l 1
 83 100 l 1
 83 355 l 1
 58 380 l 1
 115 437 l 1
 140 412 l 1
 157 395 l 1
 182 370 l 1
 157 345 l 1
 157 140 l 1
 260 37 l 1
 323 100 l 1
 323 355 l 1
 298 380 l 1
 355 437 l 1
 380 412 l 1
 397 395 l 1
 422 370 l 1
 397 345 l 1
 397 140 l 1
 500 37 l 1
 563 100 l 1
 563 355 l 1
 538 380 l 1
 595 437 l 1
 620 412 l 1
 637 395 l 1
 662 370 l 1
 637 345 l 1
 637 140 l 1
 637 -130 l 1
 580 -187 l 1x6e
 580 -187 530 -237 490 -237 c 0x8e
 348 -237 272 -187 130 -187 c 0x4e
 98 -187 68 -210 52 -225 c 2
 40 -237 l 1x8e
EndSplineSet
LCarets2: 1 360 
Ligature2: "Historic ligatures-1" y y
EndChar
StartChar: vend
Encoding: 42857 42857 876
Width: 480
Flags: W
HStem: -187 21G<83 120> 417 20G<95 135 310 350> 417 20G<95 135 310 350>
VStem: 83 74<-130 -44 -10 30 64 345> 323 74<270 354.782>
AnchorPoint: "abvmark" 240 500 basechar 0
LayerCount: 2
Back
SplineSet
60 -50 m 9
 360 250 l 1
 360 350 l 25
 310 400 l 1025
95 400 m 25
 145 350 l 1049
120 375 m 1
 120 -150 l 1025
EndSplineSet
Fore
SplineSet
58 380 m 1xd8
 115 437 l 1
 140 412 l 1
 157 395 l 1
 182 370 l 1
 157 345 l 1
 157 64 l 1
 323 230 l 1
 323 330 l 2
 323 347 299 354 290 363 c 2
 273 380 l 1
 330 437 l 1
 397 370 l 1
 397 270 l 1
 157 30 l 1
 157 -130 l 1
 100 -187 l 1
 83 -170 l 1
 83 -44 l 1
 40 -87 l 1
 23 -70 l 1
 83 -10 l 1
 83 355 l 1
 58 380 l 1xd8
EndSplineSet
EndChar
StartChar: etfin
Encoding: 42859 42859 959
Width: 420
Flags: W
HStem: 407 20G<146 196> 407 20G<146 196>
VStem: 273 54<56 74>
LayerCount: 2
Back
SplineSet
60 310 m 25
 150 400 l 1
 300 300 l 1
 120 120 l 1
 300 100 l 1
 300 40 l 1
 0 -200 l 1025
EndSplineSet
Fore
SplineSet
44 283 m 1xa0
 33 294 l 1
 166 427 l 1
 316 327 l 1
 327 316 l 1
 156 145 l 1
 316 127 l 1
 327 116 l 1
 327 56 l 1
 284 13 l 1
 -16 -227 l 1
 -27 -216 l 1
 16 -173 l 1
 273 33 l 1
 273 74 l 1
 104 93 l 1
 93 104 l 1
 271 282 l 1
 134 373 l 1
 44 283 l 1xa0
EndSplineSet
EndChar
StartChar: is
Encoding: 42861 42861 957
Width: 540
Flags: W
HStem: -227 54<20.5755 99.0444> -177 54<-102.126 -20.5755>
VStem: 123 54<-134 169 196 227 254 514> 363 54<486 514>
LayerCount: 2
Back
SplineSet
-150 -200 m 17
 -150 -200 -106 -150 -60 -150 c 8
 -9 -150 9 -200 60 -200 c 24
 100 -200 150 -150 150 -150 c 1
 150 530 l 1
 270 650 l 25
 390 530 l 25
 390 470 l 25
 0 50 l 1049
EndSplineSet
Fore
SplineSet
177 254 m 1x30
 363 454 l 1
 363 514 l 1
 254 623 l 1
 177 546 l 1
 177 254 l 1x30
-166 -227 m 1xb0
 -177 -216 l 1
 -177 -216 -174 -213 -171 -210 c 2
 -129 -167 l 2
 -116 -154 -80 -123 -44 -123 c 0x70
 7 -123 25 -173 76 -173 c 0xb0
 92 -173 108 -165 123 -156 c 1
 123 169 l 1
 27 66 l 1
 -16 23 l 1
 -27 34 l 1
 123 196 l 1
 123 514 l 1
 286 677 l 1
 417 546 l 1
 417 486 l 1
 177 227 l 1
 177 -134 l 1
 134 -177 l 1x70
 134 -177 84 -227 44 -227 c 0xb0
 -7 -227 -25 -177 -76 -177 c 0x70
 -108 -177 -138 -200 -154 -215 c 2
 -166 -227 l 1xb0
EndSplineSet
EndChar
StartChar: con
Encoding: 42863 42863 890
Width: 480
Flags: W
HStem: -187 21G<263 300> 417 20G<240 280> 417 20G<240 280>
VStem: 83 74<100 260> 323 74<-70 300>
LayerCount: 2
Back
SplineSet
300 -150 m 25
 360 -90 l 1
 360 280 l 9
 240 400 l 1
 120 280 l 25
 120 120 l 25
 240 0 l 1049
EndSplineSet
Fore
SplineSet
280 -187 m 1xd8
 263 -170 l 1
 323 -110 l 1
 323 260 l 2
 323 316 250 333 220 363 c 1
 157 300 l 1
 157 140 l 2
 157 84 230 67 260 37 c 2
 277 20 l 1
 220 -37 l 1
 83 100 l 1
 83 260 l 1
 260 437 l 1
 397 300 l 1
 397 -70 l 1
 280 -187 l 1xd8
EndSplineSet
EndChar
StartChar: dum
Encoding: 42865 42865 448
Width: 720
Flags: W
HStem: -177 21G<333 365.633> -27 54<536.741 620.877> 407 20G<236 275.744> 407 20G<236 275.744> 523 54<154.093 295.263> 623 21G<149 173>
VStem: 93 54<104 264 577.5 623.027> 333 54<38 82 104 264 349 489.248> 513 54<47.385 178>
AnchorPoint: "abvmark" 300 700 basechar 0
LayerCount: 2
Back
SplineSet
480 225 m 1
 540 200 l 1
 540 200 540 139 540 100 c 27
 540 3 360 -150 360 -150 c 1025
360 280 m 1
 240 400 l 25
 120 280 l 1
 120 120 l 25
 240 0 l 17
 360 120 l 1025
169 650 m 25
 180 670 120 633 120 600 c 27
 120 549 187 550 240 550 c 0
 293 550 360 510 360 450 c 18
 360 0 l 9
 420 60 l 17
 420 60 457 0 570 0 c 3
 637 0 660 50 660 50 c 1033
EndSplineSet
Fore
SplineSet
153 623 m 1xef80
 149 627 l 1
 147 622 147 620 147 616 c 0
 147 607 149 598 153 592 c 0
 176 576 220 577 256 577 c 0
 288 577 324 562 348 538 c 2
 360 527 l 2
 360 526 l 0
 376 510 387 490 387 466 c 2
 387 296 l 1
 387 136 l 1
 387 38 l 1
 436 87 l 1
 447 76 l 1
 447 76 449 73 452 69 c 0
 463 60 479 49 503 40 c 1
 509 56 513 70 513 84 c 2
 513 178 l 1
 464 198 l 1
 453 209 l 1
 496 252 l 1
 556 227 l 1
 567 216 l 1
 567 116 l 2
 567 90 554 60 536 31 c 1
 551 28 568 27 586 27 c 0
 608 27 625 33 638 40 c 1
 676 77 l 1
 687 66 l 2
 687 66 683 56 672 45 c 2
 671 44 l 2
 629 2 l 2
 615 -12 591 -27 554 -27 c 0
 533 -27 514 -25 498 -21 c 1
 479 -45 457 -67 439 -85 c 2
 397 -128 l 2
 367 -158 344 -177 344 -177 c 1
 333 -166 l 1
 376 -123 l 1
 376 -123 388 -112 406 -95 c 0
 429 -71 453 -43 473 -14 c 1
 444 -4 425 11 415 21 c 2
 403 32 l 1
 344 -27 l 1
 333 -16 l 1
 333 82 l 1
 224 -27 l 1
 93 104 l 1
 93 264 l 1
 256 427 l 1
 333 349 l 1
 333 434 l 2
 333 455 324 474 311 490 c 0
 287 511 253 523 224 523 c 0
 184 523 137 523 116 544 c 2
 104 555 l 2
 97 562 93 571 93 584 c 0
 93 597 103 611 113 621 c 2
 155 664 l 2
 164 673 175 680 181 682 c 0
 183 683 184 683 185 682 c 2
 197 671 l 2
 198 670 197 669 196 666 c 2
 153 623 l 1xef80
333 104 m 1
 333 264 l 1
 224 373 l 1
 147 296 l 1
 147 136 l 2
 147 75 224 59 256 27 c 1
 333 104 l 1
EndSplineSet
EndChar
StartChar: lum
Encoding: 42866 42866 573
Width: 509
Flags: W
HStem: -177 21G<123 155.633> -27 54<326.371 410.66>
VStem: 93 54<44 581> 303 54<47.7563 178>
LayerCount: 2
Back
SplineSet
270 225 m 1
 330 200 l 1
 330 200 330 139 330 100 c 27
 330 3 150 -150 150 -150 c 1025
450 50 m 17
 450 50 427 0 360 0 c 3
 247 0 200 60 200 60 c 9
 140 0 l 25
 100 40 l 1025
100 625 m 25
 140 585 l 1049
120 605 m 9
 120 20 l 1049
EndSplineSet
Fore
SplineSet
73 609 m 1
 116 652 l 1
 136 632 l 1
 147 621 l 1
 167 601 l 1
 147 581 l 1
 147 36 l 1
 156 27 l 1
 216 87 l 1
 227 76 l 1
 227 75 l 0
 239 65 260 50 293 39 c 1
 299 55 303 70 303 84 c 2
 303 178 l 1
 254 198 l 1
 243 209 l 1
 286 252 l 1
 346 227 l 1
 357 216 l 1
 357 116 l 2
 357 90 344 61 326 31 c 1
 341 28 358 27 376 27 c 0
 398 27 414 33 428 40 c 1
 466 77 l 1
 477 66 l 1
 477 66 472 55 461 44 c 2
 419 2 l 2
 405 -12 381 -27 344 -27 c 0
 323 -27 305 -24 288 -21 c 1
 269 -45 247 -67 229 -85 c 2
 187 -128 l 2
 157 -158 134 -177 134 -177 c 1
 123 -166 l 1
 166 -123 l 1
 166 -123 178 -112 196 -95 c 0
 218 -71 243 -44 263 -15 c 1
 223 -2 200 18 190 28 c 2
 184 33 l 1
 124 -27 l 1
 104 -7 l 1
 93 4 l 1
 73 24 l 1
 93 44 l 1
 93 589 l 1
 73 609 l 1
EndSplineSet
EndChar
StartChar: mum
Encoding: 42867 42867 587
Width: 989
Flags: W
HStem: -187 21G<593 631.633> -37 74<819 886.065> 417 20G<95 135 270 310 510 550> 417 20G<95 135 270 310 510 550>
VStem: 83 74<55 270 304 345> 323 74<55 270 304 328.03> 563 74<55 328.03> 773 74<53.4673 170>
LayerCount: 2
Back
SplineSet
600 25 m 1
 600 310 l 25
 510 400 l 1
 360 250 l 1041
335 50 m 9
 385 0 l 1041
360 25 m 1
 360 310 l 25
 270 400 l 1
 120 250 l 1041
95 50 m 9
 145 0 l 1041
145 350 m 9
 95 400 l 1041
120 375 m 9
 120 25 l 1025
750 225 m 1
 810 200 l 1
 810 200 810 139 810 100 c 27
 810 3 630 -150 630 -150 c 1025
930 50 m 17
 930 50 907 0 840 0 c 3
 727 0 685 60 685 60 c 9
 625 0 l 25
 575 50 l 1025
EndSplineSet
Fore
SplineSet
950 87 m 1xef
 967 70 l 1
 967 70 962 60 951 49 c 2
 894 -8 l 2
 880 -22 857 -37 820 -37 c 0
 800 -37 782 -35 766 -32 c 1
 750 -50 734 -66 719 -81 c 2
 663 -138 l 2
 634 -167 610 -187 610 -187 c 1
 593 -170 l 1
 650 -113 l 1
 650 -113 659 -105 673 -92 c 0
 693 -71 714 -47 731 -22 c 1
 701 -11 682 5 673 14 c 2
 665 23 l 1
 605 -37 l 1
 538 30 l 1
 563 55 l 1
 563 290 l 2
 563 329 511 342 490 363 c 1
 397 270 l 1
 397 45 l 1
 422 20 l 1
 365 -37 l 1
 340 -12 l 1
 323 5 l 1
 298 30 l 1
 323 55 l 1
 323 230 l 1
 323 290 l 2
 323 329 271 342 250 363 c 1
 157 270 l 1
 157 45 l 1
 182 20 l 1
 125 -37 l 1
 100 -12 l 1
 83 5 l 1
 58 30 l 1
 83 55 l 1
 83 230 l 1
 83 355 l 1
 58 380 l 1
 115 437 l 1
 140 412 l 1
 157 395 l 1
 182 370 l 1
 157 345 l 1
 157 304 l 1
 290 437 l 1
 397 330 l 1
 397 304 l 1
 530 437 l 1
 637 330 l 1
 637 45 l 1
 645 37 l 1
 705 97 l 1
 722 80 l 1
 722 79 l 0
 732 71 748 61 769 53 c 1
 772 63 773 71 773 80 c 2
 773 170 l 1
 730 188 l 1
 713 205 l 1
 770 262 l 1
 830 237 l 1
 847 220 l 1
 847 120 l 2
 847 96 836 68 819 40 c 1
 832 38 845 37 860 37 c 0
 882 37 899 42 913 50 c 1
 950 87 l 1xef
EndSplineSet
EndChar
StartChar: num
Encoding: 42868 42868 597
Width: 749
Flags: W
HStem: -187 21G<353 391.633> -37 74<579 646.065> 417 20G<95 135 270 310> 417 20G<95 135 270 310>
VStem: 83 74<55 270 304 345> 323 74<55 328.03> 533 74<53.4673 170>
LayerCount: 2
Back
SplineSet
510 225 m 1
 570 200 l 1
 570 200 570 139 570 100 c 27
 570 3 390 -150 390 -150 c 1025
690 50 m 17
 690 50 667 0 600 0 c 3
 487 0 445 60 445 60 c 1
 385 0 l 25
 335 50 l 1025
360 25 m 1
 360 310 l 25
 270 400 l 1
 120 250 l 1049
95 50 m 25
 145 0 l 1049
145 350 m 25
 95 400 l 1049
120 375 m 9
 120 25 l 1025
EndSplineSet
Fore
SplineSet
710 87 m 1xee
 727 70 l 1
 727 70 722 60 711 49 c 2
 654 -8 l 2
 640 -22 617 -37 580 -37 c 0
 560 -37 542 -35 526 -32 c 1
 510 -50 494 -66 479 -81 c 2
 423 -138 l 2
 394 -167 370 -187 370 -187 c 1
 353 -170 l 1
 410 -113 l 1
 410 -113 419 -105 433 -92 c 0
 453 -71 474 -47 491 -22 c 1
 461 -11 442 5 433 14 c 2
 425 23 l 1
 365 -37 l 1
 340 -12 l 1
 323 5 l 1
 298 30 l 1
 323 55 l 1
 323 290 l 2
 323 329 271 342 250 363 c 1
 157 270 l 1
 157 45 l 1
 182 20 l 1
 125 -37 l 1
 100 -12 l 1
 83 5 l 1
 58 30 l 1
 83 55 l 1
 83 230 l 1
 83 355 l 1
 58 380 l 1
 115 437 l 1
 140 412 l 1
 157 395 l 1
 182 370 l 1
 157 345 l 1
 157 304 l 1
 290 437 l 1
 397 330 l 1
 397 45 l 1
 405 37 l 1
 465 97 l 1
 482 80 l 1
 482 79 l 0
 492 71 508 61 529 53 c 1
 532 63 533 71 533 80 c 2
 533 170 l 1
 490 188 l 1
 473 205 l 1
 530 262 l 1
 590 237 l 1
 607 220 l 1
 607 120 l 2
 607 96 596 68 579 40 c 1
 592 38 605 37 620 37 c 0
 642 37 659 42 673 50 c 1
 710 87 l 1xee
EndSplineSet
EndChar
StartChar: rum
Encoding: 42869 42869 704
Width: 540
Flags: W
HStem: -177 21G<153 188.444> 407 20G<96 136 236 265 475.459 507> 407 20G<96 136 236 265 296 364 475.459 507>
VStem: 93 54<44 296 318 356> 333 54<105.401 328.171 385 478>
LayerCount: 2
Back
SplineSet
300 525 m 1
 360 500 l 1
 360 500 360 406 360 250 c 3
 360 -37.5015230616 180 -150 180 -150 c 1025
480 400 m 17
 480 400 457 350 390 350 c 3
 277 350 240 400 240 400 c 9
 120 280 l 1025
100 40 m 25
 140 0 l 1049
100 400 m 25
 140 360 l 1049
120 380 m 9
 120 20 l 1025
EndSplineSet
Fore
SplineSet
73 384 m 1xd8
 116 427 l 1
 136 407 l 1
 147 396 l 1
 167 376 l 1
 147 356 l 1
 147 318 l 1
 256 427 l 1
 265 417 l 2
 276 408 297 394 333 385 c 1
 333 478 l 1
 284 498 l 1
 273 509 l 1
 316 552 l 1
 376 527 l 1
 387 516 l 1
 387 377 l 1
 393 377 400 377 406 377 c 0
 428 377 444 383 458 390 c 1
 496 427 l 1
 507 416 l 1
 507 416 502 405 491 394 c 2
 449 352 l 2
 437 340 417 327 387 324 c 1
 387 266 l 2
 387 70 303 -45 250 -98 c 2
 208 -141 l 2
 183 -166 164 -177 164 -177 c 1
 153 -166 l 1
 196 -123 l 1
 196 -123 204 -118 217 -107 c 0
 268 -47 333 62 333 234 c 2
 333 326 l 1
 270 334 239 359 229 369 c 2
 224 373 l 1
 147 296 l 1
 147 36 l 1
 167 16 l 1
 124 -27 l 1
 104 -7 l 1
 93 4 l 1
 73 24 l 1
 93 44 l 1
 93 264 l 1
 93 364 l 1
 73 384 l 1xd8
EndSplineSet
EndChar
StartChar: Rumsmallcap
Encoding: 42870 42870 858
Width: 780
Flags: W
HStem: -177 21G<393 425.633> -27 54<596.741 680.66> 407 20G<96 136 236 292> 407 20G<96 136 236 292>
VStem: 93 54<44 296 318 356> 573 54<47.385 178>
LayerCount: 2
Back
SplineSet
540 225 m 1
 600 200 l 1
 600 200 600 139 600 100 c 27
 600 3 420 -150 420 -150 c 1025
720 50 m 17
 720 50 697 0 630 0 c 3
 517 0 480 60 480 60 c 9
 420 0 l 1
 420 0 399 85 360 125 c 24
 337 149 270 150 270 150 c 1025
100 40 m 25
 140 0 l 1049
100 400 m 25
 140 360 l 1049
120 380 m 9
 120 20 l 1025
240 120 m 1
 420 300 l 1
 240 400 l 1
 120 280 l 1049
EndSplineSet
Fore
SplineSet
224 93 m 1xec
 213 104 l 1
 243 134 l 1
 286 177 l 1
 390 281 l 1
 224 373 l 2
 224 373 154 303 147 296 c 1
 147 36 l 1
 167 16 l 1
 124 -27 l 1
 104 -7 l 1
 93 4 l 1
 73 24 l 1
 93 44 l 1
 93 264 l 1
 93 364 l 1
 73 384 l 1
 116 427 l 1
 136 407 l 1
 147 396 l 1
 167 376 l 1
 147 356 l 1
 147 318 l 1
 256 427 l 1
 436 327 l 1
 447 316 l 1
 307 175 l 1
 328 173 360 168 375 153 c 0
 375 152 l 2
 386 141 l 2
 387 141 l 0
 415 112 433 61 442 33 c 1
 496 87 l 1
 507 76 l 2
 507 76 509 73 512 69 c 0
 523 60 539 49 563 40 c 1
 569 56 573 70 573 84 c 2
 573 178 l 1
 524 198 l 1
 513 209 l 1
 556 252 l 1
 616 227 l 1
 627 216 l 1
 627 116 l 2
 627 90 614 60 596 31 c 1
 611 28 628 27 646 27 c 0
 668 27 684 33 698 40 c 1
 736 77 l 1
 747 66 l 1
 747 66 742 55 731 44 c 2
 689 2 l 2
 675 -12 651 -27 614 -27 c 0
 593 -27 574 -25 558 -21 c 1
 539 -45 517 -67 499 -85 c 2
 457 -128 l 2
 427 -158 404 -177 404 -177 c 1
 393 -166 l 1
 436 -123 l 1
 436 -123 448 -112 466 -95 c 0
 489 -71 513 -43 533 -14 c 1
 503 -4 485 11 475 21 c 2
 463 32 l 1
 404 -27 l 1
 393 -16 l 1
 393 -16 374 61 339 103 c 1
 312 123 254 123 254 123 c 2
 224 93 l 1xec
EndSplineSet
EndChar
StartChar: tum
Encoding: 42871 42871 728
Width: 720
Flags: W
HStem: -187 21G<323 363.889> 313 74<202.218 503> 332 65<577 626.951> 344 83<80.0081 113> 417 20G<60 113 676 697> 417 20G<60 113 150 187 480 548 676 697>
VStem: 113 74<51.4784 330 427 530> 503 74<110.997 318 397 470>
LayerCount: 2
Back
SplineSet
60 400 m 1049,0,0
150 550 m 1,0,0
 150 60 l 1,0,0
 210 0 l 1,0,0
 330 120 l 1025,0,0
480 525 m 1,0,0
 540 500 l 1,0,0
 540 500 540 406 540 250 c 3,0,0
 540 -37.501953125 360 -150 360 -150 c 1025,0,0
660 400 m 1,0,0
 660 400 622 350 420 350 c 3,0,0
 208 350 60 400 60 400 c 1025,0,0
EndSplineSet
Fore
SplineSet
680 437 m 1xab
 697 420 l 1
 697 420 696 419 695 418 c 2
 639 362 l 2
 634 357 618 344 577 332 c 1xab
 577 270 l 2
 577 74 493 -41 440 -94 c 2
 384 -150 l 1
 383 -151 l 2
 358 -176 340 -187 340 -187 c 2
 323 -170 l 1
 380 -113 l 1
 380 -113 385 -110 394 -103 c 0
 444 -42 503 66 503 230 c 2
 503 318 l 1
 475 315 441 313 400 313 c 0xc3
 318 313 245 321 187 330 c 1
 187 80 l 2
 187 57 218 49 230 37 c 1
 350 157 l 1
 367 140 l 1
 190 -37 l 1
 113 40 l 1
 113 344 l 1x93
 66 354 40 363 40 363 c 2
 23 380 l 1
 80 437 l 1x8b
 80 437 91 433 113 427 c 1x93
 113 530 l 1
 170 587 l 1
 187 570 l 1
 187 411 l 1
 250 399 338 387 440 387 c 0xc3
 463 387 484 388 503 389 c 1
 503 470 l 1
 460 488 l 1
 443 505 l 1
 500 562 l 1
 560 537 l 1
 577 520 l 1
 577 397 l 1
 642 408 667 425 676 433 c 2
 680 437 l 1xab
EndSplineSet
EndChar
StartChar: hbar_longs
Encoding: 59335 59335 963
Width: 509
Flags: W
HStem: -227 54<21.566 93.3405> -177 54<-102.126 -23.7456> 407 20G<296 336> 407 20G<296 336> 448 54<46 123 177 224> 563 54<316.95 388.249>
VStem: 123 54<-134 266 288 448 502 514> 363 54<44 326>
LayerCount: 2
Back
SplineSet
370 40 m 25
 410 0 l 1049
390 20 m 25
 390 310 l 25
 300 400 l 1
 150 250 l 1049
-150 -200 m 17
 -150 -200 -106 -150 -60 -150 c 8
 -35 -150 33 -200 60 -200 c 24
 86 -200 150 -150 150 -150 c 1
 150 530 l 1
 270 650 l 17
 270 650 300 590 360 590 c 24
 388 590 450 650 451 650 c 1033
240 475 m 25
 30 475 l 1049
EndSplineSet
Fore
SplineSet
267 491 m 1x8f
 224 448 l 1
 177 448 l 1
 177 288 l 1
 316 427 l 1
 417 326 l 1
 417 36 l 1
 437 16 l 1
 394 -27 l 1
 374 -7 l 1
 369 -1 l 1
 343 24 l 1
 363 44 l 1
 363 294 l 2
 363 338 307 350 284 373 c 1
 177 266 l 1
 177 -134 l 1
 134 -177 l 1x6f
 134 -177 70 -227 44 -227 c 0x8f
 17 -227 -51 -177 -76 -177 c 0x4f
 -108 -177 -138 -200 -154 -215 c 2
 -166 -227 l 1x8f
 -177 -216 l 1
 -177 -216 -174 -213 -171 -210 c 2
 -129 -167 l 2
 -116 -154 -80 -123 -44 -123 c 0x4f
 -19 -123 49 -173 76 -173 c 0
 88 -173 107 -163 123 -153 c 1
 123 234 l 1
 123 448 l 1
 14 448 l 1
 3 459 l 1
 46 502 l 1
 123 502 l 1
 123 514 l 1
 286 677 l 1
 297 666 l 1
 297 666 303 654 314 641 c 0
 329 628 350 617 376 617 c 0
 404 617 466 677 467 677 c 2
 478 666 l 1
 435 623 l 2
 434 623 372 563 344 563 c 0
 314 563 292 578 277 593 c 0
 266 604 l 2
 260 610 256 616 252 621 c 1
 177 546 l 1
 177 502 l 1
 256 502 l 1
 267 491 l 1x8f
EndSplineSet
LCarets2: 1 270 
Ligature2: "Historic ligatures-1" hbar longs
EndChar
StartChar: q_rrotunda
Encoding: 59571 59571 965
Width: 720
Flags: W
HStem: -187 21G<323 360> 315 74<272.5 321.905> 417 20G<240 277 360 397 480 524> 417 20G<240 277 360 397 480 524>
VStem: 83 74<140 260> 323 74<-130 66 100 307 334 338>
LayerCount: 2
Back
SplineSet
360 120 m 9
 240 0 l 25
 120 120 l 25
 120 280 l 25
 240 400 l 1
 240 400 264 352 300 352 c 24
 336 352 360 400 360 400 c 9
 360 -150 l 1049
660 60 m 25
 600 0 l 1
 480 180 l 25
 600 300 l 1
 480 400 l 1
 420 340 l 1049
EndSplineSet
Fore
SplineSet
680 97 m 1xec
 697 80 l 1
 580 -37 l 1
 563 -20 l 1
 443 160 l 1
 562 279 l 1
 460 363 l 2
 457 360 l 2
 400 303 l 1
 397 307 l 1
 397 -130 l 1
 340 -187 l 1
 323 -170 l 1
 323 66 l 1
 220 -37 l 1
 83 100 l 1
 83 260 l 1
 260 437 l 1
 277 420 l 1
 277 420 282 410 290 400 c 0
 299 393 309 389 320 389 c 0
 325 389 330 389 334 391 c 2
 380 437 l 1
 397 420 l 1
 397 334 l 1
 500 437 l 1
 620 337 l 1
 637 320 l 1
 517 200 l 1
 623 40 l 1
 680 97 l 1xec
323 100 m 1
 323 338 l 1
 319 334 l 2
 309 324 296 315 280 315 c 0
 265 315 252 324 242 334 c 2
 225 351 l 2
 222 354 219 357 217 360 c 2
 157 300 l 1
 157 140 l 1
 260 37 l 1
 323 100 l 1
EndSplineSet
LCarets2: 1 420 
Ligature2: "Ligatures-1" q rrotunda
EndChar
StartChar: q_etfin
Encoding: 59583 59583 966
Width: 720
Flags: W
HStem: 325 54<280.294 325.904> 407 20G<236 267 356 387 446 496> 407 20G<236 267 356 387 446 496>
VStem: 93 54<136 264> 333 54<-116 82 104 326 348 354 382.047 384> 573 54<56 74>
CounterMasks: 1 1c
LayerCount: 2
Back
SplineSet
360 120 m 9
 240 0 l 25
 120 120 l 25
 120 280 l 25
 240 400 l 1
 240 400 264 352 300 352 c 24
 336 352 360 400 360 400 c 9
 360 -150 l 1049
360 310 m 25
 450 400 l 1
 600 300 l 1
 420 120 l 1
 600 100 l 1
 600 40 l 1
 300 -200 l 1025
EndSplineSet
Fore
SplineSet
333 82 m 1xdc
 224 -27 l 1
 93 104 l 1
 93 264 l 1
 256 427 l 1
 267 416 l 1
 267 416 273 404 283 393 c 0
 293 385 303 379 316 379 c 0
 322 379 327 380 332 382 c 0
 333 383 333 384 333 384 c 1
 376 427 l 1
 387 416 l 1
 387 348 l 1
 466 427 l 1
 616 327 l 1
 627 316 l 1
 456 145 l 1
 616 127 l 1
 627 116 l 1
 627 56 l 1
 584 13 l 1
 284 -227 l 1
 273 -216 l 1
 316 -173 l 1
 333 -159 l 1
 333 82 l 1xdc
333 294 m 1
 333 354 l 1
 323 344 l 2
 313 334 300 325 284 325 c 0
 269 325 256 334 246 344 c 0
 234 355 l 2
 229 360 226 365 222 370 c 1
 147 296 l 1
 147 136 l 1
 256 27 l 1
 333 104 l 1
 333 294 l 1
387 -116 m 1
 573 33 l 1
 573 74 l 1
 404 93 l 1
 393 104 l 1
 571 282 l 1
 434 373 l 1
 387 326 l 1
 387 -116 l 1
EndSplineSet
LCarets2: 1 360 
Ligature2: "Ligatures-1" q etfin
EndChar
StartChar: longs_i
Encoding: 60322 60322 328
Width: 540
GlyphClass: 3
Flags: W
HStem: -237 74<24.611 95.1212> -187 74<-97.6401 -24.611> 417 20G<395 435> 417 20G<395 435> 508 21G<388 425>
VStem: 113 74<-130 510> 383 74<55 345>
LayerCount: 2
Back
SplineSet
420 375 m 9
 420 25 l 1025
395 50 m 25
 445 0 l 25
 495 50 l 1049
395 400 m 25
 445 350 l 1025
-150 -200 m 1
 -150 -200 -106 -150 -60 -150 c 8
 -9 -150 9 -200 60 -200 c 24
 100 -200 150 -150 150 -150 c 1
 150 530 l 1
 270 650 l 1
 270 650 375 595 475 595 c 9
 425 545 l 1025
EndSplineSet
Fore
SplineSet
-170 -237 m 1x8e
 -187 -220 l 1
 -187 -220 -185 -217 -182 -214 c 2
 -125 -158 l 2
 -125 -157 l 0
 -111 -143 -76 -113 -40 -113 c 0x4e
 11 -113 29 -163 80 -163 c 0x8e
 91 -163 103 -159 113 -154 c 1
 113 510 l 1
 290 687 l 1
 290 687 395 632 495 632 c 1
 512 615 l 1
 405 508 l 1
 388 525 l 1
 423 560 l 1
 335 569 250 613 250 613 c 1
 187 550 l 1
 187 -130 l 1
 130 -187 l 1x4e
 130 -187 80 -237 40 -237 c 0x8e
 -11 -237 -29 -187 -80 -187 c 0x4e
 -112 -187 -142 -210 -158 -225 c 2
 -170 -237 l 1x8e
358 380 m 1
 415 437 l 1x2e
 440 412 l 1
 457 395 l 1
 482 370 l 1
 457 345 l 1
 457 45 l 1
 465 37 l 1
 515 87 l 1
 532 70 l 1
 425 -37 l 1
 392 -3 l 1
 383 5 l 1
 358 30 l 1
 383 55 l 1
 383 355 l 1
 358 380 l 1
EndSplineSet
LCarets2: 1 360 
Ligature2: "Ligatures-1" longs i
EndChar
StartChar: longs_l
Encoding: 60323 60323 330
Width: 540
GlyphClass: 3
Flags: W
HStem: -237 74<26.0848 87.9866> -187 74<-97.6401 -27.7931> 588 74<299.241 375>
VStem: 113 74<-130 510> 383 74<55 570>
LayerCount: 2
Back
SplineSet
-150 -200 m 17
 -150 -200 -106 -150 -60 -150 c 8
 -41.5 -150 39 -200 60 -200 c 24
 82.5 -200 150 -150 150 -150 c 1
 150 530 l 1
 270 650 l 1
 270 650 335 625 395 625 c 9
 445 575 l 1025
395 50 m 25
 445 0 l 25
 495 50 l 1049
420 600 m 9
 420 25 l 1049
EndSplineSet
Fore
SplineSet
-170 -237 m 1xb8
 -187 -220 l 1
 -187 -220 -185 -217 -182 -214 c 2
 -125 -158 l 2
 -125 -157 l 0
 -111 -143 -76 -113 -40 -113 c 0x78
 -22 -113 59 -163 80 -163 c 0xb8
 87 -163 101 -157 113 -150 c 1
 113 510 l 1
 290 687 l 1
 290 687 355 662 415 662 c 1
 440 637 l 1
 457 620 l 1
 482 595 l 1
 457 570 l 1
 457 45 l 1
 465 37 l 1
 515 87 l 1
 532 70 l 1
 425 -37 l 1
 400 -12 l 1
 383 5 l 1
 358 30 l 1
 383 55 l 1
 383 580 l 1
 375 588 l 1
 315 588 250 613 250 613 c 1
 187 550 l 1
 187 -130 l 1
 130 -187 l 1x78
 130 -187 62 -237 40 -237 c 0xb8
 19 -237 -62 -187 -80 -187 c 0x78
 -112 -187 -142 -210 -158 -225 c 2
 -170 -237 l 1xb8
EndSplineSet
LCarets2: 1 360 
Ligature2: "Ligatures-1" longs l
EndChar
StartChar: longs_longs
Encoding: 60326 60326 327
Width: 600
GlyphClass: 3
Flags: W
HStem: -227 54<21.566 93.3405 247.834 336.679> -177 54<-102.126 -23.7456> 563 54<556.95 628.249>
VStem: 123 54<-129.885 514> 363 54<-134 515.75>
LayerCount: 2
Back
SplineSet
150 -150 m 1
 187 -150 262 -200 300 -200 c 0
 334 -200 390 -150 390 -150 c 1
 390 530 l 1
 510 650 l 17
 510 650 540 590 600 590 c 24
 628 590 690 650 691 650 c 1033
-150 -200 m 17
 -150 -200 -106 -150 -60 -150 c 8
 -35 -150 33 -200 60 -200 c 24
 86 -200 150 -150 150 -150 c 1
 150 530 l 1
 270 650 l 1
 270 650 337 530 390 530 c 1025
EndSplineSet
Fore
SplineSet
-166 -227 m 1xb8
 -177 -216 l 1
 -177 -216 -174 -213 -171 -210 c 2
 -129 -167 l 2
 -116 -154 -80 -123 -44 -123 c 0x78
 -19 -123 49 -173 76 -173 c 0xb8
 88 -173 107 -163 123 -153 c 1
 123 514 l 1
 286 677 l 1
 297 666 l 1
 297 666 323 618 356 583 c 0
 372 568 390 557 406 557 c 1
 526 677 l 1
 537 666 l 1
 537 666 543 654 554 641 c 0
 569 628 590 617 616 617 c 0
 644 617 706 677 707 677 c 2
 718 666 l 1
 675 623 l 2
 674 623 612 563 584 563 c 0
 554 563 532 578 517 593 c 0
 506 604 l 2
 500 610 496 616 492 621 c 1
 417 546 l 1
 417 -134 l 1
 374 -177 l 1x78
 374 -177 318 -227 284 -227 c 0xb8
 246 -227 171 -177 134 -177 c 1x78
 134 -177 70 -227 44 -227 c 0xb8
 17 -227 -51 -177 -76 -177 c 0x78
 -108 -177 -138 -200 -154 -215 c 2
 -166 -227 l 1xb8
363 505 m 1
 349 509 334 520 320 534 c 2
 309 545 l 2
 285 569 264 601 252 620 c 1
 177 546 l 1
 177 -124 l 1
 216 -132 282 -173 316 -173 c 0xb8
 330 -173 348 -164 363 -155 c 1
 363 505 l 1
EndSplineSet
LCarets2: 1 360 
Ligature2: "Ligatures-1" longs longs
EndChar
StartChar: longs_longs_i
Encoding: 60327 60327 331
Width: 780
GlyphClass: 3
Flags: W
HStem: -227 54<21.566 93.3405 247.834 336.679> -177 54<-102.126 -23.7456> 407 20G<636 676> 407 20G<636 676> 513 21G<633 664> 574 53<598.676 682>
VStem: 123 54<-129.885 514> 363 54<-134 515.75> 633 54<44 356>
LayerCount: 2
Back
SplineSet
150 -150 m 1
 187 -150 262 -200 300 -200 c 0
 334 -200 390 -150 390 -150 c 1
 390 530 l 1
 510 650 l 17
 510 650 600 600 720 600 c 1
 660 540 l 1025
-150 -200 m 1
 -150 -200 -106 -150 -60 -150 c 8
 -35 -150 33 -200 60 -200 c 24
 86 -200 150 -150 150 -150 c 1
 150 530 l 1
 270 650 l 1
 270 650 337 530 390 530 c 1025
640 400 m 25
 680 360 l 1025
660 380 m 9
 660 20 l 1025
640 40 m 25
 680 0 l 25
 720 40 l 1049
EndSplineSet
Fore
SplineSet
613 384 m 1x2f80
 656 427 l 1
 676 407 l 1
 687 396 l 1
 707 376 l 1
 687 356 l 1
 687 36 l 1
 696 27 l 1
 736 67 l 1
 747 56 l 1
 664 -27 l 1
 644 -7 l 1
 639 -1 l 1
 613 24 l 1
 633 44 l 1
 633 364 l 1
 613 384 l 1x2f80
-166 -227 m 1x8f80
 -177 -216 l 1
 -177 -216 -174 -213 -171 -210 c 2
 -129 -167 l 2
 -116 -154 -80 -123 -44 -123 c 0x4f80
 -19 -123 49 -173 76 -173 c 0x8f80
 88 -173 107 -163 123 -153 c 1
 123 514 l 1
 286 677 l 1
 297 666 l 1
 297 666 323 618 356 583 c 0
 372 568 390 557 406 557 c 1
 526 677 l 1
 526 677 616 627 736 627 c 1
 747 616 l 1
 644 513 l 1
 633 524 l 1
 682 574 l 1
 574 579 494 623 494 623 c 1
 417 546 l 1
 417 -134 l 1
 374 -177 l 1x4f80
 374 -177 318 -227 284 -227 c 0x8f80
 246 -227 171 -177 134 -177 c 1x4f80
 134 -177 70 -227 44 -227 c 0x8f80
 17 -227 -51 -177 -76 -177 c 0x4f80
 -108 -177 -138 -200 -154 -215 c 2
 -166 -227 l 1x8f80
363 505 m 1
 349 509 334 520 320 534 c 2
 309 545 l 2
 285 569 264 601 252 620 c 1
 177 546 l 1
 177 -124 l 1
 216 -132 282 -173 316 -173 c 0x8f80
 330 -173 348 -164 363 -155 c 1
 363 505 l 1
EndSplineSet
LCarets2: 2 360 600 
Ligature2: "Ligatures-1" longs longs i
EndChar
StartChar: longs_longs_l
Encoding: 60328 60328 332
Width: 780
GlyphClass: 3
Flags: W
HStem: -237 74<26.134 89.6482 252.243 332.745> -187 74<-97.6401 -27.2399> 588 74<539.241 615>
VStem: 113 74<-122.421 510> 353 74<-130 510.106> 623 74<55 570>
LayerCount: 2
Back
SplineSet
150 -150 m 1
 187 -150 262 -200 300 -200 c 0
 334 -200 390 -150 390 -150 c 1
 390 530 l 1
 510 650 l 17
 510 650 575 625 635 625 c 1
 685 575 l 1025
-150 -200 m 17
 -150 -200 -106 -150 -60 -150 c 8
 -35 -150 33 -200 60 -200 c 24
 86 -200 150 -150 150 -150 c 1
 150 530 l 1
 270 650 l 1
 270 650 337 530 390 530 c 1025
635 50 m 25
 685 0 l 25
 735 50 l 1049
660 600 m 9
 660 25 l 1049
EndSplineSet
Fore
SplineSet
-170 -237 m 1xbc
 -187 -220 l 1
 -187 -220 -185 -217 -182 -214 c 2
 -125 -158 l 2
 -125 -157 l 0
 -111 -143 -76 -113 -40 -113 c 0x7c
 -15 -113 53 -163 80 -163 c 0xbc
 88 -163 100 -158 113 -151 c 1
 113 510 l 1
 290 687 l 1
 307 670 l 1
 307 670 333 625 364 590 c 0
 379 576 395 567 410 567 c 1
 530 687 l 1
 530 687 595 662 655 662 c 1
 680 637 l 1
 697 620 l 1
 722 595 l 1
 697 570 l 1
 697 45 l 1
 705 37 l 1
 755 87 l 1
 772 70 l 1
 665 -37 l 1
 640 -12 l 1
 623 5 l 1
 598 30 l 1
 623 55 l 1
 623 580 l 1
 615 588 l 1
 555 588 490 613 490 613 c 1
 427 550 l 1
 427 -130 l 1
 370 -187 l 1x7c
 370 -187 314 -237 280 -237 c 0xbc
 242 -237 167 -187 130 -187 c 1x7c
 130 -187 66 -237 40 -237 c 0xbc
 13 -237 -55 -187 -80 -187 c 0x7c
 -112 -187 -142 -210 -158 -225 c 2
 -170 -237 l 1xbc
353 497 m 1
 341 502 328 512 316 524 c 0
 315 524 l 1
 298 541 l 2
 277 562 258 590 246 609 c 1
 187 550 l 1
 187 -116 l 1
 227 -126 287 -163 320 -163 c 0xbc
 330 -163 342 -159 353 -153 c 1
 353 497 l 1
EndSplineSet
LCarets2: 2 360 600 
Ligature2: "Ligatures-1" longs longs l
EndChar
StartChar: longs_t_r
Encoding: 60330 60330 713
Width: 840
Flags: W
HStem: -237 74<26.134 89.6482> -187 74<-97.6401 -27.2399> 363 74<320 353 427 555> 417 20G<720 760>
VStem: 113 74<-130 510> 353 74<51.4784 363 437 527.072> 563 74<55 96 130 300 334 345>
LayerCount: 2
Back
SplineSet
780 340 m 25
 720 400 l 25
 600 280 l 1049
575 50 m 25
 625 0 l 1049
600 375 m 9
 600 25 l 1025
-150 -200 m 1
 -150 -200 -106 -150 -60 -150 c 8
 -35 -150 33 -200 60 -200 c 24
 86 -200 150 -150 150 -150 c 1
 150 530 l 1
 270 650 l 1
 270 650 337 550 390 550 c 1
 390 60 l 1
 450 0 l 1
 570 120 l 1025
300 400 m 1
 575 400 l 25
 625 350 l 1025
EndSplineSet
Fore
SplineSet
263 380 m 1x2e
 320 437 l 1
 353 437 l 1
 353 516 l 1
 335 522 315 538 298 555 c 2
 281 572 l 2
 268 585 257 600 248 611 c 1
 187 550 l 1
 187 -130 l 1
 130 -187 l 1x6e
 130 -187 66 -237 40 -237 c 0x8e
 13 -237 -55 -187 -80 -187 c 0x4e
 -112 -187 -142 -210 -158 -225 c 2
 -170 -237 l 1x8e
 -187 -220 l 1
 -187 -220 -185 -217 -182 -214 c 2
 -125 -158 l 2
 -125 -157 l 0
 -111 -143 -76 -113 -40 -113 c 0x4e
 -15 -113 53 -163 80 -163 c 0
 88 -163 100 -158 113 -151 c 1
 113 510 l 1
 290 687 l 1
 307 670 l 1
 307 670 324 645 346 621 c 0
 366 602 389 587 410 587 c 1
 427 570 l 1
 427 437 l 1xae
 595 437 l 1
 620 412 l 1
 637 395 l 1
 662 370 l 1
 637 345 l 1
 637 334 l 1
 740 437 l 1x1e
 817 360 l 1
 760 303 l 1
 700 363 l 1
 637 300 l 1
 637 45 l 1
 662 20 l 1
 605 -37 l 1
 538 30 l 1
 563 55 l 1
 563 96 l 1
 430 -37 l 1
 353 40 l 1
 353 363 l 1
 280 363 l 1
 263 380 l 1x2e
427 363 m 1
 427 80 l 2
 427 57 458 49 470 37 c 1
 563 130 l 1
 563 260 l 1
 563 355 l 1
 555 363 l 1
 427 363 l 1
EndSplineSet
LCarets2: 2 360 600 
Ligature2: "Ligatures-1" longs t r
EndChar
StartChar: b_b
Encoding: 61122 61122 349
Width: 720
GlyphClass: 3
Flags: W
HStem: 407 20G<236 275.744 476 516> 407 20G<236 275.744 476 516>
VStem: 93 54<104 296 318 581> 333 54<104 296 349 581> 573 54<136 296>
CounterMasks: 1 38
LayerCount: 2
Back
SplineSet
340 625 m 25
 380 585 l 1049
360 605 m 9
 360 120 l 25
 480 0 l 25
 600 120 l 25
 600 280 l 25
 480 400 l 1
 360 280 l 1049
100 625 m 25
 140 585 l 1049
120 605 m 9
 120 120 l 25
 240 0 l 25
 360 120 l 25
 360 280 l 25
 240 400 l 1
 120 280 l 1049
EndSplineSet
Fore
SplineSet
147 296 m 1x38
 147 136 l 2
 147 75 224 59 256 27 c 1
 333 104 l 1
 333 264 l 1
 333 325 256 341 224 373 c 1
 147 296 l 1x38
147 318 m 1
 256 427 l 1
 333 349 l 1
 333 589 l 1
 313 609 l 1
 356 652 l 1
 376 632 l 1
 387 621 l 1
 407 601 l 1
 387 581 l 1
 387 318 l 1
 496 427 l 1xb8
 627 296 l 1
 627 136 l 1
 464 -27 l 1
 344 93 l 1
 224 -27 l 1
 93 104 l 1
 93 589 l 1
 73 609 l 1
 116 652 l 1
 136 632 l 1
 147 621 l 1
 167 601 l 1
 147 581 l 1
 147 318 l 1
387 296 m 1
 387 136 l 2
 387 75 464 59 496 27 c 1
 573 104 l 1
 573 264 l 2
 573 325 496 341 464 373 c 1
 387 296 l 1
EndSplineSet
LCarets2: 1 360 
Ligature2: "Historic ligatures-1" b b
EndChar
StartChar: b_g
Encoding: 61123 61123 350
Width: 480
GlyphClass: 3
Flags: W
HStem: -237 74<236.134 299.648> -187 74<112.36 182.76> 417 20G<240 280> 417 20G<240 280>
VStem: 83 74<100 300 334 570> 323 74<-130 66 100 300>
LayerCount: 2
Back
SplineSet
120 600 m 9
 120 120 l 25
 240 0 l 1
 360 120 l 25
 360 280 l 1
 240 400 l 1
 120 280 l 1049
60 -200 m 17
 60 -200 104 -150 150 -150 c 8
 175 -150 243 -200 270 -200 c 24
 296 -200 360 -150 360 -150 c 1
 360 120 l 1033
95 625 m 25
 145 575 l 1049
EndSplineSet
Fore
SplineSet
58 605 m 1x8c
 115 662 l 1
 140 637 l 1
 157 620 l 1
 182 595 l 1
 157 570 l 1
 157 334 l 1
 260 437 l 1
 397 300 l 1
 397 140 l 1
 397 -130 l 1
 340 -187 l 1x6c
 340 -187 276 -237 250 -237 c 0x8c
 223 -237 155 -187 130 -187 c 0x4c
 98 -187 68 -210 52 -225 c 2
 40 -237 l 1x8c
 23 -220 l 1
 23 -220 25 -217 28 -214 c 2
 85 -158 l 2
 85 -157 l 0
 99 -143 134 -113 170 -113 c 0x4c
 195 -113 263 -163 290 -163 c 0
 298 -163 310 -158 323 -151 c 1
 323 66 l 1
 220 -37 l 1
 83 100 l 1
 83 580 l 1
 58 605 l 1x8c
157 300 m 1
 157 140 l 2
 157 84 230 67 260 37 c 1
 323 100 l 1
 323 260 l 2
 323 316 250 333 220 363 c 1
 157 300 l 1
EndSplineSet
LCarets2: 1 240 
Ligature2: "Historic ligatures-1" b g
EndChar
StartChar: c_k
Encoding: 61124 61124 439
Width: 780
Flags: W
HStem: 417 20G<240 279.839> 437 5G<240 279.839 635 675>
VStem: 83 74<100 260> 383 74<55 126 157 199 247 286 313 570> 623 74<55 174>
LayerCount: 2
Back
SplineSet
360 280 m 9
 240 400 l 25
 120 280 l 25
 120 120 l 25
 240 0 l 25
 360 120 l 1041
635 425 m 25
 685 375 l 1049
395 625 m 25
 445 575 l 1049
395 625 m 25
 445 575 l 1049
420 200 m 1
 660 350 l 9
 660 400 l 1049
540 275 m 1
 660 200 l 1
 660 25 l 1025
635 50 m 25
 685 0 l 1049
395 50 m 25
 445 0 l 1049
395 625 m 25
 445 575 l 1049
420 600 m 9
 420 25 l 1049
EndSplineSet
Fore
SplineSet
598 405 m 1xb8
 655 462 l 1
 680 437 l 1x78
 697 420 l 1
 722 395 l 1
 697 370 l 1
 665 338 l 1
 640 313 l 1
 599 287 l 1
 680 237 l 1
 697 220 l 1
 697 45 l 1
 722 20 l 1
 665 -37 l 1
 640 -12 l 1
 623 5 l 1
 598 30 l 1
 623 55 l 1
 623 174 l 1
 520 238 l 1
 457 199 l 1
 457 45 l 1
 482 20 l 1
 425 -37 l 1
 400 -12 l 1
 383 5 l 1
 358 30 l 1
 383 55 l 1
 383 126 l 1
 220 -37 l 1
 83 100 l 1
 83 260 l 1
 260 437 l 1
 383 313 l 1
 383 580 l 1
 358 605 l 1
 415 662 l 1
 440 637 l 1
 457 620 l 1
 482 595 l 1
 457 570 l 1
 457 247 l 1
 560 312 l 1
 623 351 l 1
 623 380 l 1
 598 405 l 1xb8
383 180 m 1
 383 286 l 1
 340 243 l 1
 220 363 l 1
 157 300 l 1
 157 140 l 2
 157 84 230 67 260 37 c 1
 380 157 l 1
 383 153 l 1
 383 180 l 1
EndSplineSet
LCarets2: 1 420 
Ligature2: "Ligatures-1" c k
EndChar
StartChar: c_t
Encoding: 61125 61125 335
Width: 809
Flags: W
HStem: 313 74<335.653 533> 327 66<607 673.143> 417 20G<236 356 679.545 757> 437 130G<236 356 570 607 679.545 757>
VStem: 83 74<140 280> 533 74<51.4784 316 393 530>
LayerCount: 2
Back
SplineSet
360 120 m 9
 240 0 l 25
 120 120 l 25
 120 300 l 1
 240 400 l 17
 240 400 324.968994112 350 480 350 c 3
 664 350 720 400 720 400 c 1033
570 550 m 1
 570 60 l 1
 630 0 l 1
 750 120 l 1025
EndSplineSet
Fore
SplineSet
590 587 m 1xac
 607 570 l 1
 607 393 l 1
 707 407 740 437 740 437 c 1
 757 420 l 1
 700 363 l 1
 700 363 676 342 607 327 c 1x6c
 607 80 l 2
 607 57 638 49 650 37 c 1
 770 157 l 1
 787 140 l 1
 610 -37 l 1
 533 40 l 1
 533 316 l 1
 511 314 487 313 460 313 c 0
 305 313 220 363 220 363 c 1
 157 310 l 1
 157 140 l 1
 260 37 l 1
 380 157 l 1
 397 140 l 1
 220 -37 l 1
 83 100 l 1
 83 280 l 1
 140 337 l 1
 260 437 l 1
 260 437 345 387 500 387 c 0
 512 387 522 387 533 387 c 1
 533 530 l 1
 590 587 l 1xac
EndSplineSet
LCarets2: 1 420 
Ligature2: "Ligatures-1" c t
EndChar
StartChar: e_y
Encoding: 61127 61127 351
Width: 720
GlyphClass: 3
Flags: W
HStem: -227 54<472.501 540.472> -177 54<347.874 425.576> -27 21G<194 244 444 484> 407 20G<236 286 576 616> 407 20G<236 286 576 616>
VStem: 93 54<118 264> 333 54<136 282> 573 54<-134 82 104 356>
CounterMasks: 1 07
LayerCount: 2
Back
SplineSet
620 360 m 25
 580 400 l 1049
300 -200 m 17
 300 -200 344 -150 390 -150 c 8
 402 -150 495 -200 510 -200 c 24
 529 -200 600 -150 600 -150 c 1
 600 380 l 1025
600 120 m 9
 480 0 l 25
 360 120 l 1
 360 320 l 1049
360 120 m 13
 240 0 l 29
 120 80 l 29
 120 280 l 29
 240 400 l 29
 360 320 l 5
 120 80 l 1029
EndSplineSet
Fore
SplineSet
147 118 m 1x27
 331 302 l 1
 224 373 l 1
 147 296 l 1
 147 118 l 1x27
149 98 m 1
 256 27 l 1
 333 104 l 1
 333 282 l 1
 149 98 l 1
284 -227 m 1xa7
 273 -216 l 1
 273 -216 276 -213 279 -210 c 2
 321 -167 l 2
 334 -154 370 -123 406 -123 c 0x67
 418 -123 511 -173 526 -173 c 0xa7
 535 -173 554 -162 573 -151 c 1
 573 82 l 1
 464 -27 l 1
 344 93 l 1
 224 -27 l 1
 104 53 l 1
 93 64 l 1
 93 264 l 1
 256 427 l 1
 376 347 l 1
 387 336 l 1
 387 136 l 1
 496 27 l 1
 573 104 l 1
 573 364 l 1
 553 384 l 1
 596 427 l 1
 616 407 l 1
 627 396 l 1
 647 376 l 1
 627 356 l 1
 627 136 l 1
 627 -134 l 1
 584 -177 l 1x77
 584 -177 513 -227 494 -227 c 0xa7
 479 -227 386 -177 374 -177 c 0x67
 342 -177 312 -200 296 -215 c 2
 284 -227 l 1xa7
EndSplineSet
LCarets2: 1 360 
Ligature2: "Historic ligatures-1" e y
EndChar
StartChar: f_y
Encoding: 61133 61133 353
Width: 780
GlyphClass: 3
Flags: W
HStem: -237 74<26.134 89.6482 536.085 597.987> -187 74<-97.6401 -27.2399 412.36 482.207> 363 74<80 113 187 375> 417 20G<635 675> 613 14<380 431>
VStem: 113 74<-130 363 437 510> 383 74<140 345> 623 74<-130 66 100 345>
LayerCount: 2
Back
SplineSet
685 350 m 25
 635 400 l 1049
360 -200 m 17
 360 -200 404 -150 450 -150 c 8
 468.5 -150 549 -200 570 -200 c 24
 592.5 -200 660 -150 660 -150 c 1
 660 375 l 1025
660 120 m 9
 540 0 l 25
 420 120 l 1
 420 375 l 1049
-150 -200 m 17
 -150 -200 -106 -150 -60 -150 c 8
 -35 -150 33 -200 60 -200 c 24
 86 -200 150 -150 150 -150 c 1
 150 530 l 1
 270 650 l 17
 270 650 300 590 360 590 c 24
 388 590 450 650 451 650 c 1033
60 400 m 1
 395 400 l 25
 445 350 l 1025
EndSplineSet
Fore
SplineSet
23 380 m 1xaf
 80 437 l 1
 113 437 l 1
 113 510 l 1
 290 687 l 1
 307 670 l 1
 307 670 312 660 321 649 c 0
 336 637 355 627 380 627 c 0
 408 627 470 687 471 687 c 2
 488 670 l 1
 431 613 l 2
 430 613 368 553 340 553 c 0
 310 553 288 568 273 583 c 2
 256 600 l 2
 253 603 250 607 247 610 c 1
 187 550 l 1
 187 437 l 1xaf
 415 437 l 1
 440 412 l 1
 457 395 l 1
 482 370 l 1
 457 345 l 1
 457 140 l 1
 560 37 l 1
 623 100 l 1
 623 355 l 1
 598 380 l 1
 655 437 l 1
 680 412 l 1
 697 395 l 1
 722 370 l 1
 697 345 l 1
 697 140 l 1
 697 -130 l 1
 640 -187 l 1x5f
 640 -187 572 -237 550 -237 c 0x8f
 529 -237 448 -187 430 -187 c 0x4f
 398 -187 368 -210 352 -225 c 2
 340 -237 l 1x8f
 323 -220 l 1
 323 -220 325 -217 328 -214 c 2
 385 -158 l 2
 385 -157 l 0
 399 -143 434 -113 470 -113 c 0x4f
 488 -113 569 -163 590 -163 c 0x8f
 597 -163 611 -157 623 -150 c 1
 623 66 l 1
 520 -37 l 1
 383 100 l 1
 383 355 l 1
 375 363 l 1
 187 363 l 1
 187 -130 l 1
 130 -187 l 1x6f
 130 -187 66 -237 40 -237 c 0x8f
 13 -237 -55 -187 -80 -187 c 0x4f
 -112 -187 -142 -210 -158 -225 c 2
 -170 -237 l 1x8f
 -187 -220 l 1
 -187 -220 -185 -217 -182 -214 c 2
 -125 -158 l 2
 -125 -157 l 0
 -111 -143 -76 -113 -40 -113 c 0x4f
 -15 -113 53 -163 80 -163 c 0
 88 -163 100 -158 113 -151 c 1
 113 363 l 1
 40 363 l 1
 23 380 l 1xaf
EndSplineSet
LCarets2: 1 360 
Ligature2: "Ligatures-1" f y
EndChar
StartChar: f_f_t
Encoding: 61134 61134 354
Width: 869
GlyphClass: 3
Flags: W
HStem: -227 54<21.566 93.3405 247.834 336.708> -177 54<-102.126 -23.7456> 373 54<76 123 177 363 417 603 657 764>
VStem: 123 54<-129.885 373 427 514> 363 54<-134 373 427 515.75> 603 54<76 373 427 533.731>
CounterMasks: 1 1c
LayerCount: 2
Back
SplineSet
810 120 m 1
 690 0 l 1
 630 60 l 1
 630 550 l 1
 577 550 510 650 510 650 c 9
 390 530 l 1
 390 -150 l 1
 390 -150 334 -200 300 -200 c 0
 262 -200 187 -150 150 -150 c 1025
-150 -200 m 17
 -150 -200 -106 -150 -60 -150 c 8
 -35 -150 33 -200 60 -200 c 24
 86 -200 150 -150 150 -150 c 1
 150 530 l 1
 270 650 l 1
 270 650 337 530 390 530 c 1025
60 400 m 1
 780 400 l 1049
EndSplineSet
Fore
SplineSet
33 384 m 1xbc
 76 427 l 1
 123 427 l 1
 123 514 l 1
 286 677 l 1
 297 666 l 1
 297 666 323 618 356 583 c 0
 372 568 390 557 406 557 c 1
 526 677 l 1
 537 666 l 2
 537 666 554 639 579 613 c 0
 599 594 624 577 646 577 c 1
 657 566 l 1
 657 427 l 1
 796 427 l 1
 807 416 l 1
 764 373 l 1
 657 373 l 1
 657 76 l 1
 706 27 l 1
 826 147 l 1
 837 136 l 1
 674 -27 l 1
 603 44 l 1
 603 373 l 1
 417 373 l 1
 417 -134 l 1
 374 -177 l 1x7c
 374 -177 318 -227 284 -227 c 0xbc
 246 -227 171 -177 134 -177 c 1x7c
 134 -177 70 -227 44 -227 c 0xbc
 17 -227 -51 -177 -76 -177 c 0x7c
 -108 -177 -138 -200 -154 -215 c 2
 -166 -227 l 1xbc
 -177 -216 l 1
 -177 -216 -174 -213 -171 -210 c 2
 -129 -167 l 2
 -116 -154 -80 -123 -44 -123 c 0x7c
 -19 -123 49 -173 76 -173 c 0
 88 -173 107 -163 123 -153 c 1
 123 373 l 1
 44 373 l 1
 33 384 l 1xbc
177 427 m 1
 363 427 l 1
 363 505 l 1
 349 509 334 520 320 534 c 2
 309 545 l 2
 285 569 264 601 252 620 c 1
 177 546 l 1
 177 427 l 1
177 373 m 1
 177 -124 l 1
 216 -132 282 -173 316 -173 c 0xbc
 330 -173 346 -165 363 -155 c 1
 363 373 l 1
 177 373 l 1
417 427 m 1
 603 427 l 1
 603 525 l 1
 583 530 561 546 542 565 c 2
 531 576 l 2
 515 592 502 610 493 621 c 1
 417 546 l 1
 417 427 l 1
EndSplineSet
LCarets2: 2 360 600 
Ligature2: "Ligatures-1" f f t
EndChar
StartChar: f_f_y
Encoding: 61135 61135 355
Width: 1020
GlyphClass: 3
Flags: W
HStem: -237 74<26.134 89.6482 252.243 332.745 776.085 837.987> -187 74<-97.6401 -27.2399 652.36 722.207> 363 74<80 113 187 353 427 615> 417 20G<875 915> 613 14<620 671>
VStem: 113 74<-122.421 363 437 510> 353 74<-130 363 437 510.106> 623 74<140 345> 863 74<-130 66 100 345>
LayerCount: 2
Back
SplineSet
925 350 m 25
 875 400 l 1049
600 -200 m 17
 600 -200 644 -150 690 -150 c 8
 708.5 -150 789 -200 810 -200 c 24
 832.5 -200 900 -150 900 -150 c 1
 900 375 l 1025
900 120 m 9
 780 0 l 25
 660 120 l 1
 660 375 l 1049
150 -150 m 1
 187 -150 262 -200 300 -200 c 0
 334 -200 390 -150 390 -150 c 1
 390 530 l 1
 510 650 l 17
 510 650 540 590 600 590 c 24
 628 590 690 650 691 650 c 1025
-150 -200 m 1
 -150 -200 -106 -150 -60 -150 c 8
 -35 -150 33 -200 60 -200 c 24
 86 -200 150 -150 150 -150 c 1
 150 530 l 1
 270 650 l 1
 270 650 337 530 390 530 c 1025
60 400 m 1
 635 400 l 25
 685 350 l 1025
EndSplineSet
Fore
SplineSet
23 380 m 1xaf80
 80 437 l 1
 113 437 l 1
 113 510 l 1
 290 687 l 1
 307 670 l 1
 307 670 333 625 364 590 c 0
 379 576 395 567 410 567 c 1
 530 687 l 1
 547 670 l 1
 547 670 552 660 561 649 c 0
 576 637 595 627 620 627 c 0
 648 627 710 687 711 687 c 2
 728 670 l 1
 671 613 l 2
 670 613 608 553 580 553 c 0
 550 553 528 568 513 583 c 0
 496 600 l 2
 493 603 490 607 487 610 c 1
 427 550 l 1
 427 437 l 1xaf80
 655 437 l 1
 680 412 l 1
 697 395 l 1
 722 370 l 1
 697 345 l 1
 697 140 l 1
 800 37 l 1
 863 100 l 1
 863 355 l 1
 838 380 l 1
 895 437 l 1
 920 412 l 1
 937 395 l 1
 962 370 l 1
 937 345 l 1
 937 140 l 1
 937 -130 l 1
 880 -187 l 1x5f80
 880 -187 812 -237 790 -237 c 0x8f80
 769 -237 688 -187 670 -187 c 0x4f80
 638 -187 608 -210 592 -225 c 2
 580 -237 l 1x8f80
 563 -220 l 1
 563 -220 565 -217 568 -214 c 2
 625 -158 l 1
 625 -157 l 2
 639 -143 674 -113 710 -113 c 0x4f80
 728 -113 809 -163 830 -163 c 0x8f80
 837 -163 851 -157 863 -150 c 1
 863 66 l 1
 760 -37 l 1
 623 100 l 1
 623 355 l 1
 615 363 l 1
 427 363 l 1
 427 -130 l 1
 370 -187 l 1x6f80
 370 -187 314 -237 280 -237 c 0x8f80
 242 -237 167 -187 130 -187 c 1x4f80
 130 -187 66 -237 40 -237 c 0x8f80
 13 -237 -55 -187 -80 -187 c 0x4f80
 -112 -187 -142 -210 -158 -225 c 2
 -170 -237 l 1x8f80
 -187 -220 l 1
 -187 -220 -185 -217 -182 -214 c 2
 -125 -158 l 2
 -125 -157 l 0
 -111 -143 -76 -113 -40 -113 c 0x4f80
 -15 -113 53 -163 80 -163 c 0
 88 -163 100 -158 113 -151 c 1
 113 363 l 1
 40 363 l 1
 23 380 l 1xaf80
187 437 m 1
 353 437 l 1
 353 497 l 1
 341 502 328 512 316 524 c 0
 315 524 l 1
 298 541 l 2
 277 562 258 590 246 609 c 1
 187 550 l 1
 187 437 l 1
187 363 m 1
 187 -116 l 1
 227 -126 287 -163 320 -163 c 0
 330 -163 342 -159 353 -153 c 1
 353 363 l 1
 187 363 l 1
EndSplineSet
LCarets2: 2 360 600 
Ligature2: "Ligatures-1" f f y
EndChar
